<svg width="304" height="325" viewBox="0 0 304 325" fill="none" xmlns="http://www.w3.org/2000/svg">
<path d="M106.827 217.847C123.533 234.605 123.533 261.774 106.827 278.532L126.185 297.952C153.578 270.463 153.578 225.905 126.185 198.427M106.827 217.847C90.1205 201.088 63.0372 201.088 46.3312 217.847L26.9723 198.427C54.3646 170.949 98.7825 170.949 126.185 198.427M106.827 217.847L56.8577 267.973M126.185 198.427L155.954 168.565M224.312 3C170.913 3.00001 127.624 46.4248 127.624 99.9921C127.624 153.559 170.913 196.984 224.312 196.984C277.711 196.984 321 153.559 321 99.9921C321 46.4248 277.711 3 224.312 3ZM224.312 40.856C191.752 40.856 165.361 67.3297 165.361 99.9918C165.361 132.654 191.752 159.128 224.312 159.128C256.872 159.128 283.262 132.654 283.262 99.9918C283.262 67.3297 256.872 40.856 224.312 40.856ZM34.5475 258.707C17.1277 258.707 3.00002 272.879 3.00002 290.353C3.00002 307.828 17.1277 322 34.5475 322C51.9674 322 66.095 307.828 66.095 290.353C66.095 272.879 51.9674 258.707 34.5475 258.707Z" stroke="url(#paint0_linear_1_3050)" stroke-opacity="0.2" stroke-width="5" stroke-miterlimit="10"/>
<defs>
<linearGradient id="paint0_linear_1_3050" x1="301.904" y1="22.1555" x2="2.22342" y2="320.898" gradientUnits="userSpaceOnUse">
<stop stop-color="#2F235C" stop-opacity="0"/>
<stop offset="1" stop-color="#2F235C"/>
</linearGradient>
</defs>
</svg>
