<svg width="354" height="375" viewBox="0 0 354 375" fill="none" xmlns="http://www.w3.org/2000/svg">
<path d="M123.151 123.478C142.484 104.093 142.484 72.6661 123.151 53.2809L145.554 30.8172C177.253 62.615 177.253 114.156 145.554 145.942M123.151 123.478C103.819 142.863 72.477 142.863 53.1443 123.478L30.7415 145.942C62.4407 177.727 113.843 177.727 145.554 145.942M123.151 123.478L65.3259 65.4956M145.554 145.942L180.003 180.485M259.109 372C197.314 372 147.219 321.769 147.219 259.805C147.219 197.842 197.314 147.611 259.109 147.611C320.905 147.611 371 197.842 371 259.805C371 321.769 320.905 372 259.109 372ZM259.109 328.21C221.43 328.21 190.89 297.587 190.89 259.806C190.89 222.024 221.43 191.401 259.109 191.401C296.788 191.401 327.329 222.024 327.329 259.806C327.329 297.587 296.788 328.21 259.109 328.21ZM39.5078 76.2139C19.349 76.2139 2.99997 59.8205 2.99997 39.607C2.99997 19.3934 19.349 3.00002 39.5078 3.00002C59.6666 3.00002 76.0156 19.3934 76.0156 39.607C76.0156 59.8205 59.6666 76.2139 39.5078 76.2139Z" stroke="url(#paint0_linear_1_3053)" stroke-opacity="0.2" stroke-width="5" stroke-miterlimit="10"/>
<defs>
<linearGradient id="paint0_linear_1_3053" x1="348.902" y1="349.842" x2="2.24862" y2="4.1275" gradientUnits="userSpaceOnUse">
<stop stop-color="#2F235C" stop-opacity="0"/>
<stop offset="1" stop-color="#2F235C"/>
</linearGradient>
</defs>
</svg>
