<svg width="304" height="325" viewBox="0 0 304 325" fill="none" xmlns="http://www.w3.org/2000/svg">
<path d="M217.173 217.847C200.467 234.605 200.467 261.774 217.173 278.532L197.815 297.952C170.422 270.463 170.422 225.905 197.815 198.427M217.173 217.847C233.879 201.088 260.963 201.088 277.669 217.847L297.028 198.427C269.635 170.949 225.217 170.949 197.815 198.427M217.173 217.847L267.142 267.973M197.815 198.427L168.046 168.565M99.6881 3C153.087 3.00001 196.376 46.4248 196.376 99.9921C196.376 153.559 153.087 196.984 99.6881 196.984C46.2887 196.984 2.99999 153.559 3 99.9921C3 46.4248 46.2887 3 99.6881 3ZM99.6881 40.856C132.248 40.856 158.639 67.3297 158.639 99.9918C158.639 132.654 132.248 159.128 99.6881 159.128C67.1284 159.128 40.7376 132.654 40.7376 99.9918C40.7376 67.3297 67.1284 40.856 99.6881 40.856ZM289.452 258.707C306.872 258.707 321 272.879 321 290.353C321 307.828 306.872 322 289.452 322C272.033 322 257.905 307.828 257.905 290.353C257.905 272.879 272.033 258.707 289.452 258.707Z" stroke="url(#paint0_linear_1_3238)" stroke-opacity="0.2" stroke-width="5" stroke-miterlimit="10"/>
<defs>
<linearGradient id="paint0_linear_1_3238" x1="22.0956" y1="22.1555" x2="321.777" y2="320.898" gradientUnits="userSpaceOnUse">
<stop stop-color="#423181"/>
<stop offset="1" stop-color="#423181" stop-opacity="0"/>
</linearGradient>
</defs>
</svg>
