<svg width="34" height="37" viewBox="0 0 34 37" fill="none" xmlns="http://www.w3.org/2000/svg">
<path d="M4.39816 37C3.3643 37 2.37279 36.5746 1.64174 35.8175C0.910697 35.0603 0.5 34.0333 0.5 32.9626V15.9207C0.5 14.8499 0.910697 13.8229 1.64174 13.0658C2.37279 12.3086 3.3643 11.8832 4.39816 11.8832C5.43201 11.8832 6.42352 12.3086 7.15457 13.0658C7.88562 13.8229 8.29631 14.8499 8.29631 15.9207V32.9653C8.29631 34.0361 7.88562 35.063 7.15457 35.8202C6.42352 36.5774 5.43201 37 4.39816 37ZM30.5817 14.5485H29.7493V8.66416L22.2717 0.91934L21.3867 0H5.99166C5.66006 0.00144306 5.34252 0.138889 5.10854 0.382255C4.87456 0.625621 4.74319 0.955084 4.7432 1.29853V9.30252C5.48214 9.34247 6.20864 9.51604 6.88982 9.81538C7.15547 9.93198 7.41329 10.0669 7.66154 10.2191V3.02536H19.1242V9.23431C19.1256 9.68969 19.3009 10.126 19.6118 10.448C19.9227 10.77 20.3439 10.9515 20.7836 10.953H26.831V14.5512H10.6615C10.7526 15.0007 10.7985 15.4587 10.7985 15.9179V32.9626C10.7993 34.397 10.35 35.7929 9.51844 36.94H30.5817C31.3555 36.9378 32.0969 36.6183 32.6439 36.0513C33.1908 35.4843 33.4986 34.7161 33.5 33.9146V17.5738C33.4972 16.7731 33.1889 16.0059 32.6422 15.4397C32.0955 14.8735 31.3548 14.5514 30.5817 14.5485ZM16.3824 22.8444C16.2181 22.8447 16.0553 22.8116 15.9034 22.7468C15.7515 22.682 15.6133 22.5868 15.4969 22.4668C15.3805 22.3467 15.2881 22.204 15.2249 22.047C15.1617 21.8899 15.129 21.7214 15.1286 21.5513C15.1283 21.3811 15.1603 21.2125 15.2228 21.0552C15.2854 20.8978 15.3773 20.7548 15.4932 20.6342C15.6091 20.5136 15.7469 20.4179 15.8985 20.3524C16.0502 20.287 16.2128 20.2531 16.3771 20.2527H16.3824C16.7142 20.2527 17.0324 20.3893 17.267 20.6323C17.5016 20.8753 17.6334 21.2049 17.6334 21.5486C17.6334 21.8922 17.5016 22.2218 17.267 22.4648C17.0324 22.7078 16.7142 22.8444 16.3824 22.8444ZM16.3824 27.0537C16.0505 27.0544 15.732 26.9186 15.4969 26.6761C15.2618 26.4336 15.1293 26.1043 15.1286 25.7606C15.1279 25.4169 15.2591 25.0871 15.4932 24.8435C15.7273 24.6 16.0453 24.4628 16.3771 24.4621H16.3824C16.7142 24.4621 17.0324 24.5986 17.267 24.8416C17.5016 25.0846 17.6334 25.4142 17.6334 25.7579C17.6334 26.1015 17.5016 26.4311 17.267 26.6741C17.0324 26.9172 16.7142 27.0537 16.3824 27.0537ZM16.3824 31.263C16.2181 31.2634 16.0553 31.2302 15.9034 31.1654C15.7515 31.1006 15.6133 31.0055 15.4969 30.8854C15.3805 30.7653 15.2881 30.6227 15.2249 30.4656C15.1617 30.3085 15.129 30.1401 15.1286 29.9699C15.1283 29.7998 15.1603 29.6312 15.2228 29.4738C15.2854 29.3165 15.3773 29.1734 15.4932 29.0528C15.6091 28.9323 15.7469 28.8365 15.8985 28.7711C16.0502 28.7056 16.2128 28.6717 16.3771 28.6714H16.3824C16.7142 28.6714 17.0324 28.8079 17.267 29.0509C17.5016 29.2939 17.6334 29.6235 17.6334 29.9672C17.6334 30.3109 17.5016 30.6405 17.267 30.8835C17.0324 31.1265 16.7142 31.263 16.3824 31.263ZM21.4394 22.8444H21.4342C21.1023 22.8444 20.7841 22.7078 20.5495 22.4648C20.3149 22.2218 20.1831 21.8922 20.1831 21.5486C20.1831 21.2049 20.3149 20.8753 20.5495 20.6323C20.7841 20.3893 21.1023 20.2527 21.4342 20.2527H21.4421C21.7739 20.2527 22.0921 20.3893 22.3267 20.6323C22.5613 20.8753 22.6932 21.2049 22.6932 21.5486C22.6932 21.8922 22.5613 22.2218 22.3267 22.4648C22.0921 22.7078 21.7712 22.8444 21.4394 22.8444ZM21.4394 27.0537H21.4342C21.1023 27.0537 20.7841 26.9172 20.5495 26.6741C20.3149 26.4311 20.1831 26.1015 20.1831 25.7579C20.1831 25.4142 20.3149 25.0846 20.5495 24.8416C20.7841 24.5986 21.1023 24.4621 21.4342 24.4621H21.4421C21.7739 24.4621 22.0921 24.5986 22.3267 24.8416C22.5613 25.0846 22.6932 25.4142 22.6932 25.7579C22.6932 26.1015 22.5613 26.4311 22.3267 26.6741C22.0921 26.9172 21.7712 27.0537 21.4394 27.0537ZM21.4394 31.263H21.4342C21.1023 31.263 20.7841 31.1265 20.5495 30.8835C20.3149 30.6405 20.1831 30.3109 20.1831 29.9672C20.1831 29.6235 20.3149 29.2939 20.5495 29.0509C20.7841 28.8079 21.1023 28.6714 21.4342 28.6714H21.4421C21.7739 28.6714 22.0921 28.8079 22.3267 29.0509C22.5613 29.2939 22.6932 29.6235 22.6932 29.9672C22.6932 30.3109 22.5613 30.6405 22.3267 30.8835C22.0921 31.1265 21.7712 31.263 21.4394 31.263ZM26.4965 22.8444C26.1647 22.8447 25.8463 22.7085 25.6114 22.4658C25.3766 22.223 25.2444 21.8936 25.2441 21.5499C25.2437 21.2062 25.3752 20.8765 25.6096 20.6332C25.844 20.39 26.162 20.2531 26.4939 20.2527C26.6582 20.2527 26.8235 20.2863 26.9753 20.3514C27.1271 20.4165 27.265 20.512 27.3812 20.6323C27.4973 20.7526 27.5895 20.8955 27.6524 21.0527C27.7152 21.2099 27.7476 21.3784 27.7476 21.5486C27.7476 21.7187 27.7152 21.8872 27.6524 22.0444C27.5895 22.2017 27.4973 22.3445 27.3812 22.4648C27.265 22.5852 27.1271 22.6806 26.9753 22.7457C26.8235 22.8108 26.6608 22.8444 26.4965 22.8444ZM26.4965 27.0537C26.1647 27.054 25.8463 26.9179 25.6114 26.6751C25.3766 26.4324 25.2444 26.1029 25.2441 25.7592C25.2437 25.4156 25.3752 25.0858 25.6096 24.8426C25.844 24.5993 26.162 24.4624 26.4939 24.4621C26.6582 24.4621 26.8235 24.4956 26.9753 24.5607C27.1271 24.6258 27.265 24.7213 27.3812 24.8416C27.4973 24.9619 27.5895 25.1048 27.6524 25.262C27.7152 25.4192 27.7476 25.5877 27.7476 25.7579C27.7476 25.928 27.7152 26.0965 27.6524 26.2538C27.5895 26.411 27.4973 26.5538 27.3812 26.6741C27.265 26.7945 27.1271 26.8899 26.9753 26.955C26.8235 27.0202 26.6608 27.0537 26.4965 27.0537ZM26.4965 31.263C26.1647 31.2634 25.8463 31.1272 25.6114 30.8844C25.3766 30.6417 25.2444 30.3122 25.2441 29.9686C25.2437 29.6249 25.3752 29.2952 25.6096 29.0519C25.844 28.8086 26.162 28.6718 26.4939 28.6714C26.8257 28.6714 27.1465 28.8079 27.3812 29.0509C27.6158 29.2939 27.7476 29.6235 27.7476 29.9672C27.7476 30.3109 27.6158 30.6405 27.3812 30.8835C27.1465 31.1265 26.8283 31.263 26.4965 31.263Z" fill="#ffffff"/>
</svg>
