<svg width="59" height="101" viewBox="0 0 59 101" fill="none" xmlns="http://www.w3.org/2000/svg">
<g clip-path="url(#clip0_1_28714)">
<path d="M9.86433 35.211H10.5312C10.6905 35.636 11.1316 36.4966 12.1135 36.4966C13.3789 36.4966 13.8918 35.0681 13.9128 35.0072C13.9443 34.9148 13.9303 34.8138 13.8725 34.7337C13.8165 34.6535 13.7238 34.6065 13.6257 34.6065H9.86433C9.6963 34.6065 9.56152 34.7406 9.56152 34.9079C9.56152 35.0751 9.6963 35.2092 9.86433 35.2092V35.211ZM13.1374 35.211C12.9431 35.5193 12.6053 35.8939 12.1135 35.8939C11.6216 35.8939 11.3398 35.5141 11.1893 35.211H13.1392H13.1374Z" fill="#F4F4F7"/>
<path d="M22.932 31.8977C24.1887 31.8977 25.2127 30.8804 25.2127 29.6279C25.2127 28.3754 24.1905 27.358 22.932 27.358C21.6735 27.358 20.6514 28.3754 20.6514 29.6279C20.6514 30.8804 21.6735 31.8977 22.932 31.8977ZM22.932 27.9625C23.8562 27.9625 24.6071 28.7098 24.6071 29.6296C24.6071 30.5494 23.8562 31.2967 22.932 31.2967C22.0079 31.2967 21.257 30.5494 21.257 29.6296C21.257 28.7098 22.0079 27.9625 22.932 27.9625Z" fill="#F4F4F7"/>
<path d="M49.7724 34.6971C49.7146 34.6396 49.6394 34.61 49.5641 34.61H49.5606H46.0145C45.9165 34.61 45.8255 34.657 45.7677 34.7372C45.7117 34.8173 45.6959 34.9183 45.7292 35.0106C45.7502 35.0716 46.263 36.5001 47.5285 36.5001C48.5104 36.5001 48.9515 35.6395 49.1108 35.2145H49.4364L49.9002 35.6761C49.9597 35.7353 50.0367 35.7649 50.1137 35.7649C50.1907 35.7649 50.2695 35.7353 50.3273 35.6761C50.3868 35.6169 50.4165 35.5402 50.4165 35.4636C50.4165 35.3869 50.3868 35.3085 50.3273 35.251L49.7742 34.7006L49.7724 34.6971ZM47.525 35.8938C47.0332 35.8938 46.6954 35.5193 46.5011 35.211H48.4509C48.3004 35.5158 48.0133 35.8938 47.5268 35.8938H47.525Z" fill="#F4F4F7"/>
<path d="M36.6127 31.8976C37.8694 31.8976 38.8933 30.8803 38.8933 29.6278C38.8933 28.3753 37.8712 27.358 36.6127 27.358C35.3542 27.358 34.332 28.3753 34.332 29.6278C34.332 30.8803 35.3542 31.8976 36.6127 31.8976ZM36.6127 27.9624C37.5368 27.9624 38.2877 28.7098 38.2877 29.6295C38.2877 30.5493 37.5368 31.2966 36.6127 31.2966C35.6885 31.2966 34.9376 30.5493 34.9376 29.6295C34.9376 28.7098 35.6885 27.9624 36.6127 27.9624Z" fill="#F4F4F7"/>
<path d="M58.8314 42.5397C58.8314 42.3289 58.8296 42.1199 58.8296 41.9143C58.8296 41.9126 58.8296 41.9108 58.8296 41.9091C58.8296 39.256 58.1243 37.1116 56.738 35.5386C56.675 35.4671 56.6085 35.3975 56.5437 35.3278V22.4578C56.5437 22.2906 56.409 22.1565 56.2409 22.1565C55.5111 22.1565 54.916 21.5642 54.916 20.8377C54.916 20.1113 55.5111 19.519 56.2409 19.519C56.409 19.519 56.5437 19.3849 56.5437 19.2177V13.7182C56.5437 13.6154 56.4912 13.5178 56.402 13.4638C56.3145 13.4081 56.2042 13.4011 56.1097 13.4464C55.9976 13.5004 53.4002 14.7581 52.5215 17.6133C52.4725 17.6133 52.427 17.6168 52.3903 17.6203C50.6855 17.7579 49.3517 19.2003 49.3517 20.9039C49.3517 22.2052 50.1691 23.3933 51.4066 23.9228V24.3096C51.4066 28.5583 47.0886 29.0182 45.2315 29.0182C42.2647 29.0182 39.7145 26.9174 39.1632 24.0204C39.1422 23.9089 39.0582 23.8183 38.9479 23.787C38.8376 23.7556 38.7186 23.7887 38.6416 23.8741C37.9835 24.5935 36.5692 25.2241 35.6118 25.2241C34.5791 25.2241 33.4432 24.55 32.7693 23.8323C32.9006 23.787 32.9986 23.7434 33.0178 23.7347C33.0231 23.733 33.0283 23.7295 33.0336 23.7277C33.3049 23.5832 33.5534 23.3985 33.7722 23.1825C34.3638 22.5937 34.6894 21.815 34.6894 20.9893V19.4563C34.6894 19.4563 34.6876 19.4389 34.6859 19.4319V17.5105C34.6859 17.5105 34.6859 17.4983 34.6859 17.4931C34.6859 16.8033 34.4723 16.1291 34.082 15.5612H35.9584C36.2192 16.6325 37.1976 17.413 38.3353 17.413C39.6795 17.413 40.7735 16.3242 40.7735 14.9863C40.7735 13.6485 39.6795 12.5597 38.3353 12.5597C38.3335 12.5597 38.3318 12.5597 38.3283 12.5597H31.9064V11.6034C31.9064 11.241 31.7401 10.917 31.4811 10.701C31.7051 10.4867 31.8451 10.1871 31.8451 9.85438V9.47463C31.8451 9.10706 31.7034 8.79176 31.4741 8.57923C31.7016 8.36497 31.8451 8.06186 31.8451 7.72565V7.34589C31.8451 6.97833 31.7034 6.66302 31.4741 6.4505C31.7016 6.23623 31.8451 5.93312 31.8451 5.59692V5.21716C31.8451 4.84611 31.6999 4.52558 31.4653 4.31306C31.9589 3.86884 32.2705 3.22953 32.2705 2.5153C32.2705 1.17744 31.1765 0.0886841 29.8323 0.0886841C28.488 0.0886841 27.3941 1.17744 27.3941 2.5153C27.3941 3.24346 27.7196 3.89671 28.2325 4.34267C27.9909 4.55868 27.8369 4.8705 27.8369 5.21716V5.59692C27.8369 5.96448 27.9787 6.27978 28.208 6.49231C27.9804 6.70658 27.8369 7.00968 27.8369 7.34589V7.72565C27.8369 8.09321 27.9787 8.40852 28.208 8.62104C27.9804 8.83531 27.8369 9.13842 27.8369 9.47463V9.85438C27.8369 10.1923 27.9559 10.4867 28.1537 10.6975C27.8912 10.9135 27.7232 11.2393 27.7232 11.6034V12.5597H21.2785C19.9343 12.5597 18.8403 13.6485 18.8403 14.9863C18.8403 16.3242 19.9343 17.413 21.2785 17.413C22.411 17.413 23.3841 16.6325 23.6467 15.5612H25.0994V19.1236C25.0994 19.3118 25.1729 19.4894 25.3095 19.6236C25.32 19.634 25.3305 19.641 25.341 19.6497V21.2541C25.341 21.444 25.4145 21.6217 25.551 21.7558C25.6175 21.822 25.6945 21.8742 25.7803 21.9091V23.3863C25.7803 23.5744 25.8538 23.7539 25.9903 23.888C26.1251 24.0221 26.3036 24.097 26.4944 24.097H26.5487C25.8643 24.7102 24.8754 25.2328 23.967 25.2328C23.0113 25.2328 21.5953 24.6022 20.9372 23.8828C20.8602 23.7974 20.7412 23.7643 20.6309 23.7957C20.5206 23.827 20.4366 23.9176 20.4156 24.0291C19.8923 26.7832 17.5591 28.8161 14.7796 29.0095L16.2009 19.6845C16.2236 19.533 16.1291 19.3884 15.9803 19.3483C15.8315 19.3083 15.6758 19.3867 15.6198 19.5295L11.9634 28.7587C10.122 28.3144 8.17395 27.1717 8.17395 24.3183V23.9316C9.41142 23.402 10.2288 22.2139 10.2288 20.9127C10.2288 19.209 8.89332 17.7666 7.19027 17.629C7.15352 17.6255 7.10801 17.6237 7.059 17.622C6.18034 14.7668 3.58463 13.5091 3.47086 13.4551C3.37635 13.4116 3.26608 13.4168 3.17856 13.4725C3.09105 13.5283 3.03679 13.6241 3.03679 13.7269V19.2264C3.03679 19.3936 3.17156 19.5278 3.33959 19.5278C4.06947 19.5278 4.66458 20.12 4.66458 20.8465C4.66458 21.5729 4.06947 22.1652 3.33959 22.1652C3.17156 22.1652 3.03679 22.2993 3.03679 22.4665V35.4584C2.99828 35.5002 2.95977 35.542 2.92302 35.5856C1.55603 37.1673 0.862904 39.3414 0.862904 42.0345C0.862904 42.1112 0.8419 49.5966 7.56484 52.281V56.3852C7.56484 56.3852 7.56309 56.3974 7.56309 56.4043C7.56309 58.2178 7.03624 60.3796 4.52455 60.3796H3.99596C3.85068 60.3796 3.75266 60.3796 3.6809 60.3796V58.2247H5.59924C5.70776 58.2247 5.80928 58.1673 5.86179 58.0714C5.91605 57.9774 5.9143 57.8607 5.85829 57.7683L3.62664 54.0491C3.57238 53.9586 3.47262 53.9028 3.36585 53.9028C3.25908 53.9028 3.16106 53.9586 3.10505 54.0491L0.875156 57.7701C0.819146 57.8624 0.817396 57.9791 0.871655 58.0732C0.925915 58.1673 1.02568 58.2265 1.1342 58.2265H3.07354V73.2565C2.86526 78.8344 5.49772 82.9961 11.3578 86.3495C13.2516 87.433 15.3292 88.1524 17.3403 88.8475C21.4833 90.2794 25.7558 91.7601 28.7926 96.5315C28.243 96.8712 27.8737 97.4739 27.8737 98.1655C27.8737 99.2246 28.7401 100.087 29.8043 100.087C30.8685 100.087 31.7349 99.2246 31.7349 98.1655C31.7349 97.4774 31.369 96.8764 30.8229 96.5367C33.858 91.7723 38.1287 90.2934 42.27 88.8614C44.2811 88.1664 46.3604 87.4469 48.2525 86.3634C54.1371 82.9961 56.5367 79.2055 56.5367 73.2827V58.23H58.4761C58.5846 58.23 58.6861 58.1725 58.7386 58.0767C58.7929 57.9826 58.7911 57.8659 58.7351 57.7736L56.5035 54.0544C56.4492 53.9638 56.3495 53.908 56.2427 53.908C56.1359 53.908 56.0379 53.9638 55.9819 54.0544L53.7502 57.7736C53.6942 57.8659 53.6925 57.9826 53.7467 58.0767C53.801 58.1707 53.9008 58.23 54.0093 58.23H55.9259V60.3848C55.7631 60.3848 55.5023 60.3848 55.0822 60.3848C52.5705 60.3848 52.0437 58.223 52.0437 56.4078V52.3124C53.3179 51.8368 53.8483 51.0285 54.1668 50.3648C54.1913 50.3143 54.2158 50.262 54.2368 50.2115L54.2736 50.3805C54.2998 50.5059 54.3891 50.6575 54.5624 50.7097C54.6709 50.7428 54.8407 50.7411 55.028 50.5599L55.2013 50.4136C56.6628 49.2011 57.2439 47.6107 57.6937 46.0098L57.804 46.224C57.811 46.238 57.818 46.2502 57.8285 46.2624C57.8967 46.3564 58.0175 46.4488 58.1698 46.4488C58.1873 46.4488 58.2065 46.4488 58.224 46.4453C58.3133 46.4313 58.4778 46.3721 58.5619 46.123C58.6511 45.8582 58.7019 45.6405 58.7246 45.4158C58.7509 45.1666 58.7666 44.9123 58.7841 44.6684V44.6388H58.7859C58.8296 43.9403 58.8244 43.2278 58.8209 42.5414L58.8314 42.5397ZM54.5501 57.6237L56.2479 54.793L57.9457 57.6237H54.5501ZM35.6135 25.8251C36.5622 25.8251 37.8504 25.3147 38.6888 24.6475C39.4835 27.5567 42.1544 29.6175 45.2315 29.6175C49.4777 29.6175 52.0122 27.6316 52.0122 24.3061V23.719C52.0122 23.5936 51.9369 23.4786 51.8127 23.4333C50.703 23.0362 49.9573 22.0188 49.9573 20.9005C49.9573 19.5086 51.0478 18.3293 52.4393 18.2178C52.5075 18.2125 52.6668 18.2091 52.7491 18.2091C52.7561 18.2091 52.7631 18.2091 52.7683 18.2073C52.7788 18.2073 52.7893 18.2073 52.7998 18.2038C52.8086 18.2038 52.8191 18.2003 52.8278 18.1969C52.8383 18.1934 52.8471 18.1916 52.8558 18.1882C52.8646 18.1847 52.8733 18.1812 52.8821 18.176C52.8908 18.1707 52.8996 18.1672 52.9083 18.162C52.9153 18.1568 52.9224 18.1516 52.9311 18.1463C52.9399 18.1394 52.9469 18.1342 52.9556 18.1272C52.9626 18.122 52.9679 18.115 52.9731 18.108C52.9801 18.0993 52.9871 18.0923 52.9941 18.0836C52.9994 18.0767 53.0046 18.068 53.0081 18.061C53.0134 18.0523 53.0186 18.0436 53.0221 18.0349C53.0274 18.0244 53.0309 18.0157 53.0344 18.0052C53.0361 17.9983 53.0396 17.993 53.0414 17.9878C53.591 15.941 55.1662 14.725 55.9346 14.239V18.9407C55.014 19.0853 54.3069 19.8814 54.3069 20.8377C54.3069 21.7941 55.014 22.5902 55.9346 22.7348V34.7616C55.3098 34.2425 54.5974 33.8349 53.815 33.5422C54.4486 33.2879 54.8967 32.6747 54.8967 31.957C54.8967 31.0128 54.1213 30.2446 53.1674 30.2446C52.2135 30.2446 51.4381 31.0163 51.4381 31.9674L51.4433 33.0667H38.9199C38.7519 33.0667 38.6171 33.2008 38.6171 33.368V36.1622C38.6171 37.4617 39.6585 38.6358 40.8907 38.7282C40.9292 38.7317 40.9695 38.7334 41.015 38.7334H43.1819C43.3499 38.7334 43.4847 38.5993 43.4847 38.432V38.3658C43.4864 38.3327 43.4882 38.3014 43.4882 38.2857C43.4882 37.791 43.9625 37.3572 44.5034 37.3572C45.0442 37.3572 45.522 37.8119 45.522 38.3711C45.522 38.9302 45.0652 39.3849 44.5034 39.3849H39.5535C39.3855 39.3849 39.2507 39.5191 39.2507 39.6863V40.8046C39.2507 40.9719 39.3855 41.106 39.5535 41.106H40.2029C40.2799 41.5711 40.5809 42.0136 41.0815 42.416C39.802 43.0797 38.8324 43.9281 38.1007 44.806L33.8247 43.0884L33.8125 41.5206C33.8125 40.3378 33.1981 39.5748 32.4087 39.1045V24.3235C33.1666 25.09 34.4006 25.8234 35.6135 25.8234V25.8251ZM39.7775 48.7761C38.8884 48.4085 38.0657 48.1803 37.4916 48.0706C37.3096 48.0357 37.1276 48.0096 36.9438 47.9869C37.7157 45.9505 39.7215 42.6669 44.7467 41.8725C47.3371 41.4631 49.2905 40.4597 50.5472 38.8902C50.9375 38.4042 51.2281 37.9007 51.4451 37.4095V43.0257H49.3745C49.3745 43.0257 49.371 43.0257 49.3675 43.0257C49.3535 43.0257 49.3395 43.0257 49.3255 43.0257H47.2181C43.2221 43.0257 40.8522 44.8548 39.7758 48.7761H39.7775ZM46.6842 43.6406C45.0477 44.4698 43.4514 46.3408 42.9928 50.384C42.9788 50.5042 42.9683 50.6191 42.9578 50.7306V50.7411C42.1737 50.0129 41.2425 49.4468 40.3359 49.0217C41.2828 45.475 43.2571 43.7957 46.6825 43.6406H46.6842ZM12.3869 43.0257H10.2971C10.2831 43.0257 10.2691 43.0257 10.2551 43.0257C10.2533 43.0257 10.2516 43.0257 10.2481 43.0257H8.17045V37.1848C8.88982 38.8989 10.4301 40.7959 13.7032 41.6321C13.7102 41.6338 13.7172 41.6356 13.7242 41.6373C14.0865 41.7297 14.4663 41.8098 14.8706 41.8725C19.873 42.6616 21.8894 45.9105 22.677 47.9817C22.4827 48.0061 22.2902 48.034 22.0977 48.0706C21.7949 48.1281 20.8952 48.3179 19.8188 48.7378C18.7388 44.8409 16.3741 43.024 12.3852 43.024L12.3869 43.0257ZM19.2587 48.9729C18.387 49.3614 17.4541 49.8997 16.6559 50.6296C16.6489 50.5494 16.6402 50.4693 16.6314 50.384C16.1746 46.3425 14.5783 44.4716 12.9435 43.6406C16.3059 43.8061 18.3205 45.5133 19.2587 48.9729ZM20.3123 33.6764C20.3508 34.1031 20.4979 34.8557 21.0685 35.2302C21.1577 35.2895 21.2488 35.333 21.3398 35.3731C21.254 35.7964 21.1682 36.2981 21.0842 36.7841C21.0002 37.2788 20.9109 37.7927 20.8269 38.2056C20.8217 38.2352 20.8199 38.2387 20.7832 38.2613C20.1653 38.6376 19.5054 38.7874 18.8228 38.7073C18.6355 38.6846 18.4448 38.6358 18.2435 38.5836C18.1385 38.5575 18.0334 38.5296 17.9284 38.5069C17.9232 38.5069 17.9162 38.5069 17.9109 38.5052C17.9004 38.5052 17.8899 38.5017 17.8794 38.5017C17.8689 38.5017 17.8602 38.5017 17.8497 38.5017C17.8392 38.5017 17.8304 38.5017 17.8199 38.5035C17.8094 38.5035 17.8006 38.5069 17.7919 38.5087C17.7814 38.5104 17.7726 38.5139 17.7639 38.5174C17.7551 38.5209 17.7464 38.5244 17.7394 38.5278C17.7306 38.5313 17.7201 38.5366 17.7114 38.5418C17.7044 38.547 17.6956 38.5505 17.6886 38.5557C17.6799 38.5609 17.6711 38.5679 17.6641 38.5749C17.6571 38.5819 17.6501 38.5888 17.6431 38.5958C17.6379 38.601 17.6326 38.6045 17.6291 38.6097C17.5574 38.6986 17.4716 38.7822 17.3823 38.8693C17.3333 38.9181 17.2843 38.9651 17.237 39.0139C16.3444 39.9441 15.0702 40.6949 13.8152 41.0329C11.6273 40.451 8.83381 38.9738 8.24571 35.2337C8.2142 35.0369 8.19145 34.8348 8.17395 34.6345C8.17395 34.6292 8.1722 34.624 8.17045 34.6188V33.6694C10.0975 33.6711 18.3975 33.6746 20.3123 33.6746V33.6764ZM10.8974 33.0701L11.5118 31.518L13.0731 33.0719C12.3099 33.0719 11.5713 33.0719 10.8974 33.0719V33.0701ZM21.9104 45.306L26.2074 43.5744C26.3212 43.5292 26.3947 43.4194 26.3964 43.2975L26.4104 41.5241C26.4104 40.5085 26.9618 39.7838 28.0522 39.3692C28.6071 39.1585 29.1724 39.0801 29.5067 39.0504V44.6475L25.9798 48.1594C25.0907 47.9573 24.191 47.8772 23.3019 47.9277C23.0253 47.1665 22.5895 46.2345 21.9104 45.306ZM29.8008 36.8573C29.9688 36.8573 30.1036 36.7231 30.1036 36.5559V24.0518C30.7162 23.9141 31.1748 23.3689 31.1748 22.7191C31.1748 22.2888 30.9752 21.9056 30.6637 21.6548C30.9752 21.4039 31.1765 21.0207 31.1765 20.5904C31.1765 20.1601 30.977 19.7751 30.6654 19.5225C30.8299 19.3901 30.9612 19.2212 31.0505 19.0278C31.0872 19.0609 31.124 19.0957 31.1625 19.1271C31.3585 19.2891 31.5738 19.4285 31.8031 19.5487V38.8101C31.1047 38.5331 30.3591 38.4303 29.8095 38.4303C29.2599 38.4303 28.5143 38.5331 27.8159 38.8101V24.0849H29.4997V36.5541C29.4997 36.7214 29.6345 36.8555 29.8025 36.8555L29.8008 36.8573ZM29.3719 16.5751C29.3894 16.8242 29.3667 17.0646 29.3089 17.2858C29.2232 17.6115 29.0569 17.8972 28.8206 18.1063C28.5896 18.3136 28.285 18.4477 27.9209 18.4756C27.8737 18.4791 27.8247 18.4808 27.7757 18.4808C27.6601 18.4808 27.5394 18.4704 27.4151 18.4495L28.2745 14.6815H31.264C31.355 14.6815 31.4373 14.685 31.5143 14.6919C31.5948 14.6989 31.6788 14.7111 31.7664 14.7268C32.4262 14.8383 33.0091 15.1884 33.4239 15.6814C33.8352 16.1709 34.0838 16.8033 34.0838 17.4861V19.425H33.8912C32.9198 19.425 32.1357 19.148 31.5511 18.6637C30.928 18.1498 30.5201 17.3973 30.3434 16.4932C30.3189 16.3695 30.2103 16.2841 30.0878 16.2841H29.6345C29.491 16.2841 29.3737 16.3991 29.3737 16.5437C29.3737 16.5541 29.3737 16.5646 29.3754 16.5751H29.3719ZM27.1035 17.0889H25.705V15.5542H27.4536L27.1035 17.0889ZM29.8078 45.198L32.9356 48.3371C32.4752 48.4747 32.0202 48.6454 31.5703 48.851C31.1923 49.0234 30.6077 49.3405 30.4414 49.4468C30.3661 49.4955 30.2436 49.5687 30.1123 49.6453C30.0003 49.7115 29.89 49.7795 29.7938 49.8387C29.6975 49.7795 29.5855 49.7115 29.4735 49.6453C29.3439 49.567 29.2197 49.4938 29.1462 49.4468C28.9799 49.3388 28.3953 49.0217 28.0172 48.851C27.5691 48.6472 27.114 48.4765 26.6555 48.3388L29.806 45.1997L29.8078 45.198ZM30.1106 44.6475V39.0504C30.4449 39.0783 31.0085 39.1567 31.5651 39.3692C32.6538 39.7838 33.2069 40.5103 33.2069 41.5276L33.2209 43.2992C33.2209 43.4212 33.2961 43.5309 33.4099 43.5762L37.7139 45.3043C37.0278 46.2415 36.592 47.1769 36.3207 47.9312C35.421 47.879 34.5108 47.9573 33.6094 48.1612L30.1106 44.6493V44.6475ZM51.4381 35.0682C51.2526 37.0158 50.1236 40.4127 44.6521 41.2767C43.5319 41.4544 42.5553 41.7488 41.6994 42.1234C41.2513 41.822 40.7647 41.3656 40.791 40.8186C40.7945 40.7367 40.7647 40.6566 40.7069 40.5956C40.6492 40.5364 40.5704 40.5015 40.4882 40.5015H39.858V39.9859H44.5051C45.3995 39.9859 46.1294 39.2612 46.1294 38.3693C46.1294 37.4774 45.4013 36.7527 44.5051 36.7527C43.6825 36.7527 42.9788 37.3677 42.8931 38.1289H41.0238C40.9957 38.1289 40.9677 38.1289 40.9397 38.1254C40.0103 38.0558 39.2262 37.1569 39.2262 36.1605V33.6676H51.4468V35.0194C51.4433 35.0351 51.4398 35.0491 51.4381 35.0647V35.0682ZM34.0838 20.0277V20.9858C34.0838 21.6513 33.8212 22.2784 33.3451 22.7522C33.1701 22.9264 32.9723 23.0727 32.7553 23.1895C32.694 23.2173 32.5452 23.2766 32.4087 23.3079V19.803C32.8621 19.9511 33.3609 20.0277 33.8895 20.0277H34.082C34.082 20.0277 34.082 20.0277 34.0838 20.0277ZM27.9997 2.51008C27.9997 1.50494 28.8223 0.686193 29.8323 0.686193C30.8422 0.686193 31.6648 1.50494 31.6648 2.51008C31.6648 3.51522 30.8422 4.33396 29.8323 4.33396C28.8223 4.33396 27.9997 3.51522 27.9997 2.51008ZM29.0184 6.7658H30.7512C31.089 6.7658 31.2395 7.05324 31.2395 7.33892V7.71868C31.2395 8.03399 30.9805 8.2918 30.6637 8.2918H28.9309C28.5931 8.2918 28.4425 8.00437 28.4425 7.71868V7.33892C28.4425 7.02362 28.7016 6.7658 29.0184 6.7658ZM28.4425 5.58995V5.21019C28.4425 4.98024 28.5791 4.7834 28.7751 4.69281C29.0954 4.84785 29.4525 4.93669 29.8323 4.93669C30.2121 4.93669 30.6007 4.84088 30.9315 4.67365C31.1415 4.75727 31.2395 4.98373 31.2395 5.21193V5.59169C31.2395 5.90699 30.9805 6.16481 30.6637 6.16481H28.9309C28.5931 6.16481 28.4425 5.87738 28.4425 5.59169V5.58995ZM29.0184 8.89454H30.7512C31.089 8.89454 31.2395 9.18197 31.2395 9.46766V9.84742C31.2395 10.1627 30.9805 10.4205 30.6637 10.4205H28.9309C28.5931 10.4205 28.4425 10.1331 28.4425 9.84742V9.46766C28.4425 9.15236 28.7016 8.89454 29.0184 8.89454ZM28.9046 11.0233H30.7249C31.0417 11.0233 31.3008 11.2811 31.3008 11.5964V12.5528H28.3288V11.5964C28.3288 11.2811 28.5878 11.0233 28.9046 11.0233ZM23.4261 14.9515C23.3124 14.941 23.2074 14.9933 23.1478 15.0822C23.1478 15.0822 23.1478 15.0822 23.1461 15.0839C23.1373 15.0978 23.1286 15.1118 23.1216 15.1274C23.1216 15.1309 23.1181 15.1344 23.1163 15.1379C23.1111 15.1501 23.1076 15.164 23.1041 15.178C23.1023 15.1849 23.1006 15.1919 23.0988 15.1989C23.0988 15.2024 23.0971 15.2076 23.0953 15.2111C22.9798 16.1186 22.1974 16.8015 21.2768 16.8015C20.2668 16.8015 19.4442 15.9828 19.4442 14.9776C19.4442 13.9725 20.2668 13.1537 21.2768 13.1537H38.3423C39.3487 13.159 40.1643 13.9742 40.1643 14.9776C40.1643 15.981 39.3417 16.8015 38.3318 16.8015C37.4059 16.8015 36.6217 16.1186 36.5045 15.2128C36.5045 15.2093 36.5027 15.2058 36.5009 15.2006C36.5009 15.1902 36.4975 15.1814 36.4939 15.171C36.4905 15.1605 36.4887 15.1518 36.4852 15.1414C36.4817 15.1327 36.4782 15.1257 36.4747 15.117C36.4694 15.1065 36.4642 15.0978 36.4589 15.0874C36.4554 15.0804 36.4502 15.0752 36.4449 15.0682C36.4379 15.0578 36.4309 15.0491 36.4222 15.0403C36.4169 15.0351 36.4117 15.0316 36.4064 15.0264C36.3977 15.0177 36.3872 15.0107 36.3767 15.002C36.3714 14.9985 36.3644 14.9951 36.3592 14.9916C36.3487 14.9846 36.3382 14.9794 36.3277 14.9741C36.3207 14.9707 36.3137 14.9689 36.3067 14.9654C36.2962 14.962 36.2839 14.9585 36.2734 14.955C36.2647 14.9532 36.2577 14.9515 36.2489 14.9498C36.2384 14.9498 36.2262 14.9463 36.2156 14.9463C36.2122 14.9463 36.2086 14.9463 36.2051 14.9463H33.5464C33.0721 14.5195 32.4892 14.2321 31.8626 14.1275C31.7559 14.1101 31.6578 14.0962 31.5668 14.0875C31.4636 14.0788 31.362 14.0735 31.2605 14.0735H28.271C27.9874 14.0735 27.7424 14.2686 27.6811 14.5421L27.5901 14.9445H23.4244L23.4261 14.9515ZM25.7383 19.1898C25.726 19.1776 25.7068 19.1515 25.7068 19.1149V17.6917H26.967L26.8252 18.3153C26.7885 18.4773 26.82 18.6463 26.9128 18.7857C27.0055 18.9233 27.1525 19.0173 27.3153 19.0435C27.4729 19.0696 27.6269 19.0818 27.7757 19.0818C27.8404 19.0818 27.9069 19.0801 27.9699 19.0748C28.4478 19.0383 28.8836 18.8588 29.2249 18.554C29.5435 18.27 29.7763 17.885 29.8935 17.4391C29.9058 17.3903 29.918 17.3415 29.9285 17.2928C30.0826 17.7439 30.2979 18.1481 30.5639 18.5C30.5429 18.9006 30.2138 19.2212 29.8095 19.2212C29.8043 19.2212 29.8008 19.2212 29.7955 19.2212H25.8136C25.7786 19.2212 25.7523 19.2037 25.7383 19.1898ZM25.9781 21.3203C25.9658 21.3081 25.9466 21.2837 25.9466 21.2454V19.8239H29.7955C29.7955 19.8239 29.8043 19.8239 29.8095 19.8239C30.2278 19.8239 30.5692 20.1671 30.5692 20.5886C30.5692 21.0102 30.2278 21.3482 29.8095 21.3482C29.8043 21.3482 29.8008 21.3482 29.7955 21.3482H26.0551C26.0271 21.3482 25.9991 21.336 25.9798 21.3168L25.9781 21.3203ZM26.4909 23.4839C26.4559 23.4839 26.4297 23.4664 26.4157 23.4525C26.4017 23.4386 26.3842 23.4142 26.3842 23.3776V21.9561H29.7938C29.7938 21.9561 29.8025 21.9579 29.8078 21.9579C29.8113 21.9579 29.8165 21.9579 29.82 21.9579C30.2331 21.9648 30.5692 22.3045 30.5692 22.7209C30.5692 23.1372 30.2243 23.4856 29.8025 23.4856H26.4927L26.4909 23.4839ZM20.8882 24.6475C21.7266 25.3147 23.0148 25.8251 23.9635 25.8251C25.1992 25.8251 26.4542 25.0656 27.2086 24.2834V39.1062C26.4192 39.5765 25.8048 40.3378 25.8048 41.5206L25.7926 43.0902L21.5236 44.8095C20.2196 43.2452 18.17 41.7819 14.9651 41.2767C14.9616 41.2767 14.9581 41.2767 14.9546 41.2767C15.9716 40.8465 16.9395 40.195 17.6729 39.4319C17.7166 39.3867 17.7604 39.3431 17.8059 39.2978C17.8584 39.2456 17.9127 39.1916 17.9652 39.1358C18.0072 39.1463 18.0492 39.1567 18.0912 39.1672C18.303 39.2212 18.5218 39.2769 18.7493 39.3048C18.8946 39.3222 19.0381 39.3309 19.1799 39.3309C19.8468 39.3309 20.4891 39.1463 21.0912 38.7787C21.2733 38.6724 21.38 38.5226 21.4185 38.3223C21.5043 37.9025 21.5936 37.3851 21.6793 36.8851C21.7703 36.3521 21.8649 35.7999 21.9576 35.3644C21.9576 35.3591 21.9611 35.3469 21.9611 35.3417C21.9664 35.3086 21.9716 35.2773 21.9751 35.2564C22.0031 35.1205 21.9349 34.9829 21.8106 34.9236C21.7546 34.8975 21.7003 34.8731 21.6461 34.8505C21.5551 34.8104 21.4675 34.7738 21.401 34.7303C20.9687 34.4446 20.8952 33.6642 20.9039 33.3872C20.9074 33.3053 20.8759 33.2269 20.8182 33.1677C20.7604 33.1085 20.6834 33.0754 20.6011 33.0754C20.0165 33.0754 17.0743 33.0754 14.1548 33.0736L14.6816 29.6105C17.6134 29.4659 20.1198 27.4522 20.8864 24.6493L20.8882 24.6475ZM15.1979 22.2192L14.7796 24.9681L14.2983 24.489L15.1979 22.2174V22.2192ZM14.0567 25.1022L14.6676 25.7101L14.1933 28.8196L13.0398 27.6716L14.0567 25.1039V25.1022ZM12.7965 28.2796L14.0795 29.5565L13.5947 32.7374L11.7551 30.9066L12.7965 28.2796ZM3.64065 22.7348C4.56131 22.5902 5.26843 21.7941 5.26843 20.8377C5.26843 19.8814 4.56131 19.0853 3.64065 18.9407V14.239C4.40903 14.7268 5.98431 15.941 6.53391 17.9878C6.53391 17.9948 6.53916 18 6.54091 18.0052C6.54441 18.0157 6.54791 18.0261 6.55316 18.0349C6.55666 18.0436 6.56191 18.0523 6.56716 18.061C6.57241 18.0697 6.57766 18.0767 6.58291 18.0854C6.58992 18.0941 6.59517 18.1011 6.60217 18.1098C6.60742 18.1167 6.61442 18.1237 6.61967 18.1289C6.62667 18.1359 6.63542 18.1429 6.64418 18.1481C6.65118 18.1533 6.65818 18.1585 6.66693 18.1638C6.67568 18.169 6.68443 18.1742 6.69318 18.1777C6.70194 18.1812 6.70894 18.1864 6.71769 18.1899C6.72819 18.1934 6.73694 18.1969 6.74744 18.1986C6.7562 18.2003 6.76495 18.2038 6.7737 18.2056C6.7842 18.2073 6.79645 18.2091 6.80695 18.2091C6.81396 18.2091 6.81921 18.2108 6.82621 18.2108C6.91022 18.2108 7.06775 18.2143 7.13601 18.2195C8.52751 18.3327 9.61795 19.5103 9.61795 20.9022C9.61795 22.0206 8.87232 23.0379 7.76262 23.4351C7.63835 23.4786 7.56309 23.5953 7.56309 23.7208V24.3096C7.56309 26.8808 9.08061 28.6507 11.7323 29.3196L10.2463 33.0719C9.3344 33.0719 8.59577 33.0719 8.17045 33.0719V30.5494C8.17045 30.3822 8.03567 30.2481 7.86764 30.2481H5.16691C5.04614 30.2481 4.93587 30.3195 4.88862 30.431C4.84136 30.5425 4.86411 30.6696 4.94813 30.7567L7.24803 33.1607C5.86004 33.4098 4.63482 33.9847 3.64065 34.8522V22.7365V22.7348ZM7.56484 30.8473V32.6155L5.87404 30.8473H7.56484ZM1.46851 42.038C1.46851 37.3764 3.73866 34.2948 7.56484 33.7147V45.968C6.63542 44.7538 5.69726 42.9682 5.59049 40.6287C5.58349 40.4632 5.44346 40.3343 5.27368 40.3413C5.1074 40.3482 4.97788 40.4893 4.98488 40.6566C5.11616 43.557 6.44639 45.6544 7.56484 46.9208V49.1315C4.36002 47.0236 3.72466 43.5065 3.63539 41.5572C3.62839 41.3917 3.48837 41.2611 3.31859 41.2698C3.15231 41.2767 3.02279 41.4178 3.02979 41.5851C3.12605 43.7173 3.84543 47.6194 7.56484 49.8439V51.6295C1.45801 49.0234 1.46851 42.1129 1.46851 42.038ZM1.6698 57.6237L3.3676 54.793L5.0654 57.6237H1.6698ZM31.131 98.162C31.131 98.8884 30.5359 99.4807 29.806 99.4807C29.0761 99.4807 28.481 98.8884 28.481 98.162C28.481 97.4356 29.0761 96.8433 29.806 96.8433C30.5359 96.8433 31.131 97.4356 31.131 98.162ZM55.091 60.9823C55.5128 60.9823 55.7736 60.9823 55.9346 60.9823V73.2774C55.9346 78.9546 53.6225 82.5919 47.9532 85.8373C46.1101 86.893 44.057 87.602 42.0739 88.2883C37.8049 89.7638 33.4029 91.2915 30.2611 96.2981C30.1158 96.2632 29.9653 96.2423 29.8078 96.2423C29.6502 96.2423 29.505 96.2615 29.3632 96.2963C26.2196 91.2828 21.8159 89.7551 17.5434 88.2779C15.5585 87.5915 13.5071 86.8825 11.6641 85.8269C6.01932 82.5972 3.48312 78.6097 3.68265 73.2687V60.9841C3.75442 60.9841 3.85068 60.9841 3.99771 60.9841H4.5263C5.88454 60.9841 8.16169 60.3918 8.17045 56.4287C8.17045 56.4218 8.1722 56.4131 8.1722 56.4061V43.6284H10.2498C10.2498 43.6284 10.2533 43.6284 10.2568 43.6284C14.6098 43.6284 15.744 47.9033 16.0311 50.4519C16.0433 50.5669 16.0556 50.6784 16.0643 50.7846L16.0766 50.9135C16.0888 51.0424 16.1046 51.2672 16.1046 51.2672C16.5159 51.356 16.4914 51.3612 16.7172 51.4152C18.6285 49.384 21.8456 48.729 22.2097 48.6611C24.037 48.3179 25.9588 48.5705 27.7669 49.3962C28.1257 49.56 28.6841 49.8648 28.8171 49.9502C28.8959 50.0007 29.0254 50.0791 29.1637 50.161C29.2774 50.2289 29.3999 50.3021 29.4962 50.3613L30.1018 50.3561C30.1963 50.2969 30.3154 50.2272 30.4256 50.161C30.5639 50.0791 30.6934 50.0007 30.7722 49.9502C30.9052 49.8648 31.4636 49.56 31.8224 49.3962C32.393 49.1349 32.9758 48.9329 33.5622 48.7865C33.5727 48.7865 33.5832 48.7813 33.5937 48.7796C34.8557 48.4712 36.1386 48.4277 37.3779 48.6611C38.5803 48.8876 41.274 49.7795 42.9018 51.5354C42.9018 51.5703 43.5267 51.1644 43.5267 51.1644C43.5319 51.0825 43.5389 51.0024 43.5477 50.91L43.5599 50.7829C43.5704 50.6749 43.581 50.5651 43.5932 50.4502C43.882 47.9016 45.0145 43.6267 49.3675 43.6267C49.3692 43.6267 49.371 43.6267 49.3745 43.6267H51.4451V51.8751C51.4451 51.8751 51.4433 52.5144 51.4451 52.5144V56.4148C51.4503 60.3883 53.7292 60.9823 55.0892 60.9823H55.091ZM52.0472 31.9674C52.0472 31.3508 52.5513 30.8491 53.1709 30.8491C53.7905 30.8491 54.2946 31.3473 54.2946 31.9587C54.2946 32.5702 53.7905 33.0667 53.1709 33.0667H52.0542L52.0489 31.9674H52.0472ZM58.1925 44.597L58.1908 44.6266C58.175 44.8653 58.1575 45.1126 58.133 45.353C58.1278 45.3948 58.1225 45.4384 58.1155 45.4819L57.888 45.036C57.888 45.036 57.8845 45.0325 57.8845 45.029C57.8792 45.0186 57.8722 45.0099 57.867 45.0012C57.8617 44.9942 57.8565 44.9855 57.8512 44.9785C57.8442 44.9715 57.8372 44.9646 57.8302 44.9576C57.8232 44.9506 57.8162 44.9437 57.8092 44.9384C57.8022 44.9315 57.7935 44.928 57.7847 44.921C57.776 44.9158 57.769 44.9106 57.7602 44.9053C57.7515 44.9001 57.7427 44.8984 57.734 44.8931C57.7234 44.8897 57.7147 44.8844 57.7042 44.8827C57.7007 44.8827 57.6989 44.881 57.6954 44.8792C57.6884 44.8775 57.6814 44.8775 57.6762 44.8757C57.6657 44.874 57.6569 44.8722 57.6464 44.8705C57.6359 44.8688 57.6254 44.8705 57.6167 44.8705C57.6079 44.8705 57.5974 44.8705 57.5887 44.8705C57.5782 44.8705 57.5677 44.874 57.5589 44.8757C57.5502 44.8775 57.5414 44.8792 57.5309 44.8827C57.5204 44.8862 57.5117 44.8897 57.5012 44.8949C57.4959 44.8966 57.4889 44.8984 57.4837 44.9019C57.4819 44.9019 57.4784 44.9053 57.4767 44.9071C57.4679 44.9123 57.4592 44.9175 57.4504 44.9228C57.4417 44.928 57.4346 44.9332 57.4259 44.9402C57.4189 44.9454 57.4119 44.9524 57.4066 44.9593C57.3996 44.9663 57.3926 44.9733 57.3856 44.982C57.3804 44.989 57.3751 44.9977 57.3699 45.0046C57.3646 45.0133 57.3576 45.0221 57.3541 45.0308C57.3506 45.0377 57.3471 45.0464 57.3436 45.0552C57.3401 45.0656 57.3349 45.0761 57.3314 45.0865C57.3314 45.0882 57.3296 45.0917 57.3279 45.0935C56.857 46.8512 56.3687 48.6681 54.8232 49.9485L54.8127 49.9572L54.6237 49.0949C54.5956 48.966 54.4854 48.8702 54.3541 48.8597C54.2228 48.8492 54.0986 48.9242 54.0478 49.0461C54.0058 49.1489 53.9638 49.2638 53.92 49.3858C53.8413 49.6035 53.752 49.8509 53.633 50.0983C53.3669 50.6505 52.9696 51.255 52.0542 51.6556V33.7094C53.8658 33.9917 58.224 35.3557 58.224 41.9091C58.224 41.9126 58.224 41.9143 58.224 41.9178C58.224 42.1216 58.224 42.3289 58.2258 42.538C58.2293 43.2156 58.2345 43.9159 58.1925 44.5935V44.597Z" fill="#F4F4F7"/>
<path d="M8.33496 62.2521H9.25037V67.4381H8.33496V62.2521Z" fill="#F4F4F7"/>
<path d="M10.2773 63.5256H11.1788V64.1266C11.4325 63.7642 11.7966 63.4454 12.4075 63.4454C13.2931 63.4454 13.8077 64.0377 13.8077 64.9418V67.4381H12.9063V65.2153C12.9063 64.6074 12.6018 64.2589 12.0644 64.2589C11.5271 64.2589 11.1788 64.6213 11.1788 65.2292V67.4364H10.2773V63.5256Z" fill="#F4F4F7"/>
<path d="M14.8182 66.3563V64.2972H14.3193V63.5273H14.8182V62.4525H15.7196V63.5273H16.7768V64.2972H15.7196V66.2152C15.7196 66.5636 15.8981 66.7047 16.2027 66.7047C16.404 66.7047 16.5825 66.6611 16.761 66.5706V67.3039C16.537 67.4294 16.2919 67.5043 15.9489 67.5043C15.2855 67.5043 14.8182 67.2151 14.8182 66.3563Z" fill="#F4F4F7"/>
<path d="M17.1045 65.4958V65.4818C17.1045 64.3634 17.9009 63.4437 19.0246 63.4437C20.2743 63.4437 20.9079 64.4209 20.9079 65.548C20.9079 65.6299 20.9009 65.7118 20.8939 65.8006H18.0059C18.1022 66.4382 18.5572 66.7935 19.1366 66.7935C19.5759 66.7935 19.8875 66.6298 20.2008 66.3267L20.7294 66.7935C20.3566 67.2378 19.8437 67.5269 19.1208 67.5269C17.9814 67.5269 17.1045 66.7047 17.1045 65.4975V65.4958ZM20.0153 65.2083C19.9557 64.63 19.6127 64.1788 19.0176 64.1788C18.4662 64.1788 18.0794 64.6004 17.9971 65.2083H20.0135H20.0153Z" fill="#F4F4F7"/>
<path d="M21.5547 63.5255H22.4561V64.407C22.7011 63.8217 23.1562 63.421 23.8476 63.4506V64.3983H23.7951C23.0057 64.3983 22.4561 64.9087 22.4561 65.9469V67.4364H21.5547V63.5255Z" fill="#F4F4F7"/>
<path d="M24.3701 63.5256H25.2715V64.1266C25.5253 63.7642 25.8894 63.4454 26.5002 63.4454C27.3859 63.4454 27.9005 64.0377 27.9005 64.9418V67.4381H26.9991V65.2153C26.9991 64.6074 26.6945 64.2589 26.1572 64.2589C25.6198 64.2589 25.2715 64.6213 25.2715 65.2292V67.4364H24.3701V63.5256Z" fill="#F4F4F7"/>
<path d="M28.4639 66.311V66.2971C28.4639 65.4522 29.1255 65.0376 30.0864 65.0376C30.5257 65.0376 30.839 65.1038 31.1436 65.2014V65.1056C31.1436 64.5499 30.8005 64.2537 30.1687 64.2537C29.7293 64.2537 29.402 64.3495 29.045 64.4976L28.8069 63.7938C29.2393 63.6005 29.6628 63.475 30.2877 63.475C30.8758 63.475 31.3151 63.6301 31.5899 63.9123C31.8805 64.1945 32.0135 64.6091 32.0135 65.1195V67.4381H31.1348V66.9486C30.867 67.2674 30.4575 67.5182 29.8554 67.5182C29.1185 67.5182 28.4639 67.0967 28.4639 66.311ZM31.1576 66.0306V65.764C30.9266 65.6752 30.622 65.609 30.2649 65.609C29.6838 65.609 29.3425 65.8529 29.3425 66.2605V66.2744C29.3425 66.6525 29.6768 66.8667 30.1092 66.8667C30.7043 66.8667 31.1593 66.5253 31.1593 66.0288L31.1576 66.0306Z" fill="#F4F4F7"/>
<path d="M32.9813 66.3563V64.2972H32.4824V63.5273H32.9813V62.4525H33.8827V63.5273H34.9399V64.2972H33.8827V66.2152C33.8827 66.5636 34.0612 66.7047 34.3658 66.7047C34.567 66.7047 34.7456 66.6611 34.9241 66.5706V67.3039C34.7001 67.4294 34.455 67.5043 34.112 67.5043C33.4486 67.5043 32.9813 67.2151 32.9813 66.3563Z" fill="#F4F4F7"/>
<path d="M35.6084 62.0745H36.5763V62.9263H35.6084V62.0745ZM35.6452 63.5256H36.5466V67.4364H35.6452V63.5256Z" fill="#F4F4F7"/>
<path d="M37.2471 65.5045V65.4906C37.2471 64.3722 38.1397 63.4454 39.3457 63.4454C40.5517 63.4454 41.4373 64.3565 41.4373 65.4749V65.4888C41.4373 66.6002 40.5447 67.527 39.3317 67.527C38.1187 67.527 37.2471 66.6159 37.2471 65.5045ZM40.5359 65.5045V65.4906C40.5359 64.8007 40.0371 64.2311 39.3299 64.2311C38.6228 64.2311 38.1467 64.7937 38.1467 65.4749V65.4888C38.1467 66.1699 38.6456 66.7413 39.3457 66.7413C40.0458 66.7413 40.5359 66.1786 40.5359 65.5045Z" fill="#F4F4F7"/>
<path d="M42.0918 63.5256H42.9932V64.1266C43.247 63.7642 43.6111 63.4454 44.2219 63.4454C45.1076 63.4454 45.6222 64.0377 45.6222 64.9418V67.4381H44.7208V65.2153C44.7208 64.6074 44.4162 64.2589 43.8789 64.2589C43.3415 64.2589 42.9932 64.6213 42.9932 65.2292V67.4364H42.0918V63.5256Z" fill="#F4F4F7"/>
<path d="M46.1855 66.311V66.2971C46.1855 65.4522 46.8489 65.0376 47.8081 65.0376C48.2474 65.0376 48.559 65.1038 48.8653 65.2014V65.1056C48.8653 64.5499 48.5222 64.2537 47.8904 64.2537C47.451 64.2537 47.1237 64.3495 46.7667 64.4976L46.5286 63.7938C46.9609 63.6005 47.3845 63.475 48.0094 63.475C48.5975 63.475 49.0368 63.6301 49.3116 63.9123C49.6022 64.1945 49.7352 64.6091 49.7352 65.1195V67.4381H48.8565V66.9486C48.5887 67.2674 48.1792 67.5182 47.577 67.5182C46.8402 67.5182 46.1855 67.0967 46.1855 66.311ZM48.881 66.0306V65.764C48.65 65.6752 48.3454 65.609 47.9884 65.609C47.4073 65.609 47.066 65.8529 47.066 66.2605V66.2744C47.066 66.6525 47.4003 66.8667 47.8326 66.8667C48.4277 66.8667 48.8828 66.5253 48.8828 66.0288L48.881 66.0306Z" fill="#F4F4F7"/>
<path d="M50.6074 62.0292H51.5088V67.4364H50.6074V62.0292Z" fill="#F4F4F7"/>
<path d="M9.2002 68.9554H11.2551C12.475 68.9554 13.2347 69.6453 13.2347 70.6887V70.7027C13.2347 71.8663 12.2965 72.4725 11.15 72.4725H10.1156V74.1396H9.2002V68.9537V68.9554ZM11.1798 71.652C11.8729 71.652 12.3035 71.2671 12.3035 70.7253V70.7114C12.3035 70.1034 11.8642 69.7846 11.1798 69.7846H10.1156V71.652H11.1798Z" fill="#F4F4F7"/>
<path d="M13.8066 70.2288H14.708V71.1102C14.9531 70.5249 15.4082 70.1243 16.0995 70.1539V71.1015H16.047C15.2576 71.1015 14.708 71.6119 14.708 72.6502V74.1396H13.8066V70.2288Z" fill="#F4F4F7"/>
<path d="M16.2705 72.206V72.192C16.2705 71.0737 17.1632 70.1469 18.3691 70.1469C19.5751 70.1469 20.4607 71.058 20.4607 72.1764V72.1903C20.4607 73.3017 19.5681 74.2284 18.3551 74.2284C17.1422 74.2284 16.2705 73.3174 16.2705 72.206ZM19.5593 72.206V72.192C19.5593 71.5022 19.0605 70.9326 18.3534 70.9326C17.6463 70.9326 17.1702 71.4952 17.1702 72.1764V72.1903C17.1702 72.8714 17.669 73.4428 18.3691 73.4428C19.0693 73.4428 19.5593 72.8801 19.5593 72.206Z" fill="#F4F4F7"/>
<path d="M21.3172 70.9988H20.8184V70.2515H21.3172V69.9623C21.3172 69.532 21.4292 69.2062 21.6375 68.9989C21.8458 68.7917 22.1363 68.6871 22.5232 68.6871C22.8365 68.6871 23.0518 68.7324 23.253 68.7917V69.5477C23.0745 69.4885 22.9187 69.4519 22.7244 69.4519C22.3814 69.4519 22.2029 69.6365 22.2029 70.0442V70.2584H23.2443V70.9988H22.2169V74.1396H21.3154V70.9988H21.3172Z" fill="#F4F4F7"/>
<path d="M23.3652 72.199V72.1851C23.3652 71.0667 24.1616 70.1469 25.2853 70.1469C26.535 70.1469 27.1687 71.1242 27.1687 72.2513C27.1687 72.3331 27.1617 72.415 27.1547 72.5038H24.2666C24.3629 73.1414 24.818 73.4968 25.3973 73.4968C25.8367 73.4968 26.1482 73.333 26.4615 73.0299L26.9901 73.4968C26.6173 73.941 26.1045 74.2302 25.3816 74.2302C24.2421 74.2302 23.3652 73.4079 23.3652 72.2007V72.199ZM26.2743 71.9098C26.2147 71.3315 25.8717 70.8803 25.2766 70.8803C24.7252 70.8803 24.3384 71.3019 24.2561 71.9098H26.2725H26.2743Z" fill="#F4F4F7"/>
<path d="M27.4959 73.6292L27.8985 73.0212C28.3308 73.34 28.7841 73.502 29.1867 73.502C29.5893 73.502 29.7975 73.3383 29.7975 73.0805V73.0665C29.7975 72.7634 29.381 72.6589 28.9189 72.5178C28.3378 72.354 27.6902 72.1171 27.6902 71.3698V71.3559C27.6902 70.6155 28.308 70.1626 29.0887 70.1626C29.5805 70.1626 30.1161 70.3333 30.5327 70.6068L30.1756 71.2444C29.7958 71.0144 29.3932 70.8733 29.0659 70.8733C28.7159 70.8733 28.5146 71.0371 28.5146 71.2583V71.2723C28.5146 71.5614 28.9381 71.6799 29.4002 71.828C29.9726 72.0056 30.6202 72.2652 30.6202 72.969V72.9829C30.6202 73.8051 29.9796 74.2128 29.1622 74.2128C28.6038 74.2128 27.986 74.0124 27.4941 73.6275L27.4959 73.6292Z" fill="#F4F4F7"/>
<path d="M30.8894 73.6292L31.292 73.0212C31.7243 73.34 32.1777 73.502 32.5802 73.502C32.9828 73.502 33.1911 73.3383 33.1911 73.0805V73.0665C33.1911 72.7634 32.7745 72.6589 32.3124 72.5178C31.7313 72.354 31.0837 72.1171 31.0837 71.3698V71.3559C31.0837 70.6155 31.7016 70.1626 32.4822 70.1626C32.9741 70.1626 33.5097 70.3333 33.9262 70.6068L33.5692 71.2444C33.1894 71.0144 32.7868 70.8733 32.4595 70.8733C32.1094 70.8733 31.9081 71.0371 31.9081 71.2583V71.2723C31.9081 71.5614 32.3317 71.6799 32.7938 71.828C33.3661 72.0056 34.0137 72.2652 34.0137 72.969V72.9829C34.0137 73.8051 33.3731 74.2128 32.5557 74.2128C31.9974 74.2128 31.3795 74.0124 30.8877 73.6275L30.8894 73.6292Z" fill="#F4F4F7"/>
<path d="M34.6934 68.7777H35.6613V69.6296H34.6934V68.7777ZM34.7301 70.2288H35.6315V74.1396H34.7301V70.2288Z" fill="#F4F4F7"/>
<path d="M36.3311 72.206V72.192C36.3311 71.0737 37.2237 70.1469 38.4297 70.1469C39.6356 70.1469 40.5213 71.058 40.5213 72.1764V72.1903C40.5213 73.3017 39.6286 74.2284 38.4157 74.2284C37.2027 74.2284 36.3311 73.3174 36.3311 72.206ZM39.6199 72.206V72.192C39.6199 71.5022 39.121 70.9326 38.4139 70.9326C37.7068 70.9326 37.2307 71.4952 37.2307 72.1764V72.1903C37.2307 72.8714 37.7296 73.4428 38.4297 73.4428C39.1298 73.4428 39.6199 72.8801 39.6199 72.206Z" fill="#F4F4F7"/>
<path d="M41.1768 70.2288H42.0782V70.8298C42.332 70.4675 42.696 70.1487 43.3069 70.1487C44.1925 70.1487 44.7071 70.741 44.7071 71.6451V74.1414H43.8057V71.9186C43.8057 71.3106 43.5012 70.9622 42.9638 70.9622C42.4265 70.9622 42.0782 71.3245 42.0782 71.9325V74.1396H41.1768V70.2288Z" fill="#F4F4F7"/>
<path d="M45.2695 73.0143V73.0003C45.2695 72.1555 45.9329 71.7409 46.8921 71.7409C47.3314 71.7409 47.643 71.8071 47.9493 71.9046V71.8088C47.9493 71.2531 47.6062 70.957 46.9743 70.957C46.535 70.957 46.2077 71.0528 45.8506 71.2008L45.6126 70.4971C46.0449 70.3037 46.4685 70.1783 47.0934 70.1783C47.6815 70.1783 48.1208 70.3333 48.3956 70.6155C48.6861 70.8977 48.8192 71.3123 48.8192 71.8227V74.1414H47.9405V73.6518C47.6727 73.9706 47.2631 74.2215 46.661 74.2215C45.9241 74.2215 45.2695 73.7999 45.2695 73.0143ZM47.965 72.7321V72.4655C47.734 72.3767 47.4294 72.3105 47.0723 72.3105C46.4912 72.3105 46.1499 72.5544 46.1499 72.962V72.9759C46.1499 73.354 46.4842 73.5682 46.9166 73.5682C47.5117 73.5682 47.9668 73.2268 47.9668 72.7303L47.965 72.7321Z" fill="#F4F4F7"/>
<path d="M49.6914 68.7324H50.5928V74.1396H49.6914V68.7324Z" fill="#F4F4F7"/>
<path d="M17.3945 75.6569H19.4494C20.6694 75.6569 21.429 76.3467 21.429 77.3902V77.4041C21.429 78.5678 20.4908 79.174 19.3444 79.174H18.3099V80.8411H17.3945V75.6552V75.6569ZM19.3741 78.3535C20.0673 78.3535 20.4978 77.9685 20.4978 77.4268V77.4128C20.4978 76.8049 20.0585 76.4861 19.3741 76.4861H18.3099V78.3535H19.3741Z" fill="#F4F4F7"/>
<path d="M21.667 79.7175V79.7036C21.667 78.8587 22.3286 78.4441 23.2895 78.4441C23.7289 78.4441 24.0422 78.5103 24.3467 78.6079V78.5121C24.3467 77.9564 24.0037 77.6602 23.3718 77.6602C22.9325 77.6602 22.6052 77.756 22.2481 77.9041L22.0101 77.2003C22.4424 77.007 22.866 76.8815 23.4908 76.8815C24.0789 76.8815 24.5182 77.0366 24.793 77.3188C25.0836 77.601 25.2166 78.0156 25.2166 78.526V80.8446H24.338V80.3551C24.0702 80.6739 23.6606 80.9247 23.0585 80.9247C22.3216 80.9247 21.667 80.5032 21.667 79.7175ZM24.3607 79.4353V79.1688C24.1297 79.0799 23.8251 79.0138 23.4681 79.0138C22.887 79.0138 22.5456 79.2576 22.5456 79.6653V79.6792C22.5456 80.0572 22.88 80.2715 23.3123 80.2715C23.9074 80.2715 24.3625 79.9301 24.3625 79.4336L24.3607 79.4353Z" fill="#F4F4F7"/>
<path d="M26.0352 76.9321H26.9366V77.8136C27.1816 77.2282 27.6367 76.8276 28.3281 76.8572V77.8048H28.2756C27.4862 77.8048 26.9366 78.3152 26.9366 79.3535V80.8429H26.0352V76.9321Z" fill="#F4F4F7"/>
<path d="M29.2967 79.7611V77.702H28.7979V76.9321H29.2967V75.8572H30.1981V76.9321H31.2553V77.702H30.1981V79.62C30.1981 79.9684 30.3766 80.1095 30.6812 80.1095C30.8825 80.1095 31.061 80.0659 31.2395 79.9753V80.7087C31.0155 80.8342 30.7704 80.9091 30.4274 80.9091C29.764 80.9091 29.2967 80.6199 29.2967 79.7611Z" fill="#F4F4F7"/>
<path d="M31.9102 76.9321H32.8116V77.5331C33.0654 77.1707 33.4294 76.8519 34.0403 76.8519C34.9259 76.8519 35.4405 77.4442 35.4405 78.3483V80.8446H34.5391V78.6218C34.5391 78.0138 34.2346 77.6654 33.6972 77.6654C33.1599 77.6654 32.8116 78.0278 32.8116 78.6357V80.8429H31.9102V76.9321Z" fill="#F4F4F7"/>
<path d="M36.0479 78.9022V78.8883C36.0479 77.7699 36.8442 76.8502 37.9679 76.8502C39.2177 76.8502 39.8513 77.8274 39.8513 78.9545C39.8513 79.0364 39.8443 79.1183 39.8373 79.2071H36.9493C37.0455 79.8447 37.5006 80.2 38.08 80.2C38.5193 80.2 38.8308 80.0363 39.1441 79.7332L39.6727 80.2C39.2999 80.6443 38.7871 80.9334 38.0642 80.9334C36.9248 80.9334 36.0479 80.1112 36.0479 78.904V78.9022ZM38.9586 78.6131C38.8991 78.0347 38.556 77.5835 37.9609 77.5835C37.4096 77.5835 37.0228 78.0051 36.9405 78.6131H38.9569H38.9586Z" fill="#F4F4F7"/>
<path d="M40.499 76.932H41.4004V77.8135C41.6455 77.2282 42.1006 76.8275 42.7919 76.8571V77.8048H42.7394C41.95 77.8048 41.4004 78.3152 41.4004 79.3534V80.8428H40.499V76.932Z" fill="#F4F4F7"/>
<path d="M22.3477 82.3601H26.2263V83.1893H23.2631V84.6038H25.8903V85.433H23.2631V87.5444H22.3477V82.3584V82.3601Z" fill="#F4F4F7"/>
<path d="M26.8818 82.1825H27.8498V83.0343H26.8818V82.1825ZM26.9186 83.6353H27.82V87.5461H26.9186V83.6353Z" fill="#F4F4F7"/>
<path d="M28.7354 83.6353H29.6368V84.5167C29.8818 83.9314 30.3369 83.5308 31.0283 83.5604V84.508H30.9757C30.1864 84.508 29.6368 85.0184 29.6368 86.0567V87.5461H28.7354V83.6353Z" fill="#F4F4F7"/>
<path d="M31.5476 83.6353H32.4491V84.2276C32.7029 83.8792 33.0442 83.5534 33.648 83.5534C34.2134 83.5534 34.6159 83.8269 34.8242 84.2432C35.1375 83.8286 35.5541 83.5534 36.1492 83.5534C37.0051 83.5534 37.5267 84.0934 37.5267 85.0498V87.5461H36.6253V85.3233C36.6253 84.7014 36.3347 84.3669 35.8289 84.3669C35.3231 84.3669 34.987 84.7084 34.987 85.3372V87.5443H34.0856V85.3146C34.0856 84.7066 33.788 84.3669 33.2892 84.3669C32.7904 84.3669 32.4473 84.738 32.4473 85.3372V87.5443H31.5459V83.6335L31.5476 83.6353Z" fill="#F4F4F7"/>
<path d="M9.42948 53.8122V53.8034C9.42948 52.9307 10.0859 52.2078 10.9978 52.2078C11.5596 52.2078 11.8974 52.4064 12.2072 52.6973L11.9674 52.9533C11.7066 52.706 11.4143 52.53 10.9925 52.53C10.3064 52.53 9.7918 53.0857 9.7918 53.7965V53.8052C9.7918 54.5194 10.3099 55.0803 10.9925 55.0803C11.4178 55.0803 11.6961 54.9166 11.9937 54.6344L12.2247 54.8591C11.9009 55.1849 11.5474 55.4009 10.9838 55.4009C10.0894 55.4009 9.42773 54.7006 9.42773 53.8139L9.42948 53.8122Z" fill="#F4F4F7"/>
<path d="M12.624 52.1277H12.9653V53.4638C13.1159 53.2164 13.3557 53.0178 13.7495 53.0178C14.3026 53.0178 14.6264 53.3889 14.6264 53.9306V55.3469H14.2851V54.0143C14.2851 53.5909 14.054 53.3262 13.6515 53.3262C13.2489 53.3262 12.9653 53.6136 12.9653 54.0404V55.3451H12.624V52.1259V52.1277Z" fill="#F4F4F7"/>
<path d="M15.0254 54.6849V54.6762C15.0254 54.1954 15.4245 53.9393 16.0038 53.9393C16.2961 53.9393 16.5044 53.9794 16.7074 54.0369V53.9567C16.7074 53.5474 16.4554 53.3348 16.0248 53.3348C15.7553 53.3348 15.5417 53.4063 15.3299 53.5021L15.2284 53.2251C15.4805 53.1101 15.729 53.0352 16.0616 53.0352C16.3941 53.0352 16.6339 53.1188 16.802 53.2861C16.9577 53.4411 17.0365 53.6606 17.0365 53.9515V55.3451H16.7092V55.0019C16.5499 55.2092 16.2839 55.3939 15.8813 55.3939C15.456 55.3939 15.0254 55.1518 15.0254 54.6832V54.6849ZM16.7144 54.509V54.2877C16.5464 54.2389 16.3206 54.1902 16.0406 54.1902C15.61 54.1902 15.372 54.3748 15.372 54.6623V54.671C15.372 54.9584 15.638 55.1256 15.9478 55.1256C16.3679 55.1256 16.7144 54.8696 16.7144 54.509Z" fill="#F4F4F7"/>
<path d="M17.6084 53.0666H17.9497V53.6624C18.1177 53.2826 18.4503 53.0091 18.8844 53.0265V53.3924H18.8581C18.3575 53.3924 17.9497 53.7495 17.9497 54.4376V55.3452H17.6084V53.0649V53.0666Z" fill="#F4F4F7"/>
<path d="M19.3684 54.7424V53.3662H19.0498V53.0666H19.3684V52.3785H19.7097V53.0666H20.436V53.3662H19.7097V54.6988C19.7097 54.9758 19.8654 55.0786 20.0947 55.0786C20.2103 55.0786 20.3065 55.0559 20.4273 54.9985V55.2894C20.3083 55.3503 20.1788 55.3869 20.016 55.3869C19.6484 55.3869 19.3684 55.2058 19.3684 54.7424Z" fill="#F4F4F7"/>
<path d="M20.6748 54.2128V54.2041C20.6748 53.5474 21.1404 53.0178 21.774 53.0178C22.4514 53.0178 22.8417 53.5561 22.8417 54.2216C22.8417 54.2651 22.8417 54.2912 22.8364 54.3313H21.0196C21.0686 54.8243 21.4187 55.103 21.8265 55.103C22.1416 55.103 22.3621 54.9758 22.5494 54.7807L22.7629 54.9706C22.5319 55.2267 22.2536 55.3992 21.8195 55.3992C21.1911 55.3992 20.6766 54.9184 20.6766 54.2128H20.6748ZM22.4951 54.0804C22.4601 53.6659 22.2203 53.3035 21.7635 53.3035C21.3644 53.3035 21.0634 53.6345 21.0196 54.0804H22.4951Z" fill="#F4F4F7"/>
<path d="M23.2852 53.0666H23.6265V53.6624C23.7945 53.2826 24.1271 53.0091 24.5611 53.0265V53.3924H24.5349C24.0343 53.3924 23.6265 53.7495 23.6265 54.4376V55.3452H23.2852V53.0649V53.0666Z" fill="#F4F4F7"/>
<path d="M24.6855 54.2128V54.2041C24.6855 53.5474 25.1511 53.0178 25.7847 53.0178C26.4621 53.0178 26.8524 53.5561 26.8524 54.2216C26.8524 54.2651 26.8524 54.2912 26.8472 54.3313H25.0304C25.0794 54.8243 25.4294 55.103 25.8373 55.103C26.1523 55.103 26.3728 54.9758 26.5601 54.7807L26.7737 54.9706C26.5426 55.2267 26.2643 55.3992 25.8303 55.3992C25.2019 55.3992 24.6873 54.9184 24.6873 54.2128H24.6855ZM26.5059 54.0804C26.4709 53.6659 26.2311 53.3035 25.7742 53.3035C25.3752 53.3035 25.0741 53.6345 25.0304 54.0804H26.5059Z" fill="#F4F4F7"/>
<path d="M27.1621 54.2128V54.2041C27.1621 53.4586 27.7065 53.0178 28.2561 53.0178C28.6814 53.0178 28.9562 53.2478 29.133 53.5021V52.1259H29.4743V55.3451H29.133V54.887C28.9474 55.1605 28.6761 55.3939 28.2561 55.3939C27.7065 55.3939 27.1621 54.9619 27.1621 54.2128ZM29.147 54.2094V54.2006C29.147 53.6763 28.7444 53.3227 28.3191 53.3227C27.8937 53.3227 27.5122 53.6484 27.5122 54.2006V54.2094C27.5122 54.7476 27.8885 55.0908 28.3191 55.0908C28.7496 55.0908 29.147 54.7337 29.147 54.2094Z" fill="#F4F4F7"/>
<path d="M31.0566 52.2601H31.4067V55.3469H31.0566V52.2601Z" fill="#F4F4F7"/>
<path d="M32.1016 53.0666H32.4429V53.4638C32.5934 53.2164 32.8332 53.0178 33.227 53.0178C33.7801 53.0178 34.1039 53.3889 34.1039 53.9306V55.3469H33.7626V54.0143C33.7626 53.5909 33.5316 53.3262 33.129 53.3262C32.7264 53.3262 32.4429 53.6136 32.4429 54.0404V55.3451H32.1016V53.0649V53.0666Z" fill="#F4F4F7"/>
<path d="M34.4854 55.056L34.6586 54.8138C34.9072 54.9985 35.182 55.1048 35.4515 55.1048C35.7211 55.1048 35.9259 54.9637 35.9259 54.7424V54.7337C35.9259 54.5038 35.6563 54.4167 35.3535 54.3331C34.9947 54.232 34.5956 54.1083 34.5956 53.6885V53.6798C34.5956 53.2879 34.9229 53.0266 35.3763 53.0266C35.6546 53.0266 35.9661 53.1241 36.2007 53.2774L36.0449 53.5335C35.8331 53.3976 35.588 53.3122 35.3675 53.3122C35.098 53.3122 34.9247 53.4533 34.9247 53.6432V53.6519C34.9247 53.8679 35.2082 53.9516 35.5145 54.0439C35.8698 54.1501 36.2497 54.286 36.2497 54.6971V54.7058C36.2497 55.1379 35.8908 55.3887 35.434 55.3887C35.1067 55.3887 34.7426 55.2615 34.4854 55.0542V55.056Z" fill="#F4F4F7"/>
<path d="M36.6914 54.4828V53.0666H37.0327V54.3992C37.0327 54.8225 37.2638 55.0873 37.6663 55.0873C38.0689 55.0873 38.3524 54.7999 38.3524 54.3731V53.0683H38.6885V55.3486H38.3524V54.9514C38.1967 55.1988 37.9621 55.3974 37.5683 55.3974C37.0152 55.3974 36.6914 55.0264 36.6914 54.4846V54.4828Z" fill="#F4F4F7"/>
<path d="M39.3018 53.0666H39.6431V53.6624C39.8111 53.2826 40.1437 53.0091 40.5777 53.0265V53.3924H40.5515C40.0509 53.3924 39.6431 53.7495 39.6431 54.4376V55.3452H39.3018V53.0649V53.0666Z" fill="#F4F4F7"/>
<path d="M40.6572 54.6849V54.6762C40.6572 54.1954 41.0563 53.9393 41.6356 53.9393C41.928 53.9393 42.1362 53.9794 42.3393 54.0369V53.9567C42.3393 53.5474 42.0872 53.3348 41.6567 53.3348C41.3871 53.3348 41.1736 53.4063 40.9618 53.5021L40.8603 53.2251C41.1123 53.1101 41.3609 53.0352 41.6934 53.0352C42.026 53.0352 42.2658 53.1188 42.4338 53.2861C42.5896 53.4411 42.6683 53.6606 42.6683 53.9515V55.3451H42.341V55.0019C42.1817 55.2092 41.9157 55.3939 41.5131 55.3939C41.0878 55.3939 40.6572 55.1518 40.6572 54.6832V54.6849ZM42.3463 54.509V54.2877C42.1782 54.2389 41.9525 54.1902 41.6724 54.1902C41.2418 54.1902 41.0038 54.3748 41.0038 54.6623V54.671C41.0038 54.9584 41.2698 55.1256 41.5796 55.1256C41.9997 55.1256 42.3463 54.8696 42.3463 54.509Z" fill="#F4F4F7"/>
<path d="M43.2412 53.0666H43.5825V53.4638C43.7331 53.2164 43.9728 53.0178 44.3667 53.0178C44.9215 53.0178 45.2436 53.3889 45.2436 53.9306V55.3469H44.9023V54.0143C44.9023 53.5909 44.6712 53.3262 44.2686 53.3262C43.8661 53.3262 43.5825 53.6136 43.5825 54.0404V55.3451H43.2412V53.0649V53.0666Z" fill="#F4F4F7"/>
<path d="M45.6729 54.2181V54.2094C45.6729 53.5648 46.1787 53.0196 46.8473 53.0196C47.2814 53.0196 47.5527 53.2008 47.7645 53.4255L47.5387 53.6641C47.3566 53.4743 47.1536 53.321 46.8438 53.321C46.3782 53.321 46.0247 53.7129 46.0247 54.2024V54.2111C46.0247 54.7059 46.3887 55.0978 46.8666 55.0978C47.1589 55.0978 47.3847 54.9515 47.5667 54.7581L47.7837 54.9602C47.5527 55.2163 47.2779 55.4009 46.8491 55.4009C46.1804 55.4009 45.6746 54.8592 45.6746 54.2198L45.6729 54.2181Z" fill="#F4F4F7"/>
<path d="M47.9814 54.2128V54.2041C47.9814 53.5474 48.447 53.0178 49.0806 53.0178C49.758 53.0178 50.1483 53.5561 50.1483 54.2216C50.1483 54.2651 50.1483 54.2912 50.1431 54.3313H48.3263C48.3753 54.8243 48.7253 55.103 49.1331 55.103C49.4482 55.103 49.6687 54.9758 49.856 54.7807L50.0678 54.9706C49.8368 55.2267 49.5585 55.3992 49.1244 55.3992C48.496 55.3992 47.9814 54.9184 47.9814 54.2128ZM49.8018 54.0804C49.7668 53.6659 49.527 53.3035 49.0701 53.3035C48.6711 53.3035 48.37 53.6345 48.3263 54.0804H49.8018Z" fill="#F4F4F7"/>
<path d="M21.8359 56.3171H22.186V59.404H21.8359V56.3171Z" fill="#F4F4F7"/>
<path d="M22.8809 57.1237H23.2222V57.5209C23.3727 57.2735 23.6125 57.075 24.0063 57.075C24.5594 57.075 24.8832 57.446 24.8832 57.9878V59.404H24.5419V58.0714C24.5419 57.6481 24.3109 57.3833 23.9083 57.3833C23.5057 57.3833 23.2222 57.6707 23.2222 58.0975V59.4023H22.8809V57.122V57.1237Z" fill="#F4F4F7"/>
<path d="M25.2646 59.1131L25.4379 58.871C25.6865 59.0556 25.9613 59.1619 26.2308 59.1619C26.5004 59.1619 26.7052 59.0208 26.7052 58.7996V58.7909C26.7052 58.5609 26.4356 58.4738 26.1328 58.3902C25.774 58.2891 25.3749 58.1655 25.3749 57.7456V57.7369C25.3749 57.345 25.7022 57.0837 26.1556 57.0837C26.4339 57.0837 26.7454 57.1812 26.98 57.3345L26.8242 57.5906C26.6124 57.4547 26.3673 57.3694 26.1468 57.3694C25.8773 57.3694 25.704 57.5105 25.704 57.7004V57.7091C25.704 57.9251 25.9875 58.0087 26.2938 58.101C26.6491 58.2073 27.029 58.3432 27.029 58.7543V58.763C27.029 59.195 26.6701 59.4458 26.2133 59.4458C25.886 59.4458 25.5219 59.3187 25.2646 59.1114V59.1131Z" fill="#F4F4F7"/>
<path d="M27.5822 58.7996V57.4234H27.2637V57.1238H27.5822V56.4357H27.9235V57.1238H28.6499V57.4234H27.9235V58.756C27.9235 59.033 28.0793 59.1358 28.3086 59.1358C28.4241 59.1358 28.5204 59.1131 28.6412 59.0557V59.3466C28.5221 59.4075 28.3926 59.4441 28.2298 59.4441C27.8623 59.4441 27.5822 59.263 27.5822 58.7996Z" fill="#F4F4F7"/>
<path d="M29.1064 56.251H29.4968V56.6255H29.1064V56.251ZM29.1292 57.1237H29.4705V59.404H29.1292V57.1237Z" fill="#F4F4F7"/>
<path d="M30.2258 58.7996V57.4234H29.9072V57.1238H30.2258V56.4357H30.5671V57.1238H31.2935V57.4234H30.5671V58.756C30.5671 59.033 30.7229 59.1358 30.9522 59.1358C31.0677 59.1358 31.164 59.1131 31.2847 59.0557V59.3466C31.1657 59.4075 31.0362 59.4441 30.8734 59.4441C30.5058 59.4441 30.2258 59.263 30.2258 58.7996Z" fill="#F4F4F7"/>
<path d="M31.707 58.54V57.1237H32.0483V58.4564C32.0483 58.8797 32.2794 59.1444 32.682 59.1444C33.0845 59.1444 33.3681 58.857 33.3681 58.4302V57.1255H33.7041V59.4058H33.3681V59.0086C33.2123 59.2559 32.9778 59.4545 32.5839 59.4545C32.0308 59.4545 31.707 59.0835 31.707 58.5417V58.54Z" fill="#F4F4F7"/>
<path d="M34.4357 58.7996V57.4234H34.1172V57.1238H34.4357V56.4357H34.7771V57.1238H35.5034V57.4234H34.7771V58.756C34.7771 59.033 34.9328 59.1358 35.1621 59.1358C35.2776 59.1358 35.3739 59.1131 35.4947 59.0557V59.3466C35.3757 59.4075 35.2461 59.4441 35.0834 59.4441C34.7158 59.4441 34.4357 59.263 34.4357 58.7996Z" fill="#F4F4F7"/>
<path d="M35.7432 58.27V58.2613C35.7432 57.6045 36.2087 57.075 36.8424 57.075C37.5197 57.075 37.91 57.6132 37.91 58.2787C37.91 58.3222 37.91 58.3484 37.9048 58.3884H36.088C36.137 58.8814 36.487 59.1601 36.8949 59.1601C37.2099 59.1601 37.4305 59.033 37.6177 58.8379L37.8313 59.0277C37.6002 59.2838 37.3219 59.4563 36.8879 59.4563C36.2595 59.4563 35.7449 58.9755 35.7449 58.27H35.7432ZM37.5635 58.1376C37.5285 57.723 37.2887 57.3606 36.8319 57.3606C36.4328 57.3606 36.1317 57.6916 36.088 58.1376H37.5635Z" fill="#F4F4F7"/>
</g>
<defs>
<clipPath id="clip0_1_28714">
<rect width="58" height="100" fill="white" transform="translate(0.833008 0.083374)"/>
</clipPath>
</defs>
</svg>
