<svg width="101" height="101" viewBox="0 0 101 101" fill="none" xmlns="http://www.w3.org/2000/svg">
<g clip-path="url(#clip0_1340_7335)">
<path d="M30.8648 35.2112H31.5317C31.691 35.6362 32.132 36.4968 33.114 36.4968C34.3794 36.4968 34.8923 35.0683 34.9133 35.0074C34.9448 34.915 34.9308 34.814 34.873 34.7339C34.817 34.6537 34.7242 34.6067 34.6262 34.6067H30.8648C30.6968 34.6067 30.562 34.7408 30.562 34.9081C30.562 35.0753 30.6968 35.2094 30.8648 35.2094V35.2112ZM34.1379 35.2112C33.9436 35.5195 33.6058 35.894 33.114 35.894C32.6221 35.894 32.3403 35.5143 32.1898 35.2112H34.1396H34.1379Z" fill="#F4F4F7"/>
<path d="M43.933 31.8978C45.1897 31.8978 46.2136 30.8805 46.2136 29.628C46.2136 28.3755 45.1915 27.3582 43.933 27.3582C42.6745 27.3582 41.6523 28.3755 41.6523 29.628C41.6523 30.8805 42.6745 31.8978 43.933 31.8978ZM43.933 27.9626C44.8572 27.9626 45.608 28.71 45.608 29.6297C45.608 30.5495 44.8572 31.2968 43.933 31.2968C43.0088 31.2968 42.258 30.5495 42.258 29.6297C42.258 28.71 43.0088 27.9626 43.933 27.9626Z" fill="#F4F4F7"/>
<path d="M70.7734 34.6972C70.7156 34.6397 70.6404 34.6101 70.5651 34.6101H70.5616H67.0155C66.9175 34.6101 66.8264 34.6571 66.7687 34.7373C66.7127 34.8174 66.6969 34.9184 66.7302 35.0108C66.7512 35.0717 67.264 36.5002 68.5295 36.5002C69.5114 36.5002 69.9525 35.6396 70.1118 35.2146H70.4373L70.9012 35.6762C70.9607 35.7354 71.0377 35.7651 71.1147 35.7651C71.1917 35.7651 71.2705 35.7354 71.3282 35.6762C71.3877 35.617 71.4175 35.5403 71.4175 35.4637C71.4175 35.387 71.3877 35.3087 71.3282 35.2512L70.7751 34.7007L70.7734 34.6972ZM68.526 35.894C68.0342 35.894 67.6963 35.5194 67.5021 35.2111H69.4519C69.3014 35.516 69.0143 35.894 68.5277 35.894H68.526Z" fill="#F4F4F7"/>
<path d="M57.6127 31.8978C58.8694 31.8978 59.8933 30.8805 59.8933 29.628C59.8933 28.3755 58.8712 27.3582 57.6127 27.3582C56.3542 27.3582 55.332 28.3755 55.332 29.628C55.332 30.8805 56.3542 31.8978 57.6127 31.8978ZM57.6127 27.9626C58.5368 27.9626 59.2877 28.71 59.2877 29.6297C59.2877 30.5495 58.5368 31.2968 57.6127 31.2968C56.6885 31.2968 55.9376 30.5495 55.9376 29.6297C55.9376 28.71 56.6885 27.9626 57.6127 27.9626Z" fill="#F4F4F7"/>
<path d="M79.8319 42.5399C79.8319 42.3291 79.8301 42.1201 79.8301 41.9145C79.8301 41.9128 79.8301 41.911 79.8301 41.9093C79.8301 39.2562 79.1248 37.1118 77.7385 35.5387C77.6755 35.4673 77.609 35.3976 77.5442 35.328V22.458C77.5442 22.2908 77.4095 22.1566 77.2414 22.1566C76.5115 22.1566 75.9164 21.5644 75.9164 20.8379C75.9164 20.1115 76.5115 19.5192 77.2414 19.5192C77.4095 19.5192 77.5442 19.3851 77.5442 19.2179V13.7183C77.5442 13.6156 77.4917 13.518 77.4025 13.464C77.3149 13.4083 77.2047 13.4013 77.1102 13.4466C76.9981 13.5006 74.4007 14.7583 73.522 17.6135C73.473 17.6135 73.4275 17.617 73.3907 17.6204C71.6859 17.7581 70.3522 19.2004 70.3522 20.9041C70.3522 22.2054 71.1696 23.3935 72.4071 23.923V24.3098C72.4071 28.5585 68.0891 29.0184 66.232 29.0184C63.2652 29.0184 60.715 26.9175 60.1637 24.0206C60.1427 23.9091 60.0586 23.8185 59.9484 23.7872C59.8381 23.7558 59.7191 23.7889 59.6421 23.8743C58.984 24.5937 57.5697 25.2243 56.6123 25.2243C55.5796 25.2243 54.4436 24.5502 53.7698 23.8324C53.9011 23.7872 53.9991 23.7436 54.0183 23.7349C54.0236 23.7332 54.0288 23.7297 54.0341 23.7279C54.3054 23.5833 54.5539 23.3987 54.7727 23.1827C55.3643 22.5939 55.6899 21.8152 55.6899 20.9895V19.4565C55.6899 19.4565 55.6881 19.4391 55.6864 19.4321V17.5107C55.6864 17.5107 55.6864 17.4985 55.6864 17.4933C55.6864 16.8034 55.4728 16.1293 55.0825 15.5614H56.9588C57.2196 16.6327 58.1981 17.4131 59.3358 17.4131C60.68 17.4131 61.7739 16.3244 61.7739 14.9865C61.7739 13.6487 60.68 12.5599 59.3358 12.5599C59.334 12.5599 59.3323 12.5599 59.3288 12.5599H52.9069V11.6035C52.9069 11.2412 52.7406 10.9172 52.4816 10.7012C52.7056 10.4869 52.8456 10.1873 52.8456 9.85457V9.47481C52.8456 9.10725 52.7038 8.79194 52.4746 8.57942C52.7021 8.36515 52.8456 8.06204 52.8456 7.72583V7.34608C52.8456 6.97851 52.7038 6.66321 52.4746 6.45068C52.7021 6.23642 52.8456 5.93331 52.8456 5.5971V5.21734C52.8456 4.84629 52.7003 4.52576 52.4658 4.31324C52.9594 3.86903 53.2709 3.22971 53.2709 2.51549C53.2709 1.17762 52.177 0.0888672 50.8328 0.0888672C49.4885 0.0888672 48.3946 1.17762 48.3946 2.51549C48.3946 3.24364 48.7201 3.8969 49.233 4.34285C48.9914 4.55886 48.8374 4.87068 48.8374 5.21734V5.5971C48.8374 5.96466 48.9792 6.27997 49.2085 6.49249C48.9809 6.70676 48.8374 7.00987 48.8374 7.34608V7.72583C48.8374 8.0934 48.9792 8.4087 49.2085 8.62123C48.9809 8.83549 48.8374 9.1386 48.8374 9.47481V9.85457C48.8374 10.1925 48.9564 10.4869 49.1542 10.6977C48.8917 10.9137 48.7236 11.2395 48.7236 11.6035V12.5599H42.279C40.9348 12.5599 39.8408 13.6487 39.8408 14.9865C39.8408 16.3244 40.9348 17.4131 42.279 17.4131C43.4114 17.4131 44.3846 16.6327 44.6472 15.5614H46.0999V19.1238C46.0999 19.3119 46.1734 19.4896 46.31 19.6238C46.3205 19.6342 46.331 19.6412 46.3415 19.6499V21.2543C46.3415 21.4442 46.415 21.6218 46.5515 21.756C46.618 21.8222 46.695 21.8744 46.7808 21.9093V23.3865C46.7808 23.5746 46.8543 23.7541 46.9908 23.8882C47.1256 24.0223 47.3041 24.0972 47.4949 24.0972H47.5492C46.8648 24.7104 45.8759 25.233 44.9675 25.233C44.0118 25.233 42.5958 24.6024 41.9377 23.883C41.8607 23.7976 41.7417 23.7645 41.6314 23.7959C41.5211 23.8272 41.4371 23.9178 41.4161 24.0293C40.8928 26.7834 38.5596 28.8163 35.7801 29.0097L37.2014 19.6847C37.2241 19.5332 37.1296 19.3886 36.9808 19.3485C36.832 19.3084 36.6763 19.3868 36.6203 19.5297L32.9639 28.7588C31.1225 28.3146 29.1744 27.1719 29.1744 24.3185V23.9317C30.4119 23.4022 31.2293 22.2141 31.2293 20.9128C31.2293 19.2092 29.8938 17.7668 28.1908 17.6292C28.154 17.6257 28.1085 17.6239 28.0595 17.6222C27.1808 14.767 24.5851 13.5093 24.4714 13.4553C24.3768 13.4117 24.2666 13.417 24.1791 13.4727C24.0915 13.5285 24.0373 13.6243 24.0373 13.7271V19.2266C24.0373 19.3938 24.172 19.5279 24.3401 19.5279C25.07 19.5279 25.6651 20.1202 25.6651 20.8466C25.6651 21.5731 25.07 22.1653 24.3401 22.1653C24.172 22.1653 24.0373 22.2995 24.0373 22.4667V35.4586C23.9988 35.5004 23.9603 35.5422 23.9235 35.5858C22.5565 37.1675 21.8634 39.3415 21.8634 42.0347C21.8634 42.1113 21.8424 49.5968 28.5653 52.2812V56.3854C28.5653 56.3854 28.5636 56.3976 28.5636 56.4045C28.5636 58.218 28.0367 60.3798 25.525 60.3798H24.9964C24.8512 60.3798 24.7532 60.3798 24.6814 60.3798V58.2249H26.5997C26.7082 58.2249 26.8098 58.1674 26.8623 58.0716C26.9165 57.9776 26.9148 57.8608 26.8588 57.7685L24.6271 54.0493C24.5729 53.9587 24.4731 53.903 24.3663 53.903C24.2596 53.903 24.1615 53.9587 24.1055 54.0493L21.8756 57.7703C21.8196 57.8626 21.8179 57.9793 21.8721 58.0734C21.9264 58.1674 22.0262 58.2267 22.1347 58.2267H24.074V73.2567C23.8657 78.8346 26.4982 82.9963 32.3582 86.3496C34.2521 87.4332 36.3297 88.1526 38.3408 88.8477C42.4838 90.2796 46.7563 91.7603 49.7931 96.5317C49.2435 96.8714 48.8742 97.4741 48.8742 98.1657C48.8742 99.2248 49.7406 100.087 50.8048 100.087C51.8689 100.087 52.7353 99.2248 52.7353 98.1657C52.7353 97.4776 52.3695 96.8766 51.8234 96.5369C54.8585 91.7725 59.1292 90.2936 63.2705 88.8616C65.2816 88.1666 67.3609 87.4471 69.253 86.3636C75.1376 82.9963 77.5372 79.2057 77.5372 73.2828V58.2301H79.4766C79.5851 58.2301 79.6866 58.1727 79.7391 58.0769C79.7934 57.9828 79.7916 57.8661 79.7356 57.7737L77.504 54.0546C77.4497 53.964 77.3499 53.9082 77.2432 53.9082C77.1364 53.9082 77.0384 53.964 76.9824 54.0546L74.7507 57.7737C74.6947 57.8661 74.693 57.9828 74.7472 58.0769C74.8015 58.1709 74.9013 58.2301 75.0098 58.2301H76.9264V60.385C76.7636 60.385 76.5028 60.385 76.0827 60.385C73.571 60.385 73.0442 58.2232 73.0442 56.408V52.3125C74.3184 51.837 74.8488 51.0287 75.1673 50.365C75.1918 50.3145 75.2163 50.2622 75.2373 50.2117L75.2741 50.3807C75.3003 50.5061 75.3896 50.6576 75.5629 50.7099C75.6714 50.743 75.8412 50.7413 76.0285 50.5601L76.2017 50.4138C77.6632 49.2013 78.2444 47.6109 78.6942 46.01L78.8045 46.2242C78.8115 46.2382 78.8185 46.2504 78.829 46.2625C78.8972 46.3566 79.018 46.4489 79.1703 46.4489C79.1878 46.4489 79.207 46.4489 79.2245 46.4455C79.3138 46.4315 79.4783 46.3723 79.5623 46.1232C79.6516 45.8584 79.7024 45.6407 79.7251 45.4159C79.7514 45.1668 79.7671 44.9125 79.7846 44.6686V44.639H79.7864C79.8301 43.9405 79.8249 43.228 79.8214 42.5416L79.8319 42.5399ZM75.5506 57.6239L77.2484 54.7932L78.9462 57.6239H75.5506ZM56.614 25.8253C57.5627 25.8253 58.8509 25.3149 59.6893 24.6477C60.484 27.5569 63.1549 29.6177 66.232 29.6177C70.4782 29.6177 73.0127 27.6318 73.0127 24.3063V23.7192C73.0127 23.5938 72.9374 23.4788 72.8131 23.4335C71.7034 23.0363 70.9578 22.019 70.9578 20.9006C70.9578 19.5088 72.0483 18.3294 73.4398 18.218C73.508 18.2127 73.6673 18.2092 73.7496 18.2092C73.7566 18.2092 73.7636 18.2092 73.7688 18.2075C73.7793 18.2075 73.7898 18.2075 73.8003 18.204C73.8091 18.204 73.8196 18.2005 73.8283 18.197C73.8388 18.1936 73.8476 18.1918 73.8563 18.1883C73.8651 18.1849 73.8738 18.1814 73.8826 18.1761C73.8913 18.1709 73.9001 18.1674 73.9088 18.1622C73.9158 18.157 73.9228 18.1518 73.9316 18.1465C73.9403 18.1396 73.9473 18.1343 73.9561 18.1274C73.9631 18.1221 73.9684 18.1152 73.9736 18.1082C73.9806 18.0995 73.9876 18.0925 73.9946 18.0838C73.9999 18.0768 74.0051 18.0681 74.0086 18.0612C74.0139 18.0525 74.0191 18.0438 74.0226 18.035C74.0279 18.0246 74.0314 18.0159 74.0349 18.0054C74.0366 17.9985 74.0401 17.9932 74.0419 17.988C74.5915 15.9411 76.1667 14.7252 76.9351 14.2392V18.9409C76.0145 19.0855 75.3073 19.8816 75.3073 20.8379C75.3073 21.7943 76.0145 22.5904 76.9351 22.735V34.7618C76.3103 34.2427 75.5979 33.8351 74.8155 33.5424C75.4491 33.2881 75.8972 32.6749 75.8972 31.9572C75.8972 31.013 75.1218 30.2448 74.1679 30.2448C73.214 30.2448 72.4386 31.0165 72.4386 31.9676L72.4438 33.0668H59.9204C59.7523 33.0668 59.6176 33.201 59.6176 33.3682V36.1624C59.6176 37.4619 60.659 38.636 61.8912 38.7284C61.9297 38.7318 61.97 38.7336 62.0155 38.7336H64.1824C64.3504 38.7336 64.4852 38.5995 64.4852 38.4322V38.366C64.4869 38.3329 64.4887 38.3016 64.4887 38.2859C64.4887 37.7912 64.963 37.3574 65.5039 37.3574C66.0447 37.3574 66.5225 37.8121 66.5225 38.3712C66.5225 38.9304 66.0657 39.3851 65.5039 39.3851H60.554C60.3859 39.3851 60.2512 39.5192 60.2512 39.6865V40.8048C60.2512 40.9721 60.3859 41.1062 60.554 41.1062H61.2033C61.2804 41.5713 61.5814 42.0138 62.082 42.4162C60.8025 43.0799 59.8329 43.9283 59.1012 44.8062L54.8252 43.0886L54.813 41.5208C54.813 40.338 54.1986 39.575 53.4092 39.1046V24.3237C54.1671 25.0902 55.4011 25.8236 56.614 25.8236V25.8253ZM60.778 48.7763C59.8889 48.4087 59.0662 48.1805 58.4921 48.0708C58.3101 48.0359 58.128 48.0098 57.9443 47.9871C58.7162 45.9507 60.722 42.667 65.7471 41.8727C68.3376 41.4633 70.291 40.4599 71.5477 38.8904C71.938 38.4043 72.2285 37.9009 72.4456 37.4097V43.0259H70.375C70.375 43.0259 70.3715 43.0259 70.368 43.0259C70.354 43.0259 70.34 43.0259 70.326 43.0259H68.2186C64.2226 43.0259 61.8527 44.855 60.7763 48.7763H60.778ZM67.6847 43.6408C66.0482 44.47 64.4519 46.3409 63.9933 50.3841C63.9793 50.5043 63.9688 50.6193 63.9583 50.7308V50.7412C63.1742 50.0131 62.243 49.4469 61.3364 49.0219C62.2833 45.4752 64.2576 43.7959 67.683 43.6408H67.6847ZM33.3874 43.0259H31.2976C31.2836 43.0259 31.2696 43.0259 31.2556 43.0259C31.2538 43.0259 31.2521 43.0259 31.2486 43.0259H29.1709V37.1849C29.8903 38.8991 31.4306 40.7961 34.7037 41.6323C34.7107 41.634 34.7177 41.6358 34.7247 41.6375C35.087 41.7298 35.4668 41.81 35.8711 41.8727C40.8735 42.6618 42.8899 45.9107 43.6775 47.9819C43.4832 48.0063 43.2907 48.0342 43.0981 48.0708C42.7953 48.1282 41.8957 48.3181 40.8192 48.7379C39.7393 44.8411 37.3746 43.0242 33.3857 43.0242L33.3874 43.0259ZM40.2591 48.9731C39.3875 49.3616 38.4546 49.8999 37.6564 50.6298C37.6494 50.5496 37.6407 50.4695 37.6319 50.3841C37.1751 46.3427 35.5788 44.4718 33.944 43.6408C37.3064 43.8063 39.321 45.5135 40.2591 48.9731ZM41.3128 33.6765C41.3513 34.1033 41.4984 34.8559 42.069 35.2304C42.1582 35.2896 42.2492 35.3332 42.3403 35.3733C42.2545 35.7966 42.1687 36.2983 42.0847 36.7843C42.0007 37.279 41.9114 37.7929 41.8274 38.2058C41.8222 38.2354 41.8204 38.2389 41.7837 38.2615C41.1658 38.6378 40.5059 38.7876 39.8233 38.7075C39.636 38.6848 39.4452 38.636 39.244 38.5838C39.1389 38.5576 39.0339 38.5298 38.9289 38.5071C38.9237 38.5071 38.9167 38.5071 38.9114 38.5054C38.9009 38.5054 38.8904 38.5019 38.8799 38.5019C38.8694 38.5019 38.8606 38.5019 38.8501 38.5019C38.8396 38.5019 38.8309 38.5019 38.8204 38.5036C38.8099 38.5036 38.8011 38.5071 38.7924 38.5089C38.7819 38.5106 38.7731 38.5141 38.7644 38.5176C38.7556 38.5211 38.7469 38.5245 38.7399 38.528C38.7311 38.5315 38.7206 38.5367 38.7119 38.542C38.7049 38.5472 38.6961 38.5507 38.6891 38.5559C38.6804 38.5611 38.6716 38.5681 38.6646 38.5751C38.6576 38.582 38.6506 38.589 38.6436 38.596C38.6384 38.6012 38.6331 38.6047 38.6296 38.6099C38.5578 38.6987 38.4721 38.7824 38.3828 38.8695C38.3338 38.9182 38.2848 38.9653 38.2375 39.014C37.3449 39.9443 36.0707 40.6951 34.8157 41.033C32.6278 40.4512 29.8343 38.974 29.2462 35.2339C29.2147 35.037 29.1919 34.835 29.1744 34.6346C29.1744 34.6294 29.1727 34.6242 29.1709 34.619V33.6696C31.098 33.6713 39.398 33.6748 41.3128 33.6748V33.6765ZM31.8979 33.0703L32.5123 31.5182L34.0736 33.0721C33.3104 33.0721 32.5718 33.0721 31.8979 33.0721V33.0703ZM42.9109 45.3062L47.2079 43.5746C47.3216 43.5293 47.3952 43.4196 47.3969 43.2976L47.4109 41.5243C47.4109 40.5087 47.9623 39.784 49.0527 39.3694C49.6075 39.1586 50.1729 39.0802 50.5072 39.0506V44.6477L46.9803 48.1596C46.0912 47.9575 45.1915 47.8774 44.3024 47.9279C44.0258 47.1666 43.59 46.2347 42.9109 45.3062ZM50.8013 36.8574C50.9693 36.8574 51.1041 36.7233 51.1041 36.5561V24.0519C51.7167 23.9143 52.1752 23.3691 52.1752 22.7193C52.1752 22.289 51.9757 21.9058 51.6642 21.6549C51.9757 21.4041 52.177 21.0208 52.177 20.5906C52.177 20.1603 51.9775 19.7753 51.6659 19.5227C51.8304 19.3903 51.9617 19.2213 52.051 19.028C52.0877 19.0611 52.1245 19.0959 52.163 19.1273C52.359 19.2893 52.5743 19.4286 52.8036 19.5488V38.8102C52.1052 38.5333 51.3596 38.4305 50.81 38.4305C50.2604 38.4305 49.5148 38.5333 48.8164 38.8102V24.085H50.5002V36.5543C50.5002 36.7216 50.635 36.8557 50.803 36.8557L50.8013 36.8574ZM50.3724 16.5752C50.3899 16.8243 50.3672 17.0647 50.3094 17.286C50.2237 17.6117 50.0574 17.8974 49.8211 18.1065C49.59 18.3138 49.2855 18.4479 48.9214 18.4758C48.8742 18.4793 48.8252 18.481 48.7761 18.481C48.6606 18.481 48.5399 18.4705 48.4156 18.4496L49.275 14.6817H52.2645C52.3555 14.6817 52.4378 14.6852 52.5148 14.6921C52.5953 14.6991 52.6793 14.7113 52.7669 14.727C53.4267 14.8385 54.0096 15.1886 54.4244 15.6816C54.8357 16.1711 55.0843 16.8034 55.0843 17.4863V19.4252H54.8917C53.9203 19.4252 53.1362 19.1482 52.5516 18.6639C51.9285 18.15 51.5206 17.3975 51.3439 16.4934C51.3193 16.3697 51.2108 16.2843 51.0883 16.2843H50.635C50.4915 16.2843 50.3742 16.3993 50.3742 16.5439C50.3742 16.5543 50.3742 16.5648 50.3759 16.5752H50.3724ZM48.104 17.0891H46.7055V15.5544H48.4541L48.104 17.0891ZM50.8083 45.1982L53.9361 48.3373C53.4757 48.4749 53.0206 48.6456 52.5708 48.8512C52.1928 49.0236 51.6081 49.3407 51.4419 49.4469C51.3666 49.4957 51.2441 49.5689 51.1128 49.6455C51.0008 49.7117 50.8905 49.7797 50.7943 49.8389C50.698 49.7797 50.586 49.7117 50.4739 49.6455C50.3444 49.5671 50.2202 49.494 50.1466 49.4469C49.9804 49.3389 49.3958 49.0219 49.0177 48.8512C48.5696 48.6474 48.1145 48.4766 47.6559 48.339L50.8065 45.1999L50.8083 45.1982ZM51.1111 44.6477V39.0506C51.4454 39.0785 52.009 39.1569 52.5656 39.3694C53.6543 39.784 54.2074 40.5104 54.2074 41.5278L54.2214 43.2994C54.2214 43.4213 54.2966 43.5311 54.4104 43.5764L58.7144 45.3044C58.0283 46.2416 57.5925 47.1771 57.3212 47.9314C56.4215 47.8791 55.5113 47.9575 54.6099 48.1613L51.1111 44.6494V44.6477ZM72.4386 35.0684C72.253 37.016 71.1241 40.4129 65.6526 41.2769C64.5324 41.4546 63.5558 41.749 62.6999 42.1235C62.2518 41.8222 61.7652 41.3658 61.7914 40.8188C61.7949 40.7369 61.7652 40.6568 61.7074 40.5958C61.6497 40.5366 61.5709 40.5017 61.4886 40.5017H60.8585V39.9861H65.5056C66.4 39.9861 67.1299 39.2614 67.1299 38.3695C67.1299 37.4776 66.4018 36.7529 65.5056 36.7529C64.683 36.7529 63.9793 37.3679 63.8936 38.1291H62.0242C61.9962 38.1291 61.9682 38.1291 61.9402 38.1256C61.0108 38.0559 60.2267 37.1571 60.2267 36.1606V33.6678H72.4473V35.0196C72.4438 35.0353 72.4403 35.0492 72.4386 35.0649V35.0684ZM55.0843 20.0279V20.986C55.0843 21.6514 54.8217 22.2786 54.3456 22.7524C54.1706 22.9266 53.9728 23.0729 53.7558 23.1896C53.6945 23.2175 53.5457 23.2767 53.4092 23.3081V19.8032C53.8625 19.9513 54.3614 20.0279 54.89 20.0279H55.0825C55.0825 20.0279 55.0825 20.0279 55.0843 20.0279ZM49.0002 2.51026C49.0002 1.50512 49.8228 0.686376 50.8328 0.686376C51.8427 0.686376 52.6653 1.50512 52.6653 2.51026C52.6653 3.5154 51.8427 4.33414 50.8328 4.33414C49.8228 4.33414 49.0002 3.5154 49.0002 2.51026ZM50.0189 6.76599H51.7517C52.0895 6.76599 52.24 7.05342 52.24 7.33911V7.71887C52.24 8.03417 51.981 8.29199 51.6642 8.29199H49.9314C49.5935 8.29199 49.443 8.00455 49.443 7.71887V7.33911C49.443 7.0238 49.7021 6.76599 50.0189 6.76599ZM49.443 5.59013V5.21037C49.443 4.98043 49.5795 4.78358 49.7756 4.693C50.0959 4.84803 50.4529 4.93688 50.8328 4.93688C51.2126 4.93688 51.6011 4.84107 51.932 4.67383C52.142 4.75745 52.24 4.98391 52.24 5.21211V5.59187C52.24 5.90718 51.981 6.16499 51.6642 6.16499H49.9314C49.5935 6.16499 49.443 5.87756 49.443 5.59187V5.59013ZM50.0189 8.89472H51.7517C52.0895 8.89472 52.24 9.18215 52.24 9.46784V9.8476C52.24 10.1629 51.981 10.4207 51.6642 10.4207H49.9314C49.5935 10.4207 49.443 10.1333 49.443 9.8476V9.46784C49.443 9.15254 49.7021 8.89472 50.0189 8.89472ZM49.9051 11.0235H51.7254C52.0422 11.0235 52.3013 11.2813 52.3013 11.5966V12.5529H49.3292V11.5966C49.3292 11.2813 49.5883 11.0235 49.9051 11.0235ZM44.4266 14.9517C44.3129 14.9412 44.2078 14.9935 44.1483 15.0823C44.1483 15.0823 44.1483 15.0823 44.1466 15.0841C44.1378 15.098 44.1291 15.1119 44.1221 15.1276C44.1221 15.1311 44.1186 15.1346 44.1168 15.1381C44.1116 15.1503 44.1081 15.1642 44.1046 15.1781C44.1028 15.1851 44.1011 15.1921 44.0993 15.199C44.0993 15.2025 44.0976 15.2078 44.0958 15.2112C43.9803 16.1188 43.1979 16.8017 42.2773 16.8017C41.2673 16.8017 40.4447 15.983 40.4447 14.9778C40.4447 13.9727 41.2673 13.1539 42.2773 13.1539H59.3428C60.3492 13.1592 61.1648 13.9744 61.1648 14.9778C61.1648 15.9812 60.3422 16.8017 59.3323 16.8017C58.4063 16.8017 57.6222 16.1188 57.5049 15.213C57.5049 15.2095 57.5032 15.206 57.5014 15.2008C57.5014 15.1903 57.4979 15.1816 57.4944 15.1712C57.4909 15.1607 57.4892 15.152 57.4857 15.1416C57.4822 15.1329 57.4787 15.1259 57.4752 15.1172C57.4699 15.1067 57.4647 15.098 57.4594 15.0876C57.4559 15.0806 57.4507 15.0754 57.4454 15.0684C57.4384 15.0579 57.4314 15.0492 57.4227 15.0405C57.4174 15.0353 57.4122 15.0318 57.4069 15.0266C57.3982 15.0179 57.3877 15.0109 57.3772 15.0022C57.3719 14.9987 57.3649 14.9952 57.3597 14.9918C57.3492 14.9848 57.3387 14.9796 57.3282 14.9743C57.3212 14.9708 57.3142 14.9691 57.3072 14.9656C57.2967 14.9621 57.2844 14.9587 57.2739 14.9552C57.2651 14.9534 57.2581 14.9517 57.2494 14.9499C57.2389 14.9499 57.2266 14.9465 57.2161 14.9465C57.2126 14.9465 57.2091 14.9465 57.2056 14.9465H54.5469C54.0726 14.5197 53.4897 14.2322 52.8631 14.1277C52.7563 14.1103 52.6583 14.0964 52.5673 14.0876C52.464 14.0789 52.3625 14.0737 52.261 14.0737H49.2715C48.9879 14.0737 48.7429 14.2688 48.6816 14.5423L48.5906 14.9447H44.4249L44.4266 14.9517ZM46.7388 19.19C46.7265 19.1778 46.7073 19.1517 46.7073 19.1151V17.6919H47.9675L47.8257 18.3155C47.789 18.4775 47.8205 18.6465 47.9132 18.7858C48.006 18.9235 48.153 19.0175 48.3158 19.0437C48.4733 19.0698 48.6274 19.082 48.7761 19.082C48.8409 19.082 48.9074 19.0802 48.9704 19.075C49.4483 19.0384 49.8841 18.859 50.2254 18.5542C50.544 18.2702 50.7768 17.8852 50.894 17.4393C50.9063 17.3905 50.9185 17.3417 50.929 17.2929C51.0831 17.7441 51.2983 18.1483 51.5644 18.5002C51.5434 18.9008 51.2143 19.2213 50.81 19.2213C50.8048 19.2213 50.8013 19.2213 50.796 19.2213H46.8141C46.779 19.2213 46.7528 19.2039 46.7388 19.19ZM46.9786 21.3205C46.9663 21.3083 46.9471 21.2839 46.9471 21.2456V19.8241H50.796C50.796 19.8241 50.8048 19.8241 50.81 19.8241C51.2283 19.8241 51.5696 20.1673 51.5696 20.5888C51.5696 21.0104 51.2283 21.3483 50.81 21.3483C50.8048 21.3483 50.8013 21.3483 50.796 21.3483H47.0556C47.0276 21.3483 46.9996 21.3361 46.9803 21.317L46.9786 21.3205ZM47.4914 23.484C47.4564 23.484 47.4302 23.4666 47.4162 23.4527C47.4022 23.4387 47.3847 23.4144 47.3847 23.3778V21.9563H50.7943C50.7943 21.9563 50.803 21.958 50.8083 21.958C50.8118 21.958 50.817 21.958 50.8205 21.958C51.2336 21.965 51.5696 22.3047 51.5696 22.721C51.5696 23.1374 51.2248 23.4858 50.803 23.4858H47.4932L47.4914 23.484ZM41.8887 24.6477C42.7271 25.3149 44.0153 25.8253 44.964 25.8253C46.1997 25.8253 47.4547 25.0658 48.209 24.2836V39.1064C47.4197 39.5767 46.8053 40.338 46.8053 41.5208L46.793 43.0904L42.524 44.8097C41.2201 43.2454 39.1705 41.7821 35.9656 41.2769C35.9621 41.2769 35.9586 41.2769 35.9551 41.2769C36.9721 40.8466 37.94 40.1951 38.6734 39.4321C38.7171 39.3868 38.7609 39.3433 38.8064 39.298C38.8589 39.2457 38.9132 39.1917 38.9657 39.136C39.0077 39.1464 39.0497 39.1569 39.0917 39.1673C39.3035 39.2213 39.5223 39.2771 39.7498 39.305C39.8951 39.3224 40.0386 39.3311 40.1804 39.3311C40.8472 39.3311 41.4896 39.1464 42.0917 38.7789C42.2737 38.6726 42.3805 38.5228 42.419 38.3225C42.5048 37.9026 42.5941 37.3853 42.6798 36.8853C42.7708 36.3523 42.8654 35.8 42.9581 35.3645C42.9581 35.3593 42.9616 35.3471 42.9616 35.3419C42.9669 35.3088 42.9721 35.2774 42.9756 35.2565C43.0036 35.1207 42.9354 34.983 42.8111 34.9238C42.7551 34.8977 42.7008 34.8733 42.6466 34.8507C42.5555 34.8106 42.468 34.774 42.4015 34.7304C41.9692 34.4448 41.8957 33.6643 41.9044 33.3874C41.9079 33.3055 41.8764 33.2271 41.8187 33.1679C41.7609 33.1086 41.6839 33.0755 41.6016 33.0755C41.017 33.0755 38.0748 33.0755 35.1552 33.0738L35.6821 29.6107C38.6139 29.4661 41.1203 27.4523 41.8869 24.6494L41.8887 24.6477ZM36.1984 22.2193L35.7801 24.9682L35.2988 24.4892L36.1984 22.2176V22.2193ZM35.0572 25.1024L35.6681 25.7103L35.1937 28.8198L34.0403 27.6718L35.0572 25.1041V25.1024ZM33.797 28.2798L35.08 29.5567L34.5951 32.7376L32.7556 30.9067L33.797 28.2798ZM24.6411 22.735C25.5618 22.5904 26.2689 21.7943 26.2689 20.8379C26.2689 19.8816 25.5618 19.0855 24.6411 18.9409V14.2392C25.4095 14.727 26.9848 15.9411 27.5344 17.988C27.5344 17.995 27.5396 18.0002 27.5414 18.0054C27.5449 18.0159 27.5484 18.0263 27.5536 18.035C27.5571 18.0438 27.5624 18.0525 27.5677 18.0612C27.5729 18.0699 27.5782 18.0768 27.5834 18.0856C27.5904 18.0943 27.5957 18.1012 27.6027 18.1099C27.6079 18.1169 27.6149 18.1239 27.6202 18.1291C27.6272 18.1361 27.6359 18.143 27.6447 18.1483C27.6517 18.1535 27.6587 18.1587 27.6674 18.1639C27.6762 18.1692 27.6849 18.1744 27.6937 18.1779C27.7024 18.1814 27.7094 18.1866 27.7182 18.1901C27.7287 18.1936 27.7374 18.197 27.7479 18.1988C27.7567 18.2005 27.7654 18.204 27.7742 18.2058C27.7847 18.2075 27.7969 18.2092 27.8074 18.2092C27.8144 18.2092 27.8197 18.211 27.8267 18.211C27.9107 18.211 28.0682 18.2145 28.1365 18.2197C29.528 18.3329 30.6184 19.5105 30.6184 20.9024C30.6184 22.0208 29.8728 23.0381 28.7631 23.4353C28.6388 23.4788 28.5636 23.5955 28.5636 23.721V24.3098C28.5636 26.881 30.0811 28.6508 32.7328 29.3198L31.2468 33.0721C30.3349 33.0721 29.5963 33.0721 29.1709 33.0721V30.5496C29.1709 30.3824 29.0362 30.2483 28.8681 30.2483H26.1674C26.0466 30.2483 25.9364 30.3197 25.8891 30.4312C25.8418 30.5427 25.8646 30.6698 25.9486 30.7569L28.2485 33.1609C26.8605 33.41 25.6353 33.9849 24.6411 34.8524V22.7367V22.735ZM28.5653 30.8475V32.6157L26.8745 30.8475H28.5653ZM22.469 42.0382C22.469 37.3766 24.7392 34.2949 28.5653 33.7149V45.9681C27.6359 44.754 26.6977 42.9684 26.591 40.6289C26.584 40.4634 26.444 40.3345 26.2742 40.3415C26.1079 40.3484 25.9784 40.4895 25.9854 40.6568C26.1166 43.5572 27.4469 45.6546 28.5653 46.921V49.1316C25.3605 47.0238 24.7251 43.5067 24.6359 41.5574C24.6289 41.3919 24.4889 41.2612 24.3191 41.27C24.1528 41.2769 24.0233 41.418 24.0303 41.5853C24.1265 43.7175 24.8459 47.6196 28.5653 49.8441V51.6297C22.4585 49.0236 22.469 42.1131 22.469 42.0382ZM22.6703 57.6239L24.3681 54.7932L26.0659 57.6239H22.6703ZM52.1315 98.1622C52.1315 98.8886 51.5364 99.4809 50.8065 99.4809C50.0766 99.4809 49.4815 98.8886 49.4815 98.1622C49.4815 97.4358 50.0766 96.8435 50.8065 96.8435C51.5364 96.8435 52.1315 97.4358 52.1315 98.1622ZM76.0915 60.9825C76.5133 60.9825 76.7741 60.9825 76.9351 60.9825V73.2776C76.9351 78.9548 74.623 82.5921 68.9537 85.8375C67.1106 86.8932 65.0575 87.6022 63.0744 88.2885C58.8054 89.764 54.4034 91.2917 51.2616 96.2983C51.1163 96.2634 50.9658 96.2425 50.8083 96.2425C50.6507 96.2425 50.5055 96.2617 50.3637 96.2965C47.2201 91.283 42.8163 89.7553 38.5438 88.2781C36.559 87.5917 34.5076 86.8827 32.6646 85.827C27.0198 82.5974 24.4836 78.6099 24.6831 73.2689V60.9843C24.7549 60.9843 24.8512 60.9843 24.9982 60.9843H25.5268C26.885 60.9843 29.1622 60.392 29.1709 56.4289C29.1709 56.4219 29.1727 56.4132 29.1727 56.4063V43.6286H31.2503C31.2503 43.6286 31.2538 43.6286 31.2573 43.6286C35.6103 43.6286 36.7445 47.9035 37.0316 50.4521C37.0438 50.5671 37.0561 50.6785 37.0648 50.7848L37.0771 50.9137C37.0893 51.0426 37.1051 51.2673 37.1051 51.2673C37.5164 51.3562 37.4919 51.3614 37.7177 51.4154C39.629 49.3842 42.8461 48.7292 43.2102 48.6613C45.0375 48.3181 46.9593 48.5707 48.7674 49.3964C49.1262 49.5602 49.6846 49.865 49.8176 49.9504C49.8963 50.0009 50.0259 50.0793 50.1641 50.1612C50.2779 50.2291 50.4004 50.3023 50.4967 50.3615L51.1023 50.3563C51.1968 50.297 51.3158 50.2274 51.4261 50.1612C51.5644 50.0793 51.6939 50.0009 51.7727 49.9504C51.9057 49.865 52.4641 49.5602 52.8229 49.3964C53.3935 49.1351 53.9763 48.933 54.5627 48.7867C54.5732 48.7867 54.5837 48.7815 54.5942 48.7798C55.8561 48.4714 57.1391 48.4279 58.3783 48.6613C59.5808 48.8878 62.2745 49.7797 63.9023 51.5356C63.9023 51.5704 64.5272 51.1646 64.5272 51.1646C64.5324 51.0827 64.5394 51.0026 64.5482 50.9102L64.5604 50.7831C64.5709 50.6751 64.5814 50.5653 64.5937 50.4503C64.8825 47.9018 66.0149 43.6269 70.368 43.6269C70.3697 43.6269 70.3715 43.6269 70.375 43.6269H72.4456V51.8753C72.4456 51.8753 72.4438 52.5146 72.4456 52.5146V56.415C72.4508 60.3885 74.7297 60.9825 76.0897 60.9825H76.0915ZM73.0477 31.9676C73.0477 31.351 73.5518 30.8493 74.1714 30.8493C74.791 30.8493 75.2951 31.3475 75.2951 31.9589C75.2951 32.5704 74.791 33.0668 74.1714 33.0668H73.0547L73.0494 31.9676H73.0477ZM79.193 44.5972L79.1913 44.6268C79.1755 44.8655 79.158 45.1128 79.1335 45.3532C79.1283 45.395 79.123 45.4386 79.116 45.4821L78.8885 45.0362C78.8885 45.0362 78.885 45.0327 78.885 45.0292C78.8797 45.0188 78.8727 45.01 78.8675 45.0013C78.8622 44.9944 78.857 44.9857 78.8517 44.9787C78.8447 44.9717 78.8377 44.9648 78.8307 44.9578C78.8237 44.9508 78.8167 44.9438 78.8097 44.9386C78.8027 44.9317 78.794 44.9282 78.7852 44.9212C78.7765 44.916 78.7694 44.9107 78.7607 44.9055C78.7519 44.9003 78.7432 44.8986 78.7344 44.8933C78.7239 44.8898 78.7152 44.8846 78.7047 44.8829C78.7012 44.8829 78.6994 44.8811 78.6959 44.8794C78.6889 44.8777 78.6819 44.8777 78.6767 44.8759C78.6662 44.8742 78.6574 44.8724 78.6469 44.8707C78.6364 44.8689 78.6259 44.8707 78.6172 44.8707C78.6084 44.8707 78.5979 44.8707 78.5892 44.8707C78.5787 44.8707 78.5682 44.8742 78.5594 44.8759C78.5507 44.8777 78.5419 44.8794 78.5314 44.8829C78.5209 44.8864 78.5122 44.8898 78.5017 44.8951C78.4964 44.8968 78.4894 44.8986 78.4841 44.902C78.4824 44.902 78.4789 44.9055 78.4771 44.9073C78.4684 44.9125 78.4596 44.9177 78.4509 44.9229C78.4421 44.9282 78.4351 44.9334 78.4264 44.9404C78.4194 44.9456 78.4124 44.9526 78.4071 44.9595C78.4001 44.9665 78.3931 44.9735 78.3861 44.9822C78.3809 44.9891 78.3756 44.9978 78.3704 45.0048C78.3651 45.0135 78.3581 45.0222 78.3546 45.0309C78.3511 45.0379 78.3476 45.0466 78.3441 45.0553C78.3406 45.0658 78.3354 45.0762 78.3319 45.0867C78.3319 45.0884 78.3301 45.0919 78.3284 45.0937C77.8575 46.8513 77.3692 48.6683 75.8237 49.9486L75.8132 49.9573L75.6241 49.0951C75.5961 48.9661 75.4859 48.8703 75.3546 48.8599C75.2233 48.8494 75.099 48.9243 75.0483 49.0463C75.0063 49.1491 74.9643 49.264 74.9205 49.386C74.8418 49.6037 74.7525 49.8511 74.6335 50.0984C74.3674 50.6507 73.9701 51.2551 73.0547 51.6558V33.7096C74.8663 33.9918 79.2245 35.3558 79.2245 41.9093C79.2245 41.9128 79.2245 41.9145 79.2245 41.918C79.2245 42.1218 79.2245 42.3291 79.2263 42.5381C79.2298 43.2158 79.235 43.9161 79.193 44.5937V44.5972Z" fill="#F4F4F7"/>
<path d="M29.3354 62.2522H30.2509V67.4382H29.3354V62.2522Z" fill="#F4F4F7"/>
<path d="M31.2783 63.5257H32.1797V64.1267C32.4335 63.7643 32.7976 63.4456 33.4084 63.4456C34.2941 63.4456 34.8087 64.0378 34.8087 64.9419V67.4382H33.9073V65.2154C33.9073 64.6075 33.6027 64.2591 33.0654 64.2591C32.528 64.2591 32.1797 64.6214 32.1797 65.2294V67.4365H31.2783V63.5257Z" fill="#F4F4F7"/>
<path d="M35.8187 66.3565V64.2974H35.3198V63.5275H35.8187V62.4526H36.7201V63.5275H37.7773V64.2974H36.7201V66.2154C36.7201 66.5638 36.8986 66.7049 37.2032 66.7049C37.4044 66.7049 37.583 66.6613 37.7615 66.5707V67.3041C37.5375 67.4296 37.2924 67.5045 36.9494 67.5045C36.286 67.5045 35.8187 67.2153 35.8187 66.3565Z" fill="#F4F4F7"/>
<path d="M38.1045 65.4959V65.482C38.1045 64.3636 38.9009 63.4438 40.0246 63.4438C41.2743 63.4438 41.9079 64.4211 41.9079 65.5482C41.9079 65.6301 41.9009 65.7119 41.8939 65.8008H39.0059C39.1022 66.4384 39.5572 66.7937 40.1366 66.7937C40.5759 66.7937 40.8875 66.63 41.2008 66.3269L41.7294 66.7937C41.3566 67.2379 40.8437 67.5271 40.1208 67.5271C38.9814 67.5271 38.1045 66.7049 38.1045 65.4977V65.4959ZM41.0153 65.2085C40.9557 64.6302 40.6127 64.179 40.0176 64.179C39.4662 64.179 39.0794 64.6005 38.9971 65.2085H41.0135H41.0153Z" fill="#F4F4F7"/>
<path d="M42.5557 63.5257H43.4571V64.4071C43.7021 63.8218 44.1572 63.4211 44.8486 63.4508V64.3984H44.7961C44.0067 64.3984 43.4571 64.9088 43.4571 65.9471V67.4365H42.5557V63.5257Z" fill="#F4F4F7"/>
<path d="M45.3706 63.5257H46.272V64.1267C46.5258 63.7643 46.8899 63.4456 47.5007 63.4456C48.3864 63.4456 48.901 64.0378 48.901 64.9419V67.4382H47.9996V65.2154C47.9996 64.6075 47.695 64.2591 47.1577 64.2591C46.6203 64.2591 46.272 64.6214 46.272 65.2294V67.4365H45.3706V63.5257Z" fill="#F4F4F7"/>
<path d="M49.4639 66.3111V66.2972C49.4639 65.4523 50.1255 65.0377 51.0864 65.0377C51.5257 65.0377 51.839 65.1039 52.1436 65.2014V65.1056C52.1436 64.5499 51.8005 64.2538 51.1687 64.2538C50.7293 64.2538 50.402 64.3496 50.045 64.4977L49.8069 63.7939C50.2393 63.6005 50.6628 63.4751 51.2877 63.4751C51.8758 63.4751 52.3151 63.6301 52.5899 63.9123C52.8805 64.1945 53.0135 64.6091 53.0135 65.1196V67.4382H52.1348V66.9487C51.867 67.2675 51.4575 67.5183 50.8554 67.5183C50.1185 67.5183 49.4639 67.0967 49.4639 66.3111ZM52.1576 66.0306V65.7641C51.9266 65.6753 51.622 65.6091 51.2649 65.6091C50.6838 65.6091 50.3425 65.8529 50.3425 66.2606V66.2745C50.3425 66.6525 50.6768 66.8668 51.1092 66.8668C51.7043 66.8668 52.1593 66.5254 52.1593 66.0289L52.1576 66.0306Z" fill="#F4F4F7"/>
<path d="M53.9817 66.3565V64.2974H53.4829V63.5275H53.9817V62.4526H54.8832V63.5275H55.9403V64.2974H54.8832V66.2154C54.8832 66.5638 55.0617 66.7049 55.3662 66.7049C55.5675 66.7049 55.7461 66.6613 55.9246 66.5707V67.3041C55.7006 67.4296 55.4555 67.5045 55.1124 67.5045C54.4491 67.5045 53.9817 67.2153 53.9817 66.3565Z" fill="#F4F4F7"/>
<path d="M56.6094 62.0747H57.5773V62.9266H56.6094V62.0747ZM56.6461 63.5258H57.5475V67.4366H56.6461V63.5258Z" fill="#F4F4F7"/>
<path d="M58.2476 65.5046V65.4907C58.2476 64.3723 59.1402 63.4456 60.3462 63.4456C61.5521 63.4456 62.4378 64.3566 62.4378 65.475V65.4889C62.4378 66.6003 61.5451 67.5271 60.3322 67.5271C59.1192 67.5271 58.2476 66.616 58.2476 65.5046ZM61.5364 65.5046V65.4907C61.5364 64.8008 61.0376 64.2312 60.3304 64.2312C59.6233 64.2312 59.1472 64.7939 59.1472 65.475V65.4889C59.1472 66.1701 59.6461 66.7414 60.3462 66.7414C61.0463 66.7414 61.5364 66.1788 61.5364 65.5046Z" fill="#F4F4F7"/>
<path d="M63.0918 63.5257H63.9932V64.1267C64.247 63.7643 64.6111 63.4456 65.2219 63.4456C66.1076 63.4456 66.6222 64.0378 66.6222 64.9419V67.4382H65.7208V65.2154C65.7208 64.6075 65.4162 64.2591 64.8789 64.2591C64.3415 64.2591 63.9932 64.6214 63.9932 65.2294V67.4365H63.0918V63.5257Z" fill="#F4F4F7"/>
<path d="M67.186 66.3111V66.2972C67.186 65.4523 67.8494 65.0377 68.8086 65.0377C69.2479 65.0377 69.5595 65.1039 69.8658 65.2014V65.1056C69.8658 64.5499 69.5227 64.2538 68.8908 64.2538C68.4515 64.2538 68.1242 64.3496 67.7671 64.4977L67.5291 63.7939C67.9614 63.6005 68.385 63.4751 69.0099 63.4751C69.598 63.4751 70.0373 63.6301 70.3121 63.9123C70.6026 64.1945 70.7357 64.6091 70.7357 65.1196V67.4382H69.857V66.9487C69.5892 67.2675 69.1796 67.5183 68.5775 67.5183C67.8407 67.5183 67.186 67.0967 67.186 66.3111ZM69.8815 66.0306V65.7641C69.6505 65.6753 69.3459 65.6091 68.9889 65.6091C68.4078 65.6091 68.0664 65.8529 68.0664 66.2606V66.2745C68.0664 66.6525 68.4008 66.8668 68.8331 66.8668C69.4282 66.8668 69.8833 66.5254 69.8833 66.0289L69.8815 66.0306Z" fill="#F4F4F7"/>
<path d="M71.6079 62.0293H72.5093V67.4365H71.6079V62.0293Z" fill="#F4F4F7"/>
<path d="M30.2007 68.9556H32.2555C33.4755 68.9556 34.2351 69.6454 34.2351 70.6889V70.7028C34.2351 71.8665 33.297 72.4727 32.1505 72.4727H31.1161V74.1398H30.2007V68.9539V68.9556ZM32.1803 71.6522C32.8734 71.6522 33.304 71.2672 33.304 70.7255V70.7115C33.304 70.1036 32.8647 69.7848 32.1803 69.7848H31.1161V71.6522H32.1803Z" fill="#F4F4F7"/>
<path d="M34.8071 70.229H35.7085V71.1105C35.9536 70.5252 36.4087 70.1245 37.1 70.1541V71.1018H37.0475C36.2581 71.1018 35.7085 71.6122 35.7085 72.6504V74.1398H34.8071V70.229Z" fill="#F4F4F7"/>
<path d="M37.271 72.206V72.1921C37.271 71.0737 38.1637 70.147 39.3696 70.147C40.5756 70.147 41.4612 71.058 41.4612 72.1764V72.1903C41.4612 73.3017 40.5686 74.2285 39.3556 74.2285C38.1427 74.2285 37.271 73.3174 37.271 72.206ZM40.5598 72.206V72.1921C40.5598 71.5023 40.061 70.9326 39.3539 70.9326C38.6467 70.9326 38.1707 71.4953 38.1707 72.1764V72.1903C38.1707 72.8715 38.6695 73.4428 39.3696 73.4428C40.0697 73.4428 40.5598 72.8802 40.5598 72.206Z" fill="#F4F4F7"/>
<path d="M42.3177 70.9989H41.8188V70.2516H42.3177V69.9624C42.3177 69.5321 42.4297 69.2064 42.638 68.9991C42.8463 68.7918 43.1368 68.6873 43.5236 68.6873C43.837 68.6873 44.0522 68.7325 44.2535 68.7918V69.5478C44.075 69.4886 43.9192 69.452 43.7249 69.452C43.3819 69.452 43.2033 69.6366 43.2033 70.0443V70.2585H44.2448V70.9989H43.2173V74.1397H42.3159V70.9989H42.3177Z" fill="#F4F4F7"/>
<path d="M44.3652 72.1991V72.1851C44.3652 71.0667 45.1616 70.147 46.2853 70.147C47.535 70.147 48.1687 71.1242 48.1687 72.2513C48.1687 72.3332 48.1617 72.4151 48.1547 72.5039H45.2666C45.3629 73.1415 45.818 73.4969 46.3973 73.4969C46.8367 73.4969 47.1482 73.3331 47.4615 73.03L47.9901 73.4969C47.6173 73.9411 47.1045 74.2302 46.3816 74.2302C45.2421 74.2302 44.3652 73.408 44.3652 72.2008V72.1991ZM47.2743 71.9099C47.2147 71.3315 46.8717 70.8804 46.2766 70.8804C45.7252 70.8804 45.3384 71.3019 45.2561 71.9099H47.2725H47.2743Z" fill="#F4F4F7"/>
<path d="M48.4959 73.6294L48.8985 73.0215C49.3308 73.3403 49.7841 73.5023 50.1867 73.5023C50.5893 73.5023 50.7975 73.3385 50.7975 73.0807V73.0668C50.7975 72.7637 50.381 72.6591 49.9189 72.518C49.3378 72.3543 48.6902 72.1174 48.6902 71.3701V71.3561C48.6902 70.6158 49.308 70.1628 50.0887 70.1628C50.5805 70.1628 51.1161 70.3336 51.5327 70.6071L51.1756 71.2446C50.7958 71.0147 50.3932 70.8736 50.0659 70.8736C49.7159 70.8736 49.5146 71.0373 49.5146 71.2586V71.2725C49.5146 71.5617 49.9381 71.6801 50.4002 71.8282C50.9726 72.0059 51.6202 72.2654 51.6202 72.9692V72.9832C51.6202 73.8054 50.9796 74.213 50.1622 74.213C49.6038 74.213 48.986 74.0127 48.4941 73.6277L48.4959 73.6294Z" fill="#F4F4F7"/>
<path d="M51.8899 73.6294L52.2925 73.0215C52.7248 73.3403 53.1782 73.5023 53.5807 73.5023C53.9833 73.5023 54.1916 73.3385 54.1916 73.0807V73.0668C54.1916 72.7637 53.775 72.6591 53.3129 72.518C52.7318 72.3543 52.0842 72.1174 52.0842 71.3701V71.3561C52.0842 70.6158 52.7021 70.1628 53.4827 70.1628C53.9746 70.1628 54.5101 70.3336 54.9267 70.6071L54.5697 71.2446C54.1898 71.0147 53.7873 70.8736 53.46 70.8736C53.1099 70.8736 52.9086 71.0373 52.9086 71.2586V71.2725C52.9086 71.5617 53.3322 71.6801 53.7943 71.8282C54.3666 72.0059 55.0142 72.2654 55.0142 72.9692V72.9832C55.0142 73.8054 54.3736 74.213 53.5562 74.213C52.9979 74.213 52.38 74.0127 51.8882 73.6277L51.8899 73.6294Z" fill="#F4F4F7"/>
<path d="M55.6934 68.7778H56.6613V69.6297H55.6934V68.7778ZM55.7301 70.2289H56.6315V74.1397H55.7301V70.2289Z" fill="#F4F4F7"/>
<path d="M57.3315 72.206V72.1921C57.3315 71.0737 58.2242 70.147 59.4302 70.147C60.6361 70.147 61.5218 71.058 61.5218 72.1764V72.1903C61.5218 73.3017 60.6291 74.2285 59.4162 74.2285C58.2032 74.2285 57.3315 73.3174 57.3315 72.206ZM60.6204 72.206V72.1921C60.6204 71.5023 60.1215 70.9326 59.4144 70.9326C58.7073 70.9326 58.2312 71.4953 58.2312 72.1764V72.1903C58.2312 72.8715 58.73 73.4428 59.4302 73.4428C60.1303 73.4428 60.6204 72.8802 60.6204 72.206Z" fill="#F4F4F7"/>
<path d="M62.1772 70.2288H63.0787V70.8298C63.3324 70.4675 63.6965 70.1487 64.3074 70.1487C65.193 70.1487 65.7076 70.741 65.7076 71.6451V74.1414H64.8062V71.9186C64.8062 71.3106 64.5017 70.9622 63.9643 70.9622C63.427 70.9622 63.0787 71.3245 63.0787 71.9325V74.1396H62.1772V70.2288Z" fill="#F4F4F7"/>
<path d="M66.2705 73.0145V73.0005C66.2705 72.1556 66.9339 71.741 67.893 71.741C68.3324 71.741 68.6439 71.8072 68.9502 71.9048V71.809C68.9502 71.2533 68.6072 70.9571 67.9753 70.9571C67.536 70.9571 67.2087 71.053 66.8516 71.201L66.6136 70.4973C67.0459 70.3039 67.4695 70.1785 68.0943 70.1785C68.6824 70.1785 69.1218 70.3335 69.3966 70.6157C69.6871 70.8979 69.8201 71.3125 69.8201 71.8229V74.1415H68.9415V73.652C68.6737 73.9708 68.2641 74.2217 67.662 74.2217C66.9251 74.2217 66.2705 73.8001 66.2705 73.0145ZM68.966 72.7323V72.4657C68.7349 72.3769 68.4304 72.3107 68.0733 72.3107C67.4922 72.3107 67.1509 72.5546 67.1509 72.9622V72.9761C67.1509 73.3541 67.4852 73.5684 67.9175 73.5684C68.5127 73.5684 68.9677 73.227 68.9677 72.7305L68.966 72.7323Z" fill="#F4F4F7"/>
<path d="M70.6919 68.7324H71.5933V74.1396H70.6919V68.7324Z" fill="#F4F4F7"/>
<path d="M38.395 75.657H40.4499C41.6698 75.657 42.4295 76.3468 42.4295 77.3903V77.4042C42.4295 78.5679 41.4913 79.1741 40.3449 79.1741H39.3104V80.8412H38.395V75.6553V75.657ZM40.3746 78.3536C41.0677 78.3536 41.4983 77.9687 41.4983 77.4269V77.413C41.4983 76.805 41.059 76.4862 40.3746 76.4862H39.3104V78.3536H40.3746Z" fill="#F4F4F7"/>
<path d="M42.6675 79.7176V79.7036C42.6675 78.8588 43.3291 78.4442 44.29 78.4442C44.7293 78.4442 45.0426 78.5104 45.3472 78.6079V78.5121C45.3472 77.9564 45.0041 77.6603 44.3723 77.6603C43.933 77.6603 43.6056 77.7561 43.2486 77.9042L43.0105 77.2004C43.4429 77.007 43.8664 76.8816 44.4913 76.8816C45.0794 76.8816 45.5187 77.0366 45.7935 77.3188C46.0841 77.601 46.2171 78.0156 46.2171 78.526V80.8447H45.3385V80.3552C45.0707 80.6739 44.6611 80.9248 44.059 80.9248C43.3221 80.9248 42.6675 80.5032 42.6675 79.7176ZM45.3612 79.4354V79.1688C45.1302 79.08 44.8256 79.0138 44.4686 79.0138C43.8874 79.0138 43.5461 79.2577 43.5461 79.6653V79.6793C43.5461 80.0573 43.8804 80.2715 44.3128 80.2715C44.9079 80.2715 45.363 79.9301 45.363 79.4336L45.3612 79.4354Z" fill="#F4F4F7"/>
<path d="M47.0356 76.9322H47.9371V77.8136C48.1821 77.2283 48.6372 76.8276 49.3285 76.8573V77.8049H49.276C48.4866 77.8049 47.9371 78.3153 47.9371 79.3535V80.843H47.0356V76.9322Z" fill="#F4F4F7"/>
<path d="M50.2972 79.7613V77.7022H49.7983V76.9322H50.2972V75.8574H51.1986V76.9322H52.2558V77.7022H51.1986V79.6202C51.1986 79.9686 51.3771 80.1097 51.6817 80.1097C51.883 80.1097 52.0615 80.0661 52.24 79.9755V80.7089C52.016 80.8343 51.7709 80.9092 51.4279 80.9092C50.7645 80.9092 50.2972 80.6201 50.2972 79.7613Z" fill="#F4F4F7"/>
<path d="M52.9102 76.9322H53.8116V77.5332C54.0654 77.1708 54.4294 76.8521 55.0403 76.8521C55.9259 76.8521 56.4405 77.4443 56.4405 78.3484V80.8447H55.5391V78.6219C55.5391 78.014 55.2346 77.6656 54.6972 77.6656C54.1599 77.6656 53.8116 78.0279 53.8116 78.6359V80.843H52.9102V76.9322Z" fill="#F4F4F7"/>
<path d="M57.0479 78.9024V78.8885C57.0479 77.7701 57.8442 76.8503 58.9679 76.8503C60.2177 76.8503 60.8513 77.8276 60.8513 78.9547C60.8513 79.0366 60.8443 79.1184 60.8373 79.2073H57.9493C58.0455 79.8449 58.5006 80.2002 59.08 80.2002C59.5193 80.2002 59.8308 80.0365 60.1441 79.7334L60.6727 80.2002C60.2999 80.6444 59.7871 80.9336 59.0642 80.9336C57.9248 80.9336 57.0479 80.1114 57.0479 78.9042V78.9024ZM59.9586 78.6133C59.8991 78.0349 59.556 77.5837 58.9609 77.5837C58.4096 77.5837 58.0228 78.0053 57.9405 78.6133H59.9569H59.9586Z" fill="#F4F4F7"/>
<path d="M61.499 76.9322H62.4004V77.8136C62.6455 77.2283 63.1006 76.8276 63.7919 76.8573V77.8049H63.7394C62.95 77.8049 62.4004 78.3153 62.4004 79.3535V80.843H61.499V76.9322Z" fill="#F4F4F7"/>
<path d="M43.3486 82.3604H47.2273V83.1896H44.264V84.6041H46.8913V85.4333H44.264V87.5446H43.3486V82.3586V82.3604Z" fill="#F4F4F7"/>
<path d="M47.8823 82.1826H48.8502V83.0345H47.8823V82.1826ZM47.9191 83.6355H48.8205V87.5463H47.9191V83.6355Z" fill="#F4F4F7"/>
<path d="M49.7358 83.6355H50.6372V84.517C50.8823 83.9317 51.3374 83.531 52.0287 83.5606V84.5083H51.9762C51.1868 84.5083 50.6372 85.0187 50.6372 86.0569V87.5463H49.7358V83.6355Z" fill="#F4F4F7"/>
<path d="M52.5486 83.6353H53.45V84.2276C53.7038 83.8792 54.0451 83.5535 54.649 83.5535C55.2143 83.5535 55.6169 83.827 55.8252 84.2433C56.1385 83.8287 56.5551 83.5535 57.1502 83.5535C58.0061 83.5535 58.5277 84.0935 58.5277 85.0499V87.5461H57.6263V85.3233C57.6263 84.7015 57.3357 84.367 56.8299 84.367C56.324 84.367 55.988 84.7084 55.988 85.3373V87.5444H55.0866V85.3146C55.0866 84.7067 54.789 84.367 54.2902 84.367C53.7913 84.367 53.4483 84.738 53.4483 85.3373V87.5444H52.5469V83.6336L52.5486 83.6353Z" fill="#F4F4F7"/>
<path d="M30.4305 53.8122V53.8034C30.4305 52.9307 31.0868 52.2078 31.9987 52.2078C32.5606 52.2078 32.8984 52.4064 33.2082 52.6973L32.9684 52.9533C32.7076 52.706 32.4153 52.53 31.9935 52.53C31.3074 52.53 30.7928 53.0857 30.7928 53.7965V53.8052C30.7928 54.5194 31.3109 55.0803 31.9935 55.0803C32.4188 55.0803 32.6971 54.9166 32.9947 54.6344L33.2257 54.8591C32.9019 55.1849 32.5483 55.4009 31.9847 55.4009C31.0903 55.4009 30.4287 54.7006 30.4287 53.8139L30.4305 53.8122Z" fill="#F4F4F7"/>
<path d="M33.625 52.1277H33.9663V53.4638C34.1168 53.2165 34.3566 53.0179 34.7504 53.0179C35.3035 53.0179 35.6274 53.3889 35.6274 53.9307V55.3469H35.286V54.0143C35.286 53.591 35.055 53.3262 34.6524 53.3262C34.2499 53.3262 33.9663 53.6137 33.9663 54.0404V55.3452H33.625V52.126V52.1277Z" fill="#F4F4F7"/>
<path d="M36.0264 54.6851V54.6764C36.0264 54.1956 36.4254 53.9395 37.0048 53.9395C37.2971 53.9395 37.5054 53.9796 37.7084 54.0371V53.9569C37.7084 53.5476 37.4564 53.335 37.0258 53.335C36.7562 53.335 36.5427 53.4064 36.3309 53.5023L36.2294 53.2253C36.4814 53.1103 36.73 53.0354 37.0626 53.0354C37.3951 53.0354 37.6349 53.119 37.8029 53.2863C37.9587 53.4413 38.0375 53.6608 38.0375 53.9517V55.3453H37.7102V55.0021C37.5509 55.2094 37.2848 55.3941 36.8823 55.3941C36.4569 55.3941 36.0264 55.1519 36.0264 54.6833V54.6851ZM37.7154 54.5091V54.2879C37.5474 54.2391 37.3216 54.1904 37.0415 54.1904C36.611 54.1904 36.3729 54.375 36.3729 54.6624V54.6711C36.3729 54.9586 36.639 55.1258 36.9488 55.1258C37.3689 55.1258 37.7154 54.8697 37.7154 54.5091Z" fill="#F4F4F7"/>
<path d="M38.6089 53.0667H38.9502V53.6625C39.1182 53.2827 39.4508 53.0092 39.8849 53.0267V53.3925H39.8586C39.358 53.3925 38.9502 53.7496 38.9502 54.4377V55.3453H38.6089V53.065V53.0667Z" fill="#F4F4F7"/>
<path d="M40.3693 54.7426V53.3664H40.0508V53.0668H40.3693V52.3787H40.7106V53.0668H41.437V53.3664H40.7106V54.699C40.7106 54.976 40.8664 55.0788 41.0957 55.0788C41.2112 55.0788 41.3075 55.0561 41.4283 54.9986V55.2896C41.3093 55.3505 41.1797 55.3871 41.017 55.3871C40.6494 55.3871 40.3693 55.2059 40.3693 54.7426Z" fill="#F4F4F7"/>
<path d="M41.6763 54.2128V54.2041C41.6763 53.5474 42.1419 53.0178 42.7755 53.0178C43.4528 53.0178 43.8432 53.5561 43.8432 54.2216C43.8432 54.2651 43.8432 54.2912 43.8379 54.3313H42.0211C42.0701 54.8243 42.4201 55.103 42.828 55.103C43.143 55.103 43.3636 54.9758 43.5509 54.7807L43.7644 54.9706C43.5333 55.2267 43.255 55.3992 42.821 55.3992C42.1926 55.3992 41.678 54.9184 41.678 54.2128H41.6763ZM43.4966 54.0804C43.4616 53.6659 43.2218 53.3035 42.765 53.3035C42.3659 53.3035 42.0648 53.6345 42.0211 54.0804H43.4966Z" fill="#F4F4F7"/>
<path d="M44.2861 53.0667H44.6274V53.6625C44.7955 53.2827 45.128 53.0092 45.5621 53.0267V53.3925H45.5359C45.0353 53.3925 44.6274 53.7496 44.6274 54.4377V55.3453H44.2861V53.065V53.0667Z" fill="#F4F4F7"/>
<path d="M45.686 54.2128V54.2041C45.686 53.5474 46.1516 53.0178 46.7852 53.0178C47.4626 53.0178 47.8529 53.5561 47.8529 54.2216C47.8529 54.2651 47.8529 54.2912 47.8477 54.3313H46.0308C46.0799 54.8243 46.4299 55.103 46.8377 55.103C47.1528 55.103 47.3733 54.9758 47.5606 54.7807L47.7742 54.9706C47.5431 55.2267 47.2648 55.3992 46.8307 55.3992C46.2024 55.3992 45.6878 54.9184 45.6878 54.2128H45.686ZM47.5064 54.0804C47.4713 53.6659 47.2316 53.3035 46.7747 53.3035C46.3757 53.3035 46.0746 53.6345 46.0308 54.0804H47.5064Z" fill="#F4F4F7"/>
<path d="M48.1631 54.2129V54.2042C48.1631 53.4586 48.7074 53.0179 49.257 53.0179C49.6824 53.0179 49.9572 53.2478 50.1339 53.5022V52.126H50.4752V55.3452H50.1339V54.8871C49.9484 55.1606 49.6771 55.394 49.257 55.394C48.7074 55.394 48.1631 54.962 48.1631 54.2129ZM50.1479 54.2094V54.2007C50.1479 53.6764 49.7454 53.3227 49.32 53.3227C48.8947 53.3227 48.5131 53.6485 48.5131 54.2007V54.2094C48.5131 54.7477 48.8895 55.0909 49.32 55.0909C49.7506 55.0909 50.1479 54.7338 50.1479 54.2094Z" fill="#F4F4F7"/>
<path d="M52.0571 52.26H52.4072V55.3468H52.0571V52.26Z" fill="#F4F4F7"/>
<path d="M53.1021 53.0666H53.4434V53.4638C53.5939 53.2164 53.8337 53.0178 54.2275 53.0178C54.7806 53.0178 55.1044 53.3889 55.1044 53.9306V55.3469H54.7631V54.0143C54.7631 53.5909 54.5321 53.3262 54.1295 53.3262C53.7269 53.3262 53.4434 53.6136 53.4434 54.0404V55.3451H53.1021V53.0649V53.0666Z" fill="#F4F4F7"/>
<path d="M55.4863 55.0561L55.6596 54.8139C55.9082 54.9986 56.1829 55.1048 56.4525 55.1048C56.722 55.1048 56.9268 54.9637 56.9268 54.7425V54.7338C56.9268 54.5038 56.6573 54.4167 56.3545 54.3331C55.9957 54.2321 55.5966 54.1084 55.5966 53.6886V53.6799C55.5966 53.2879 55.9239 53.0266 56.3772 53.0266C56.6555 53.0266 56.9671 53.1242 57.2016 53.2775L57.0459 53.5335C56.8341 53.3977 56.589 53.3123 56.3685 53.3123C56.0989 53.3123 55.9257 53.4534 55.9257 53.6433V53.652C55.9257 53.868 56.2092 53.9516 56.5155 54.0439C56.8708 54.1502 57.2506 54.2861 57.2506 54.6972V54.7059C57.2506 55.1379 56.8918 55.3888 56.435 55.3888C56.1077 55.3888 55.7436 55.2616 55.4863 55.0543V55.0561Z" fill="#F4F4F7"/>
<path d="M57.6929 54.4829V53.0667H58.0342V54.3993C58.0342 54.8226 58.2652 55.0874 58.6678 55.0874C59.0704 55.0874 59.3539 54.7999 59.3539 54.3732V53.0684H59.69V55.3487H59.3539V54.9515C59.1981 55.1989 58.9636 55.3975 58.5698 55.3975C58.0167 55.3975 57.6929 55.0264 57.6929 54.4846V54.4829Z" fill="#F4F4F7"/>
<path d="M60.3022 53.0667H60.6436V53.6625C60.8116 53.2827 61.1441 53.0092 61.5782 53.0267V53.3925H61.552C61.0514 53.3925 60.6436 53.7496 60.6436 54.4377V55.3453H60.3022V53.065V53.0667Z" fill="#F4F4F7"/>
<path d="M61.6577 54.6851V54.6764C61.6577 54.1956 62.0568 53.9395 62.6361 53.9395C62.9284 53.9395 63.1367 53.9796 63.3398 54.0371V53.9569C63.3398 53.5476 63.0877 53.335 62.6571 53.335C62.3876 53.335 62.1741 53.4064 61.9623 53.5023L61.8608 53.2253C62.1128 53.1103 62.3613 53.0354 62.6939 53.0354C63.0265 53.0354 63.2662 53.119 63.4343 53.2863C63.5901 53.4413 63.6688 53.6608 63.6688 53.9517V55.3453H63.3415V55.0021C63.1822 55.2094 62.9162 55.3941 62.5136 55.3941C62.0883 55.3941 61.6577 55.1519 61.6577 54.6833V54.6851ZM63.3468 54.5091V54.2879C63.1787 54.2391 62.9529 54.1904 62.6729 54.1904C62.2423 54.1904 62.0043 54.375 62.0043 54.6624V54.6711C62.0043 54.9586 62.2703 55.1258 62.5801 55.1258C63.0002 55.1258 63.3468 54.8697 63.3468 54.5091Z" fill="#F4F4F7"/>
<path d="M64.2417 53.0666H64.583V53.4638C64.7335 53.2164 64.9733 53.0178 65.3671 53.0178C65.922 53.0178 66.2441 53.3889 66.2441 53.9306V55.3469H65.9027V54.0143C65.9027 53.5909 65.6717 53.3262 65.2691 53.3262C64.8666 53.3262 64.583 53.6136 64.583 54.0404V55.3451H64.2417V53.0649V53.0666Z" fill="#F4F4F7"/>
<path d="M66.6743 54.218V54.2093C66.6743 53.5648 67.1802 53.0195 67.8488 53.0195C68.2828 53.0195 68.5542 53.2007 68.7659 53.4254L68.5401 53.6641C68.3581 53.4742 68.1551 53.3209 67.8453 53.3209C67.3797 53.3209 67.0261 53.7129 67.0261 54.2024V54.2111C67.0261 54.7058 67.3902 55.0977 67.868 55.0977C68.1603 55.0977 68.3861 54.9514 68.5682 54.7581L68.7852 54.9601C68.5541 55.2162 68.2794 55.4009 67.8505 55.4009C67.1819 55.4009 66.6761 54.8591 66.6761 54.2198L66.6743 54.218Z" fill="#F4F4F7"/>
<path d="M68.9829 54.2128V54.2041C68.9829 53.5474 69.4485 53.0178 70.0821 53.0178C70.7595 53.0178 71.1498 53.5561 71.1498 54.2216C71.1498 54.2651 71.1498 54.2912 71.1445 54.3313H69.3277C69.3767 54.8243 69.7268 55.103 70.1346 55.103C70.4497 55.103 70.6702 54.9758 70.8575 54.7807L71.0693 54.9706C70.8382 55.2267 70.5599 55.3992 70.1259 55.3992C69.4975 55.3992 68.9829 54.9184 68.9829 54.2128ZM70.8032 54.0804C70.7682 53.6659 70.5284 53.3035 70.0716 53.3035C69.6725 53.3035 69.3715 53.6345 69.3277 54.0804H70.8032Z" fill="#F4F4F7"/>
<path d="M42.8374 56.3171H43.1875V59.404H42.8374V56.3171Z" fill="#F4F4F7"/>
<path d="M43.8823 57.1237H44.2236V57.5209C44.3742 57.2735 44.614 57.075 45.0078 57.075C45.5609 57.075 45.8847 57.446 45.8847 57.9878V59.404H45.5434V58.0714C45.5434 57.6481 45.3123 57.3833 44.9098 57.3833C44.5072 57.3833 44.2236 57.6707 44.2236 58.0975V59.4023H43.8823V57.122V57.1237Z" fill="#F4F4F7"/>
<path d="M46.2656 59.1132L46.4389 58.871C46.6875 59.0557 46.9622 59.162 47.2318 59.162C47.5013 59.162 47.7061 59.0209 47.7061 58.7996V58.7909C47.7061 58.561 47.4366 58.4739 47.1338 58.3902C46.775 58.2892 46.3759 58.1655 46.3759 57.7457V57.737C46.3759 57.345 46.7032 57.0837 47.1565 57.0837C47.4348 57.0837 47.7464 57.1813 47.9809 57.3346L47.8252 57.5907C47.6134 57.4548 47.3683 57.3694 47.1478 57.3694C46.8782 57.3694 46.705 57.5105 46.705 57.7004V57.7091C46.705 57.9251 46.9885 58.0087 47.2948 58.1011C47.6501 58.2073 48.0299 58.3432 48.0299 58.7543V58.763C48.0299 59.1951 47.6711 59.4459 47.2143 59.4459C46.887 59.4459 46.5229 59.3187 46.2656 59.1114V59.1132Z" fill="#F4F4F7"/>
<path d="M48.5832 58.7997V57.4235H48.2646V57.1239H48.5832V56.4358H48.9245V57.1239H49.6509V57.4235H48.9245V58.7561C48.9245 59.0331 49.0803 59.1359 49.3096 59.1359C49.4251 59.1359 49.5214 59.1133 49.6421 59.0558V59.3467C49.5231 59.4077 49.3936 59.4442 49.2308 59.4442C48.8633 59.4442 48.5832 59.2631 48.5832 58.7997Z" fill="#F4F4F7"/>
<path d="M50.1069 56.251H50.4973V56.6255H50.1069V56.251ZM50.1297 57.1237H50.471V59.404H50.1297V57.1237Z" fill="#F4F4F7"/>
<path d="M51.2272 58.7997V57.4235H50.9087V57.1239H51.2272V56.4358H51.5686V57.1239H52.2949V57.4235H51.5686V58.7561C51.5686 59.0331 51.7243 59.1359 51.9536 59.1359C52.0691 59.1359 52.1654 59.1133 52.2862 59.0558V59.3467C52.1672 59.4077 52.0376 59.4442 51.8749 59.4442C51.5073 59.4442 51.2272 59.2631 51.2272 58.7997Z" fill="#F4F4F7"/>
<path d="M52.7085 58.54V57.1238H53.0498V58.4564C53.0498 58.8797 53.2808 59.1445 53.6834 59.1445C54.086 59.1445 54.3695 58.8571 54.3695 58.4303V57.1255H54.7056V59.4058H54.3695V59.0086C54.2138 59.256 53.9792 59.4546 53.5854 59.4546C53.0323 59.4546 52.7085 59.0835 52.7085 58.5418V58.54Z" fill="#F4F4F7"/>
<path d="M55.4372 58.7997V57.4235H55.1187V57.1239H55.4372V56.4358H55.7785V57.1239H56.5049V57.4235H55.7785V58.7561C55.7785 59.0331 55.9343 59.1359 56.1636 59.1359C56.2791 59.1359 56.3754 59.1133 56.4961 59.0558V59.3467C56.3771 59.4077 56.2476 59.4442 56.0848 59.4442C55.7173 59.4442 55.4372 59.2631 55.4372 58.7997Z" fill="#F4F4F7"/>
<path d="M56.7441 58.27V58.2613C56.7441 57.6045 57.2097 57.075 57.8433 57.075C58.5207 57.075 58.911 57.6132 58.911 58.2787C58.911 58.3222 58.911 58.3484 58.9058 58.3884H57.0889C57.138 58.8814 57.488 59.1601 57.8958 59.1601C58.2109 59.1601 58.4314 59.033 58.6187 58.8379L58.8323 59.0277C58.6012 59.2838 58.3229 59.4563 57.8888 59.4563C57.2605 59.4563 56.7459 58.9755 56.7459 58.27H56.7441ZM58.5645 58.1376C58.5295 57.723 58.2897 57.3606 57.8328 57.3606C57.4338 57.3606 57.1327 57.6916 57.0889 58.1376H58.5645Z" fill="#F4F4F7"/>
</g>
<defs>
<clipPath id="clip0_1340_7335">
<rect width="58" height="100" fill="white" transform="translate(21.8335 0.0834961)"/>
</clipPath>
</defs>
</svg>
