<svg width="477" height="477" viewBox="0 0 477 477" fill="none" xmlns="http://www.w3.org/2000/svg">
<path d="M320.219 320.219C344.963 295.475 385.077 295.475 409.82 320.219L438.493 291.546C397.906 250.974 332.117 250.974 291.546 291.546M320.219 320.219C295.475 344.963 295.475 385.077 320.219 409.821L291.546 438.494C250.974 397.922 250.974 332.133 291.546 291.546M320.219 320.219L394.229 394.23M291.546 291.546L247.455 247.455M3 146.208C3 225.299 67.1163 289.416 146.208 289.416C225.299 289.416 289.415 225.299 289.415 146.208C289.415 67.1163 225.299 3 146.208 3C67.1163 3 3 67.1163 3 146.208ZM58.894 146.208C58.894 194.433 97.9822 233.521 146.207 233.521C194.432 233.521 233.521 194.433 233.521 146.208C233.521 97.9827 194.432 58.8944 146.207 58.8944C97.9822 58.8944 58.894 97.9827 58.894 146.208ZM380.548 427.274C380.548 453.075 401.473 474 427.274 474C453.075 474 474 453.075 474 427.274C474 401.473 453.075 380.548 427.274 380.548C401.473 380.548 380.548 401.473 380.548 427.274Z" stroke="url(#paint0_linear_1340_7225)" stroke-width="5" stroke-miterlimit="10"/>
<defs>
<linearGradient id="paint0_linear_1340_7225" x1="-40.9372" y1="-40.9375" x2="473.762" y2="473.761" gradientUnits="userSpaceOnUse">
<stop stop-color="#423181"/>
<stop offset="1" stop-color="#423181" stop-opacity="0"/>
</linearGradient>
</defs>
</svg>
