<svg width="24" height="25" viewBox="0 0 24 25" fill="none" xmlns="http://www.w3.org/2000/svg">
<path d="M24 15.212V24.5H18.8532V15.836C18.8532 13.6616 18.1101 12.1736 16.2477 12.1736C14.8257 12.1736 13.9817 13.172 13.6101 14.1416C13.4725 14.4872 13.4404 14.9672 13.4404 15.452V24.4952H8.29358C8.29358 24.4952 8.36238 9.8216 8.29358 8.3H13.4404V10.5944C13.4404 10.5944 13.4174 10.628 13.4083 10.6472H13.4404V10.5944C14.1239 9.4952 15.344 7.9208 18.078 7.9208C21.4633 7.9208 24 10.2344 24 15.2072V15.212ZM2.91284 0.5C1.15138 0.5 0 1.7096 0 3.2984C0 4.8872 1.11927 6.0968 2.84404 6.0968H2.87615C4.66972 6.0968 5.7844 4.8536 5.7844 3.2984C5.75229 1.7096 4.66972 0.5 2.90826 0.5H2.91284ZM0.307339 24.5H5.44954V8.3048H0.307339V24.5Z" fill="#273C92"/>
</svg>
