<svg width="464" height="260" viewBox="0 0 464 260" fill="none" xmlns="http://www.w3.org/2000/svg">
<path d="M311.544 167.544C335.629 143.459 374.676 143.459 398.761 167.544L426.671 139.634C387.164 100.143 323.126 100.143 283.634 139.634M311.544 167.544C287.459 191.629 287.459 230.676 311.544 254.761L283.634 282.671C244.142 243.179 244.142 179.141 283.634 139.634M311.544 167.544L383.585 239.585M283.634 139.634L240.717 96.7171M2.76807 -1.83566C2.76807 75.1508 65.1779 137.561 142.164 137.561C219.151 137.561 281.561 75.1508 281.561 -1.83566C281.561 -78.8221 219.151 -141.232 142.164 -141.232C65.1779 -141.232 2.76807 -78.8221 2.76807 -1.83566ZM57.1744 -1.83566C57.1744 45.1059 95.2223 83.1538 142.164 83.1538C189.105 83.1538 227.153 45.1059 227.153 -1.83566C227.153 -48.7773 189.105 -86.8252 142.164 -86.8252C95.2223 -86.8252 57.1744 -48.7773 57.1744 -1.83566ZM370.268 271.75C370.268 296.864 390.636 317.232 415.75 317.232C440.864 317.232 461.232 296.864 461.232 271.75C461.232 246.635 440.864 226.267 415.75 226.267C390.636 226.267 370.268 246.635 370.268 271.75Z" stroke="url(#paint0_linear_1340_5177)" stroke-width="5" stroke-miterlimit="10"/>
<defs>
<linearGradient id="paint0_linear_1340_5177" x1="-39.9998" y1="-184" x2="461" y2="317" gradientUnits="userSpaceOnUse">
<stop stop-color="#423181"/>
<stop offset="1" stop-color="#423181" stop-opacity="0"/>
</linearGradient>
</defs>
</svg>
