<svg width="28" height="37" viewBox="0 0 28 37" fill="none" xmlns="http://www.w3.org/2000/svg">
<path d="M13.9938 0C6.27894 0 3.30821e-06 6.08923 0 13.568C-4.83507e-06 26.7274 13.206 36.7314 13.206 36.7314C13.6699 37.0895 14.3276 37.0895 14.7915 36.7314C14.7915 36.7314 28 26.7274 28 13.568C28 6.08923 21.7086 0 13.9938 0ZM13.9938 7.40313C17.4923 7.40313 20.3632 10.1765 20.3632 13.568C20.3632 16.9595 17.4923 19.7401 13.9938 19.7401C10.4952 19.7401 7.63431 16.9595 7.63433 13.568C7.63434 10.1765 10.4953 7.40313 13.9938 7.40313Z" fill="#F4F4F7"/>
</svg>
