<svg width="18" height="17" viewBox="0 0 18 17" fill="none" xmlns="http://www.w3.org/2000/svg">
<path d="M1.59923 6.83071C3.51909 11.0115 6.93041 14.3251 11.1652 16.1227L11.8452 16.4257C12.5983 16.761 13.4455 16.8198 14.2376 16.5917C15.0297 16.3636 15.7159 15.8632 16.1752 15.1787L17.0642 13.8547C17.2033 13.6471 17.2597 13.3949 17.2221 13.1478C17.1845 12.9007 17.0558 12.6766 16.8612 12.5197L13.8492 10.0897C13.7443 10.0051 13.6234 9.94264 13.4938 9.90597C13.3641 9.86929 13.2284 9.8592 13.0947 9.87629C12.9611 9.89338 12.8323 9.93731 12.716 10.0054C12.5998 10.0736 12.4985 10.1645 12.4182 10.2727L11.4862 11.5297C9.09384 10.3482 7.15736 8.41132 5.97623 6.01871L7.23223 5.08671C7.34048 5.00647 7.43139 4.90519 7.49952 4.78893C7.56764 4.67268 7.61156 4.54386 7.62866 4.41021C7.64575 4.27655 7.63565 4.14082 7.59898 4.01117C7.5623 3.88151 7.4998 3.76061 7.41523 3.65571L4.98523 0.643711C4.82833 0.449164 4.60427 0.320425 4.35717 0.282852C4.11008 0.245279 3.85787 0.301597 3.65023 0.440711L2.31723 1.33471C1.62863 1.79649 1.12632 2.48772 0.899786 3.28528C0.673248 4.08283 0.737195 4.9349 1.08023 5.68971L1.59923 6.83071Z" fill="#F4F4F7"/>
</svg>
