<svg width="464" height="464" viewBox="0 0 464 464" fill="none" xmlns="http://www.w3.org/2000/svg">
<path d="M311.776 311.776C335.861 287.691 374.908 287.691 398.993 311.776L426.903 283.866C387.396 244.374 323.358 244.374 283.866 283.866M311.776 311.776C287.691 335.861 287.691 374.908 311.776 398.993L283.866 426.903C244.374 387.411 244.374 323.373 283.866 283.866M311.776 311.776L383.817 383.817M283.866 283.866L240.949 240.949M3 142.396C3 219.383 65.4098 281.793 142.396 281.793C219.383 281.793 281.793 219.383 281.793 142.396C281.793 65.4098 219.383 3 142.396 3C65.4098 3 3 65.4098 3 142.396ZM57.4064 142.396C57.4064 189.338 95.4542 227.386 142.396 227.386C189.337 227.386 227.385 189.338 227.385 142.396C227.385 95.4547 189.337 57.4068 142.396 57.4068C95.4542 57.4068 57.4064 95.4547 57.4064 142.396ZM370.5 415.982C370.5 441.096 390.868 461.464 415.982 461.464C441.096 461.464 461.464 441.096 461.464 415.982C461.464 390.867 441.096 370.499 415.982 370.499C390.868 370.499 370.5 390.867 370.5 415.982Z" stroke="url(#paint0_linear_1340_6697)" stroke-width="5" stroke-miterlimit="10"/>
<defs>
<linearGradient id="paint0_linear_1340_6697" x1="-39.7678" y1="-39.7681" x2="461.232" y2="461.232" gradientUnits="userSpaceOnUse">
<stop stop-color="#423181"/>
<stop offset="1" stop-color="#423181" stop-opacity="0"/>
</linearGradient>
</defs>
</svg>
