<svg width="307" height="307" viewBox="0 0 307 307" fill="none" xmlns="http://www.w3.org/2000/svg">
<path d="M205.724 101.276C221.537 117.089 247.172 117.089 262.985 101.276L281.309 119.6C255.371 145.528 213.328 145.528 187.4 119.6M205.724 101.276C189.911 85.4631 189.911 59.8277 205.724 44.0148L187.4 25.6907C161.472 51.6187 161.472 93.662 187.4 119.6M205.724 101.276L253.021 53.9785M187.4 119.6L159.223 147.777M3 212.481C3 161.936 43.9745 120.962 94.5192 120.962C145.064 120.962 186.038 161.936 186.038 212.481C186.038 263.025 145.064 304 94.5192 304C43.9745 304 3 263.025 3 212.481ZM38.7199 212.481C38.7199 181.662 63.6998 156.682 94.5189 156.682C125.338 156.682 150.318 181.662 150.318 212.481C150.318 243.3 125.338 268.28 94.5189 268.28C63.6998 268.28 38.7199 243.3 38.7199 212.481ZM244.278 32.861C244.278 16.3724 257.65 2.99999 274.139 2.99999C290.628 2.99999 304 16.3724 304 32.861C304 49.3496 290.628 62.722 274.139 62.722C257.65 62.722 244.278 49.3496 244.278 32.861Z" stroke="url(#paint0_linear_1340_6698)" stroke-opacity="0.2" stroke-width="5" stroke-miterlimit="10"/>
<defs>
<linearGradient id="paint0_linear_1340_6698" x1="-2.75643" y1="309.757" x2="303.848" y2="3.15277" gradientUnits="userSpaceOnUse">
<stop stop-color="#423181" stop-opacity="0"/>
<stop offset="1" stop-color="#423181"/>
</linearGradient>
</defs>
</svg>
