<svg width="375" height="378" viewBox="0 0 375 378" fill="none" xmlns="http://www.w3.org/2000/svg">
<path d="M123.478 124.458C142.863 104.915 142.863 73.2325 123.478 53.6897L145.942 31.0434C177.727 63.0996 177.727 115.06 145.942 147.104M123.478 124.458C104.093 144.001 72.6658 144.001 53.2805 124.458L30.8169 147.104C62.6023 179.148 114.144 179.148 145.942 147.104M123.478 124.458L65.4952 66.0036M145.942 147.104L180.484 181.927M259.805 375C197.842 375 147.611 324.36 147.611 261.893C147.611 199.426 197.842 148.787 259.805 148.787C321.769 148.787 372 199.426 372 261.893C372 324.36 321.769 375 259.805 375ZM259.805 330.854C222.024 330.854 191.401 299.982 191.401 261.894C191.401 223.805 222.024 192.933 259.805 192.933C297.587 192.933 328.21 223.805 328.21 261.894C328.21 299.982 297.587 330.854 259.805 330.854ZM39.607 76.8092C19.3934 76.8092 2.99998 60.2825 2.99998 39.9046C2.99998 19.5267 19.3934 3.00002 39.607 3.00002C59.8206 3.00002 76.214 19.5267 76.214 39.9046C76.214 60.2825 59.8206 76.8092 39.607 76.8092Z" stroke="url(#paint0_linear_0_2649)" stroke-width="5" stroke-miterlimit="10"/>
<defs>
<linearGradient id="paint0_linear_0_2649" x1="349.842" y1="352.662" x2="0.380413" y2="6.018" gradientUnits="userSpaceOnUse">
<stop stop-color="#423181"/>
<stop offset="1" stop-color="#423181" stop-opacity="0"/>
</linearGradient>
</defs>
</svg>
