<svg width="26" height="19" viewBox="0 0 26 19" fill="none" xmlns="http://www.w3.org/2000/svg">
<g clip-path="url(#clip0_1340_7302)">
<path d="M25.4676 2.97216C25.1695 1.81105 24.2912 0.894385 23.1785 0.577718C21.145 -0.00561523 13.0053 -0.00561523 13.0053 -0.00561523C13.0053 -0.00561523 4.86568 -0.00561523 2.8321 0.555496C1.73546 0.872162 0.83579 1.81105 0.537674 2.97216C0 5.09438 0 9.49994 0 9.49994C0 9.49994 0 13.9277 0.537674 16.0277C0.83579 17.1888 1.71417 18.1055 2.8321 18.4222C4.88698 19.0055 13.0053 19.0055 13.0053 19.0055C13.0053 19.0055 21.145 19.0055 23.1785 18.4444C24.2912 18.1333 25.1695 17.2166 25.473 16.0555C26.0106 13.9333 26.0106 9.52772 26.0106 9.52772C26.0106 9.52772 26.0319 5.09994 25.473 2.97772L25.4676 2.97216ZM10.4075 13.5666V5.42772L17.1736 9.49438L10.4075 13.5611V13.5666Z" fill="#E41E26"/>
</g>
<defs>
<clipPath id="clip0_1340_7302">
<rect width="26" height="19" fill="white"/>
</clipPath>
</defs>
</svg>
