<svg width="240" height="70" viewBox="0 0 240 70" fill="none" xmlns="http://www.w3.org/2000/svg">
<g clip-path="url(#clip0_3013_27)">
<path d="M73.1435 19.6519C73.9185 19.6519 74.5467 19.0312 74.5467 18.2655C74.5467 17.4998 73.9185 16.879 73.1435 16.879C72.3685 16.879 71.7402 17.4998 71.7402 18.2655C71.7402 19.0312 72.3685 19.6519 73.1435 19.6519Z" fill="#F4F4F7"/>
<path d="M154.03 19.6519C154.805 19.6519 155.433 19.0312 155.433 18.2655C155.433 17.4998 154.805 16.879 154.03 16.879C153.255 16.879 152.627 17.4998 152.627 18.2655C152.627 19.0312 153.255 19.6519 154.03 19.6519Z" fill="#F4F4F7"/>
<path d="M145.904 22.3188H144.141V34.6649H145.904V22.3188Z" fill="#F4F4F7"/>
<path d="M145.888 28.8135L144.157 28.4759C144.562 26.4362 146.452 22.5765 150.698 22.5765V24.3186C146.848 24.3186 145.924 28.6297 145.886 28.8135H145.888Z" fill="#F4F4F7"/>
<path d="M69.4551 34.3853H67.425C62.3762 34.3853 58.2695 30.3278 58.2695 25.3395C58.2695 20.3511 62.3762 16.2937 67.425 16.2937H69.4551V18.0158H67.425C63.3386 18.0158 60.0125 21.302 60.0125 25.3395C60.0125 29.3769 63.3386 32.6632 67.425 32.6632H69.4551V34.3853Z" fill="#F4F4F7"/>
<path d="M74.0144 22.225H72.2715V34.4232H74.0144V22.225Z" fill="#F4F4F7"/>
<path d="M154.902 22.4668H153.159V34.665H154.902V22.4668Z" fill="#F4F4F7"/>
<path d="M83.5644 34.3852H81.506C79.2434 34.3852 77.4014 32.5652 77.4014 30.3298V18.5811H79.1443V30.3298C79.1443 31.6163 80.2038 32.6631 81.506 32.6631H83.5644V34.3852Z" fill="#F4F4F7"/>
<path d="M83.1646 22.0771H78.2734V23.7992H83.1646V22.0771Z" fill="#F4F4F7"/>
<path d="M91.1788 34.3852C88.2672 34.3852 85.8994 32.0459 85.8994 29.1691V22.225H87.6424V29.1691C87.6424 31.0969 89.2296 32.6652 91.1808 32.6652C93.132 32.6652 94.7193 31.0969 94.7193 29.1691V22.225H96.4622V29.1691C96.4622 32.0459 94.0925 34.3852 91.1828 34.3852H91.1788Z" fill="#F4F4F7"/>
<path d="M92.0506 33.5242H90.3076V40.0448H92.0506V33.5242Z" fill="#F4F4F7"/>
<path d="M168.689 34.6649H166.946V27.4171C166.946 25.5552 165.414 24.0409 163.529 24.0409C161.645 24.0409 160.112 25.5552 160.112 27.4171V34.6649H158.369V27.4171C158.369 24.6063 160.684 22.3188 163.529 22.3188C166.374 22.3188 168.689 24.6063 168.689 27.4171V34.6649Z" fill="#F4F4F7"/>
<path d="M177.88 34.6649C174.434 34.6649 171.632 31.896 171.632 28.4919C171.632 25.0877 174.434 22.3188 177.88 22.3188C180.076 22.3188 182.136 23.4795 183.258 25.3474L183.683 26.0546L176.143 30.2539L175.344 28.8535L181.37 25.4973C180.5 24.5124 179.224 23.925 177.882 23.925C175.334 23.925 173.26 25.9727 173.26 28.4919C173.26 31.011 175.332 33.0587 177.882 33.0587C180.068 33.0587 181.972 31.5264 182.409 29.4128L184.002 29.7345C183.41 32.5912 180.836 34.6649 177.882 34.6649H177.88Z" fill="#F4F4F7"/>
<path d="M105.038 54.7042H104.298C102.399 54.7042 100.856 53.178 100.856 51.3041C100.856 49.4302 102.401 47.9039 104.298 47.9039H105.038V48.737H104.298C102.864 48.737 101.7 49.8877 101.7 51.3041C101.7 52.7205 102.866 53.8712 104.298 53.8712H105.038V54.7042Z" fill="#F4F4F7"/>
<path d="M182.799 54.7042H181.77C179.232 54.7042 177.17 52.6645 177.17 50.1594C177.17 47.6542 179.234 45.6145 181.77 45.6145H182.799V46.4016H181.77C179.673 46.4016 177.967 48.0877 177.967 50.1594C177.967 52.231 179.673 53.9171 181.77 53.9171H182.799V54.7042Z" fill="#F4F4F7"/>
<path d="M88.9141 54.7042C87.0154 54.7042 85.4727 53.178 85.4727 51.3041C85.4727 49.4302 87.0174 47.9039 88.9141 47.9039C90.8107 47.9039 92.3555 49.4302 92.3555 51.3041V54.2887H91.5123V51.3041C91.5123 49.8877 90.3456 48.737 88.9141 48.737C87.4825 48.737 86.3158 49.8877 86.3158 51.3041C86.3158 52.7205 87.4825 53.8712 88.9141 53.8712C89.3751 53.8712 89.828 53.7493 90.2243 53.5216L90.6509 54.2408C90.1252 54.5444 89.5267 54.7042 88.9141 54.7042Z" fill="#F4F4F7"/>
<path d="M126.663 47.9039H125.789V54.7042H126.663V47.9039Z" fill="#F4F4F7"/>
<path d="M126.652 51.4719L125.795 51.3041C126.015 50.1934 127.042 48.0938 129.35 48.0938V48.9568C127.188 48.9568 126.67 51.368 126.65 51.4719H126.652Z" fill="#F4F4F7"/>
<path d="M152.544 47.9039H151.671V54.7042H152.544V47.9039Z" fill="#F4F4F7"/>
<path d="M152.536 51.4719L151.679 51.3041C151.899 50.1934 152.926 48.0938 155.233 48.0938V48.9568C153.072 48.9568 152.554 51.368 152.534 51.4719H152.536Z" fill="#F4F4F7"/>
<path d="M82.4379 47.9039H81.5645V54.7042H82.4379V47.9039Z" fill="#F4F4F7"/>
<path d="M82.4276 51.4719L81.5703 51.3041C81.7907 50.1934 82.8179 48.0938 85.1249 48.0938V48.9568C82.9635 48.9568 82.4478 51.368 82.4256 51.4719H82.4276Z" fill="#F4F4F7"/>
<path d="M66.8036 54.7042H65.9058V50.6928C65.9058 49.644 65.0424 48.7909 63.9809 48.7909C62.9193 48.7909 62.056 49.644 62.056 50.6928V54.7042H61.1582V50.6928C61.1582 49.1545 62.424 47.9039 63.9809 47.9039C65.5378 47.9039 66.8036 49.1545 66.8036 50.6928V54.7042Z" fill="#F4F4F7"/>
<path d="M99.3416 54.7042H98.4439V50.6928C98.4439 49.644 97.5805 48.7909 96.519 48.7909C95.4574 48.7909 94.594 49.644 94.594 50.6928V54.7042H93.6963V50.6928C93.6963 49.1545 94.962 47.9039 96.519 47.9039C98.0759 47.9039 99.3416 49.1545 99.3416 50.6928V54.7042Z" fill="#F4F4F7"/>
<path d="M77.3325 54.7042C75.8221 54.7042 74.5947 53.4916 74.5947 51.9993V47.9039H75.4662V51.9993C75.4662 53.0162 76.3033 53.8432 77.3325 53.8432C78.3617 53.8432 79.1988 53.0162 79.1988 51.9993V47.9039H80.0702V51.9993C80.0702 53.4916 78.8429 54.7042 77.3325 54.7042Z" fill="#F4F4F7"/>
<path d="M109.334 54.7042C107.435 54.7042 105.893 53.178 105.893 51.3041C105.893 49.4302 107.437 47.9039 109.334 47.9039C110.543 47.9039 111.679 48.5432 112.296 49.572L112.517 49.9376L108.353 52.257L107.939 51.5318L111.32 49.648C110.83 49.0766 110.102 48.737 109.334 48.737C107.9 48.737 106.736 49.8877 106.736 51.3041C106.736 52.7205 107.902 53.8712 109.334 53.8712C110.563 53.8712 111.633 53.0102 111.88 51.8215L112.707 51.9893C112.381 53.5635 110.962 54.7042 109.334 54.7042Z" fill="#F4F4F7"/>
<path d="M147.03 54.7042C145.132 54.7042 143.589 53.178 143.589 51.3041C143.589 49.4302 145.134 47.9039 147.03 47.9039C148.239 47.9039 149.376 48.5432 149.992 49.572L150.213 49.9376L146.05 52.257L145.635 51.5318L149.016 49.648C148.527 49.0766 147.799 48.737 147.03 48.737C145.597 48.737 144.432 49.8877 144.432 51.3041C144.432 52.7205 145.599 53.8712 147.03 53.8712C148.26 53.8712 149.329 53.0102 149.576 51.8215L150.403 51.9893C150.077 53.5635 148.658 54.7042 147.03 54.7042Z" fill="#F4F4F7"/>
<path d="M59.349 45.5686H58.4775V54.7043H59.349V45.5686Z" fill="#F4F4F7"/>
<path d="M159.823 54.7042H156.321V53.8232H159.823C159.999 53.8232 160.143 53.6814 160.143 53.5076V53.3697C160.143 52.8183 159.817 52.3089 159.312 52.0712L157.239 51.1003C156.477 50.7427 155.983 49.9736 155.983 49.1405C155.983 48.4573 156.546 47.8999 157.239 47.8999H160.589V48.7809H157.239C157.039 48.7809 156.877 48.9427 156.877 49.1385C156.877 49.6339 157.17 50.0894 157.621 50.3012L159.694 51.2721C160.509 51.6537 161.034 52.4747 161.034 53.3657V53.5036C161.034 54.1648 160.49 54.7002 159.823 54.7002V54.7042Z" fill="#F4F4F7"/>
<path d="M132.919 54.7042C131.02 54.7042 129.478 53.178 129.478 51.3041C129.478 49.4302 131.022 47.9039 132.919 47.9039C134.816 47.9039 136.36 49.4302 136.36 51.3041C136.36 53.178 134.816 54.7042 132.919 54.7042ZM132.919 48.737C131.485 48.737 130.321 49.8897 130.321 51.3041C130.321 52.7185 131.487 53.8712 132.919 53.8712C134.351 53.8712 135.517 52.7205 135.517 51.3041C135.517 49.8877 134.351 48.737 132.919 48.737Z" fill="#F4F4F7"/>
<path d="M138.592 45.6226H137.721V54.4785H138.592V45.6226Z" fill="#F4F4F7"/>
<path d="M142.8 54.7043H141.928V53.212C141.928 52.335 141.206 51.6218 140.319 51.6218H138.155V50.7607H140.319C141.686 50.7607 142.798 51.8595 142.798 53.21V54.7023L142.8 54.7043Z" fill="#F4F4F7"/>
<path d="M140.01 51.6238H137.996V50.7628H140.01C140.404 50.7628 140.762 50.565 140.97 50.2334L142.315 48.0858L143.055 48.5393L141.71 50.6869C141.342 51.2722 140.708 51.6238 140.01 51.6238Z" fill="#F4F4F7"/>
<path d="M176.583 54.7042H174.456C172.895 54.7042 171.627 53.4496 171.627 51.9094V45.6145H172.498V51.9094C172.498 52.9762 173.376 53.8432 174.456 53.8432H176.583V54.7042Z" fill="#F4F4F7"/>
<path d="M171.269 54.7042H169.142C167.581 54.7042 166.313 53.4496 166.313 51.9094V45.6145H167.185V51.9094C167.185 52.9762 168.062 53.8432 169.142 53.8432H171.269V54.7042Z" fill="#F4F4F7"/>
<path d="M122.744 49.3962C123.347 48.9188 123.735 48.1856 123.735 47.3645C123.735 45.9302 122.554 44.7615 121.1 44.7615H120.172C118.856 44.7615 117.786 45.8183 117.786 47.1188V54.7042H118.658V47.1188C118.658 46.2937 119.337 45.6225 120.172 45.6225H121.1C122.073 45.6225 122.863 46.4036 122.863 47.3645C122.863 48.3254 122.073 49.1066 121.1 49.1066H119.986V49.9676H121.49C122.572 49.9676 123.452 50.8366 123.452 51.9054C123.452 52.9742 122.572 53.8432 121.49 53.8432H119.719V54.7042H121.49C123.053 54.7042 124.323 53.4477 124.323 51.9054C124.323 50.8066 123.68 49.8537 122.746 49.3962H122.744Z" fill="#F4F4F7"/>
<path d="M72.2598 51.4538L69.7081 50.435C69.15 50.2132 69.0146 49.8576 68.9822 49.6639C68.9761 49.6059 68.9721 49.546 68.9721 49.4761C68.9721 48.9447 69.5079 48.8608 69.6818 48.8468H73.6065V47.9019H69.6414C69.0793 47.9298 68.0137 48.2954 68.0137 49.4761C68.0137 49.7438 68.048 49.9735 68.1047 50.1713C68.2159 50.4929 68.505 50.9744 69.2612 51.276L71.6997 52.2489L72.3043 52.4927C72.3043 52.4927 72.4964 52.5806 72.5955 52.7743C72.6278 52.8563 72.6501 52.9501 72.6501 53.07C72.6501 53.6094 72.2032 53.7313 72.0394 53.7572H68.0137V54.7022H72.1244C72.6359 54.6422 73.6065 54.2307 73.6065 53.07C73.6065 51.9093 72.7613 51.5377 72.2578 51.4518L72.2598 51.4538Z" fill="#F4F4F7"/>
<path d="M107.878 34.6649L110.521 19.6339L115.038 33.1387C115.253 33.778 115.831 34.1915 116.51 34.1935C116.51 34.1935 116.512 34.1935 116.514 34.1935C117.194 34.1935 117.772 33.7819 117.988 33.1447L122.526 19.7538L124.829 34.6649H126.592L123.933 17.4484C123.846 16.889 123.387 16.4655 122.817 16.4156C122.247 16.3676 121.721 16.7073 121.539 17.2446L116.516 32.0699L111.542 17.1987C111.364 16.6653 110.845 16.3237 110.278 16.3636C109.712 16.4056 109.249 16.8191 109.152 17.3725L106.115 34.649L106.208 34.6649H107.88H107.878Z" fill="#F4F4F7"/>
<path d="M135.01 22.3188C131.564 22.3188 128.762 25.0877 128.762 28.4919C128.762 31.896 131.564 34.6649 135.01 34.6649C135.802 34.6649 136.585 34.5131 137.315 34.2274V32.4054C136.619 32.807 135.822 33.0188 135.01 33.0188C132.484 33.0188 130.428 30.989 130.428 28.4919C130.428 25.9947 132.482 23.965 135.01 23.965C137.537 23.965 139.591 25.9947 139.591 28.4919V34.6649H141.258V28.4919C141.258 25.0877 138.455 22.3188 135.01 22.3188Z" fill="#F4F4F7"/>
<path d="M39.2545 47.6323H28.9404V24.3806H38.7248C42.1601 24.3806 44.9545 27.1415 44.9545 30.5357C44.9545 32.3017 44.1983 33.8959 42.9891 35.0186C44.91 36.2372 46.1839 38.3668 46.1839 40.7841C46.1839 44.5598 43.0741 47.6303 39.2545 47.6303V47.6323ZM31.7267 44.8774H39.2525C41.5374 44.8774 43.3955 43.0415 43.3955 40.7841C43.3955 38.5266 41.5374 36.6907 39.2525 36.6907H31.7267V44.8774ZM31.7267 33.9378H38.7248C40.6234 33.9378 42.1682 32.4115 42.1682 30.5357C42.1682 28.6598 40.6234 27.1335 38.7248 27.1335H31.7267V33.9358V33.9378Z" fill="#F4F4F7"/>
<path d="M0.0126953 34.7569C0.0167612 34.635 0.0248931 34.5111 0.030992 34.3893C0.0248931 34.5111 0.0167612 34.633 0.0126953 34.7569Z" fill="#F4F4F7"/>
<path d="M0 35.5C0 35.2503 0.00406593 35.0026 0.0121978 34.7568C0.00406593 35.0046 0 35.2523 0 35.5Z" fill="#F4F4F7"/>
<path d="M20.5235 24.3806L13.0604 34.0457L6.13916 24.3806H2.89591L2.80694 24.5424C1.95367 26.0967 1.28843 27.7488 0.819336 29.4569H3.72087C3.97767 28.6418 4.28703 27.8407 4.64694 27.0636L12.9775 38.6964L21.9672 27.0556H22.0481V46.2539H24.8364V24.3806H20.5276H20.5235Z" fill="#F4F4F7"/>
<path d="M0.0182667 36.3671C0.0243326 36.5548 0.0344425 36.7406 0.0465744 36.9284C0.0485963 36.9744 0.0526403 37.0183 0.0546623 37.0643C0.258882 40.0329 1.04341 42.9376 2.35972 45.6006C2.36983 45.6206 2.37994 45.6426 2.39005 45.6625C2.48306 45.8483 2.57809 46.0321 2.67717 46.2159C2.68526 46.2299 2.69132 46.2439 2.69941 46.2559H5.92446C5.66161 45.8443 5.49783 45.5706 5.49783 45.5706C3.72455 42.5221 2.78838 39.04 2.78838 35.502C2.78838 33.4484 3.10785 31.4067 3.72253 29.4589H0.81897C0.786618 29.5787 0.752245 29.6966 0.721915 29.8165C0.717871 29.8324 0.713827 29.8484 0.709783 29.8644C0.65519 30.0802 0.602618 30.2959 0.554091 30.5137C0.550047 30.5297 0.546003 30.5456 0.543981 30.5616C0.495454 30.7774 0.45097 30.9911 0.41053 31.2089C0.406486 31.2309 0.402443 31.2528 0.398399 31.2748C0.357959 31.4846 0.321563 31.6963 0.28719 31.9061C0.281124 31.9381 0.27708 31.972 0.273036 32.004C0.242706 32.2038 0.212377 32.4055 0.186091 32.6073C0.180025 32.6572 0.173959 32.7072 0.167893 32.7571C0.145651 32.9429 0.12341 33.1287 0.105212 33.3145C0.0971238 33.3904 0.0930798 33.4683 0.0849919 33.5442C0.0708381 33.7061 0.0566842 33.8679 0.0465744 34.0297C0.0384864 34.1496 0.0344425 34.2714 0.0283765 34.3913C0.0223106 34.5131 0.0142227 34.637 0.0101787 34.7589C0.00209083 35.0066 -0.00195312 35.2543 -0.00195312 35.502C-0.00195312 35.7338 0.00209083 35.9655 0.0101787 36.1972C0.0101787 36.2552 0.0142227 36.3111 0.0162447 36.3691L0.0182667 36.3671Z" fill="#F4F4F7"/>
<path d="M38.65 48.8889C38.5468 49.0048 38.4417 49.1186 38.3366 49.2305C34.4604 53.3778 28.9991 55.7471 23.2789 55.7471C17.2089 55.7471 11.4503 53.0642 7.57419 48.5013H4.07617C4.12268 48.5673 4.16918 48.6332 4.21569 48.6991V48.7011C4.24804 48.7471 4.28039 48.793 4.31274 48.839C4.32083 48.8509 4.33094 48.8629 4.34105 48.8769C4.34509 48.8809 4.34712 48.8869 4.35116 48.8909L4.36734 48.9129C4.4745 49.0587 4.58167 49.2025 4.69085 49.3464C4.72927 49.3963 4.76769 49.4443 4.80408 49.4942C4.90114 49.6201 5.00022 49.7439 5.09929 49.8658C5.13771 49.9117 5.17613 49.9597 5.21455 50.0056C5.33182 50.1495 5.45112 50.2913 5.57244 50.4312C5.58861 50.4511 5.60479 50.4711 5.62298 50.4891C9.70738 55.1758 15.561 58.0625 21.819 58.4541C21.8514 58.4561 21.8858 58.4581 21.9181 58.4601C22.1021 58.4701 22.2861 58.4781 22.4701 58.4841C22.5166 58.4841 22.5651 58.4881 22.6116 58.4901C22.8341 58.496 23.0565 58.5 23.2789 58.5C23.4851 58.5 23.6934 58.498 23.8996 58.492C23.9199 58.492 23.9381 58.492 23.9563 58.4901C29.549 58.3282 34.881 56.1807 38.9856 52.4749C39.0018 52.4609 39.018 52.4449 39.0341 52.4309C39.1615 52.317 39.2869 52.1992 39.4102 52.0813C39.4527 52.0413 39.4952 51.9994 39.5376 51.9594C39.6043 51.8955 39.669 51.8296 39.7358 51.7657C40.0795 51.426 40.4172 51.0744 40.7407 50.7128L38.65 48.8909V48.8889Z" fill="#F4F4F7"/>
<path d="M40.7389 20.2912C40.7085 20.2572 40.6782 20.2233 40.6479 20.1913C40.5245 20.0535 40.3992 19.9196 40.2718 19.7858C40.2536 19.7678 40.2374 19.7498 40.2192 19.7298C36.3431 15.6564 31.1426 13.1413 25.5295 12.6079C25.5255 12.6079 25.5194 12.6079 25.5154 12.6079C25.3557 12.5919 25.1959 12.5799 25.0362 12.5679C24.9978 12.5659 24.9593 12.5619 24.923 12.5599C24.7794 12.5499 24.6338 12.54 24.4902 12.532C24.4478 12.53 24.4053 12.528 24.3608 12.526C24.2112 12.52 24.0616 12.512 23.912 12.508C23.9079 12.508 23.9039 12.508 23.8998 12.508C23.6936 12.502 23.4873 12.5 23.2791 12.5C23.2791 12.5 23.275 12.5 23.273 12.5C16.2406 12.502 9.75407 15.5446 5.31381 20.8765C5.28145 20.9165 5.24708 20.9544 5.21473 20.9944C5.21068 20.9984 5.20664 21.0044 5.2026 21.0084C5.17833 21.0364 5.15609 21.0663 5.13183 21.0943C5.12172 21.1083 5.10959 21.1203 5.09948 21.1342C5.0004 21.2561 4.90132 21.38 4.80427 21.5058C4.79011 21.5258 4.77394 21.5438 4.75978 21.5638C4.75574 21.5697 4.74967 21.5757 4.74563 21.5817C4.72743 21.6057 4.70923 21.6297 4.69104 21.6517C4.58185 21.7955 4.47468 21.9393 4.36752 22.0852L4.35134 22.1071C4.3473 22.1111 4.34528 22.1171 4.34123 22.1211C4.33719 22.1271 4.33315 22.1311 4.3291 22.1371H7.88778C11.6284 17.9418 16.9968 15.4267 22.6887 15.2629C22.6968 15.2629 22.7069 15.2629 22.7149 15.2629C22.903 15.2569 23.091 15.2549 23.2791 15.2549C23.4671 15.2549 23.6471 15.2569 23.8311 15.2629C23.9261 15.2649 24.0232 15.2709 24.1182 15.2749C24.2031 15.2789 24.288 15.2809 24.3709 15.2849C24.5064 15.2928 24.6399 15.3008 24.7753 15.3108C24.8158 15.3128 24.8582 15.3168 24.8987 15.3188C25.0645 15.3308 25.2283 15.3468 25.3941 15.3628C25.4001 15.3628 25.4062 15.3628 25.4123 15.3628C30.3419 15.8742 34.9459 18.1416 38.3347 21.7675C38.4055 21.8434 38.4742 21.9194 38.545 21.9953C38.7513 22.223 38.9555 22.4567 39.1536 22.6965L41.3111 20.9544C41.123 20.7287 40.931 20.5069 40.7368 20.2892L40.7389 20.2912Z" fill="#F4F4F7"/>
</g>
<g clip-path="url(#clip1_3013_27)">
<path d="M206.228 24.738H206.688C206.798 25.0313 207.102 25.6251 207.779 25.6251C208.652 25.6251 209.006 24.6394 209.02 24.5974C209.042 24.5337 209.032 24.464 208.993 24.4087C208.954 24.3534 208.89 24.3209 208.822 24.3209H206.228C206.112 24.3209 206.02 24.4135 206.02 24.5289C206.02 24.6443 206.112 24.7368 206.228 24.7368V24.738ZM208.486 24.738C208.352 24.9508 208.119 25.2092 207.779 25.2092C207.44 25.2092 207.246 24.9472 207.142 24.738H208.487H208.486Z" fill="#F4F4F7"/>
<path d="M215.241 22.4518C216.108 22.4518 216.814 21.7499 216.814 20.8856C216.814 20.0214 216.109 19.3195 215.241 19.3195C214.373 19.3195 213.668 20.0214 213.668 20.8856C213.668 21.7499 214.373 22.4518 215.241 22.4518ZM215.241 19.7365C215.878 19.7365 216.396 20.2522 216.396 20.8868C216.396 21.5215 215.878 22.0371 215.241 22.0371C214.603 22.0371 214.086 21.5215 214.086 20.8868C214.086 20.2522 214.603 19.7365 215.241 19.7365Z" fill="#F4F4F7"/>
<path d="M233.752 24.3835C233.712 24.3438 233.66 24.3234 233.608 24.3234H233.605H231.16C231.092 24.3234 231.029 24.3558 230.99 24.4111C230.951 24.4664 230.94 24.5361 230.963 24.5998C230.978 24.6419 231.331 25.6275 232.204 25.6275C232.881 25.6275 233.185 25.0337 233.295 24.7405H233.52L233.84 25.059C233.881 25.0998 233.934 25.1203 233.987 25.1203C234.04 25.1203 234.094 25.0998 234.134 25.059C234.175 25.0181 234.196 24.9652 234.196 24.9123C234.196 24.8595 234.175 24.8054 234.134 24.7657L233.753 24.3859L233.752 24.3835ZM232.202 25.2092C231.862 25.2092 231.629 24.9508 231.495 24.738H232.84C232.736 24.9484 232.538 25.2092 232.203 25.2092H232.202Z" fill="#F4F4F7"/>
<path d="M224.675 22.4518C225.542 22.4518 226.248 21.7499 226.248 20.8856C226.248 20.0214 225.543 19.3195 224.675 19.3195C223.807 19.3195 223.103 20.0214 223.103 20.8856C223.103 21.7499 223.807 22.4518 224.675 22.4518ZM224.675 19.7365C225.313 19.7365 225.831 20.2522 225.831 20.8868C225.831 21.5215 225.313 22.0371 224.675 22.0371C224.038 22.0371 223.52 21.5215 223.52 20.8868C223.52 20.2522 224.038 19.7365 224.675 19.7365Z" fill="#F4F4F7"/>
<path d="M239.999 29.795C239.999 29.6495 239.997 29.5053 239.997 29.3635C239.997 29.3623 239.997 29.3611 239.997 29.3599C239.997 27.5292 239.511 26.0496 238.555 24.9642C238.511 24.9149 238.466 24.8668 238.421 24.8188V15.9385C238.421 15.8231 238.328 15.7305 238.212 15.7305C237.709 15.7305 237.298 15.3219 237.298 14.8206C237.298 14.3194 237.709 13.9107 238.212 13.9107C238.328 13.9107 238.421 13.8182 238.421 13.7028V9.90812C238.421 9.8372 238.385 9.76989 238.323 9.73263C238.263 9.69417 238.187 9.68936 238.122 9.72061C238.044 9.75787 236.253 10.6257 235.647 12.5958C235.613 12.5958 235.582 12.5982 235.556 12.6006C234.381 12.6955 233.461 13.6908 233.461 14.8663C233.461 15.7642 234.025 16.584 234.878 16.9494V17.2162C234.878 20.1478 231.9 20.4652 230.619 20.4652C228.573 20.4652 226.815 19.0156 226.434 17.0167C226.42 16.9397 226.362 16.8772 226.286 16.8556C226.21 16.834 226.128 16.8568 226.075 16.9157C225.621 17.4121 224.645 17.8472 223.985 17.8472C223.273 17.8472 222.489 17.3821 222.025 16.8869C222.115 16.8556 222.183 16.8256 222.196 16.8195C222.2 16.8183 222.203 16.8159 222.207 16.8147C222.394 16.715 222.566 16.5876 222.716 16.4385C223.124 16.0322 223.349 15.495 223.349 14.9252V13.8675C223.349 13.8675 223.348 13.8554 223.347 13.8506V12.5248C223.347 12.5248 223.347 12.5164 223.347 12.5128C223.347 12.0368 223.199 11.5717 222.93 11.1798H224.224C224.404 11.919 225.079 12.4575 225.863 12.4575C226.79 12.4575 227.545 11.7063 227.545 10.7832C227.545 9.86004 226.79 9.1088 225.863 9.1088C225.862 9.1088 225.861 9.1088 225.859 9.1088H221.43V8.44891C221.43 8.1989 221.315 7.97533 221.136 7.82628C221.291 7.67844 221.387 7.4717 221.387 7.24212V6.98008C221.387 6.72647 221.29 6.50891 221.131 6.36226C221.288 6.21442 221.387 6.00527 221.387 5.77329V5.51126C221.387 5.25764 221.29 5.04008 221.131 4.89344C221.288 4.74559 221.387 4.53645 221.387 4.30446V4.04243C221.387 3.78641 221.287 3.56524 221.125 3.4186C221.466 3.11209 221.681 2.67096 221.681 2.17815C221.681 1.25503 220.926 0.503784 219.999 0.503784C219.072 0.503784 218.318 1.25503 218.318 2.17815C218.318 2.68058 218.542 3.13133 218.896 3.43903C218.729 3.58808 218.623 3.80324 218.623 4.04243V4.30446C218.623 4.55808 218.721 4.77564 218.879 4.92228C218.722 5.07013 218.623 5.27927 218.623 5.51126V5.77329C218.623 6.02691 218.721 6.24447 218.879 6.39111C218.722 6.53896 218.623 6.7481 218.623 6.98008V7.24212C218.623 7.4753 218.705 7.67844 218.842 7.82388C218.661 7.97292 218.545 8.1977 218.545 8.44891V9.1088H214.1C213.173 9.1088 212.419 9.86004 212.419 10.7832C212.419 11.7063 213.173 12.4575 214.1 12.4575C214.881 12.4575 215.552 11.919 215.733 11.1798H216.735V13.6379C216.735 13.7677 216.786 13.8903 216.88 13.9829C216.887 13.9901 216.895 13.9949 216.902 14.0009V15.1079C216.902 15.2389 216.952 15.3615 217.047 15.4541C217.092 15.4998 217.146 15.5358 217.205 15.5599V16.5791C217.205 16.709 217.255 16.8328 217.35 16.9253C217.443 17.0179 217.566 17.0696 217.697 17.0696H217.735C217.263 17.4927 216.581 17.8532 215.954 17.8532C215.295 17.8532 214.319 17.4181 213.865 16.9217C213.812 16.8628 213.729 16.84 213.653 16.8616C213.577 16.8832 213.519 16.9457 213.505 17.0227C213.144 18.923 211.535 20.3257 209.618 20.4592L210.598 14.0249C210.614 13.9204 210.549 13.8206 210.446 13.7929C210.344 13.7653 210.236 13.8194 210.197 13.9179L207.676 20.2861C206.406 19.9796 205.062 19.1911 205.062 17.2222V16.9554C205.916 16.59 206.48 15.7702 206.48 14.8723C206.48 13.6968 205.559 12.7015 204.384 12.6066C204.359 12.6042 204.327 12.603 204.293 12.6018C203.688 10.6317 201.897 9.76388 201.819 9.72662C201.754 9.69657 201.678 9.70018 201.617 9.73864C201.557 9.77711 201.52 9.84321 201.52 9.91413V13.7088C201.52 13.8242 201.612 13.9167 201.728 13.9167C202.232 13.9167 202.642 14.3254 202.642 14.8266C202.642 15.3279 202.232 15.7366 201.728 15.7366C201.612 15.7366 201.52 15.8291 201.52 15.9445V24.9089C201.493 24.9378 201.466 24.9666 201.441 24.9967C200.498 26.0881 200.02 27.5881 200.02 29.4464C200.02 29.4993 200.006 34.6642 204.642 36.5165V39.3484C204.642 39.3484 204.641 39.3568 204.641 39.3616C204.641 40.6129 204.278 42.1045 202.546 42.1045H202.181C202.081 42.1045 202.013 42.1045 201.964 42.1045V40.6177H203.287C203.362 40.6177 203.432 40.578 203.468 40.5119C203.505 40.447 203.504 40.3664 203.465 40.3027L201.926 37.7365C201.889 37.674 201.82 37.6355 201.746 37.6355C201.673 37.6355 201.605 37.674 201.567 37.7365L200.029 40.3039C199.99 40.3676 199.989 40.4482 200.026 40.5131C200.064 40.578 200.133 40.6189 200.207 40.6189H201.545V50.9896C201.401 54.8384 203.217 57.7099 207.258 60.0237C208.564 60.7714 209.997 61.2678 211.384 61.7474C214.241 62.7354 217.188 63.7571 219.282 67.0493C218.903 67.2837 218.648 67.6996 218.648 68.1768C218.648 68.9076 219.246 69.5026 219.98 69.5026C220.714 69.5026 221.311 68.9076 221.311 68.1768C221.311 67.702 221.059 67.2873 220.682 67.0529C222.776 63.7655 225.721 62.745 228.577 61.757C229.964 61.2774 231.398 60.781 232.703 60.0333C236.761 57.7099 238.416 55.0944 238.416 51.0076V40.6213H239.754C239.828 40.6213 239.898 40.5816 239.935 40.5155C239.972 40.4506 239.971 40.3701 239.932 40.3063L238.393 37.7401C238.356 37.6776 238.287 37.6391 238.213 37.6391C238.14 37.6391 238.072 37.6776 238.033 37.7401L236.494 40.3063C236.456 40.3701 236.455 40.4506 236.492 40.5155C236.529 40.5804 236.598 40.6213 236.673 40.6213H237.995V42.1081C237.883 42.1081 237.703 42.1081 237.413 42.1081C235.681 42.1081 235.317 40.6165 235.317 39.364V36.5381C236.196 36.21 236.562 35.6523 236.782 35.1943C236.799 35.1594 236.815 35.1234 236.83 35.0885L236.855 35.2051C236.873 35.2917 236.935 35.3962 237.054 35.4323C237.129 35.4551 237.246 35.4539 237.376 35.3289L237.495 35.228C238.503 34.3914 238.904 33.294 239.214 32.1893L239.29 32.3372C239.295 32.3468 239.3 32.3552 239.307 32.3636C239.354 32.4285 239.437 32.4922 239.542 32.4922C239.554 32.4922 239.568 32.4922 239.58 32.4898C239.641 32.4802 239.755 32.4393 239.813 32.2675C239.874 32.0848 239.909 31.9345 239.925 31.7795C239.943 31.6076 239.954 31.4321 239.966 31.2638V31.2434H239.967C239.997 30.7614 239.994 30.2698 239.991 29.7962L239.999 29.795ZM237.046 40.203L238.217 38.2497L239.388 40.203H237.046ZM223.986 18.2619C224.641 18.2619 225.529 17.9097 226.107 17.4494C226.655 19.4567 228.497 20.8786 230.619 20.8786C233.548 20.8786 235.296 19.5084 235.296 17.2138V16.8087C235.296 16.7222 235.244 16.6428 235.158 16.6116C234.393 16.3375 233.879 15.6356 233.879 14.8639C233.879 13.9035 234.631 13.0898 235.59 13.0129C235.637 13.0092 235.747 13.0068 235.804 13.0068C235.809 13.0068 235.814 13.0068 235.817 13.0056C235.824 13.0056 235.832 13.0056 235.839 13.0032C235.845 13.0032 235.852 13.0008 235.858 12.9984C235.865 12.996 235.871 12.9948 235.878 12.9924C235.884 12.99 235.89 12.9876 235.896 12.984C235.902 12.9804 235.908 12.978 235.914 12.9744C235.919 12.9708 235.923 12.9672 235.929 12.9636C235.935 12.9588 235.94 12.9552 235.946 12.9503C235.951 12.9467 235.955 12.9419 235.958 12.9371C235.963 12.9311 235.968 12.9263 235.973 12.9203C235.976 12.9155 235.98 12.9095 235.983 12.9047C235.986 12.8987 235.99 12.8927 235.992 12.8866C235.996 12.8794 235.998 12.8734 236.001 12.8662C236.002 12.8614 236.004 12.8578 236.005 12.8542C236.384 11.4419 237.471 10.6029 238.001 10.2675V13.5117C237.366 13.6114 236.878 14.1607 236.878 14.8206C236.878 15.4805 237.366 16.0298 238.001 16.1296V24.4281C237.57 24.0699 237.079 23.7887 236.539 23.5867C236.976 23.4112 237.285 22.9881 237.285 22.4929C237.285 21.8414 236.75 21.3114 236.092 21.3114C235.435 21.3114 234.9 21.8438 234.9 22.5001L234.903 23.2586H226.267C226.151 23.2586 226.058 23.3511 226.058 23.4665V25.3945C226.058 26.2912 226.776 27.1013 227.626 27.165C227.652 27.1674 227.68 27.1686 227.711 27.1686H229.206C229.322 27.1686 229.415 27.0761 229.415 26.9607V26.915C229.416 26.8922 229.417 26.8705 229.417 26.8597C229.417 26.5184 229.744 26.2191 230.117 26.2191C230.49 26.2191 230.82 26.5328 230.82 26.9186C230.82 27.3045 230.505 27.6182 230.117 27.6182H226.703C226.588 27.6182 226.495 27.7107 226.495 27.8261V28.5978C226.495 28.7132 226.588 28.8057 226.703 28.8057H227.151C227.204 29.1267 227.412 29.432 227.757 29.7096C226.875 30.1676 226.206 30.753 225.702 31.3588L222.753 30.1736L222.744 29.0918C222.744 28.2757 222.32 27.7492 221.776 27.4247V17.2258C222.299 17.7547 223.15 18.2607 223.986 18.2607V18.2619ZM226.858 34.0981C226.245 33.8445 225.677 33.687 225.282 33.6113C225.156 33.5872 225.03 33.5692 224.904 33.5536C225.436 32.1485 226.819 29.8827 230.285 29.3346C232.071 29.0522 233.419 28.3598 234.285 27.2768C234.555 26.9415 234.755 26.5941 234.905 26.2551V30.1303H233.477C233.477 30.1303 233.474 30.1303 233.472 30.1303C233.462 30.1303 233.452 30.1303 233.443 30.1303H231.989C229.234 30.1303 227.599 31.3924 226.857 34.0981H226.858ZM231.621 30.5546C230.493 31.1268 229.392 32.4177 229.075 35.2075C229.066 35.2905 229.059 35.3698 229.051 35.4467V35.4539C228.511 34.9515 227.868 34.5609 227.243 34.2676C227.896 31.8203 229.258 30.6616 231.62 30.5546H231.621ZM207.968 30.1303H206.527C206.517 30.1303 206.507 30.1303 206.498 30.1303C206.496 30.1303 206.495 30.1303 206.493 30.1303H205.06V26.1001C205.556 27.2828 206.618 28.5918 208.876 29.1687C208.881 29.1699 208.885 29.1711 208.89 29.1723C209.14 29.2361 209.402 29.2913 209.681 29.3346C213.131 29.8791 214.521 32.1208 215.065 33.55C214.931 33.5668 214.798 33.586 214.665 33.6113C214.456 33.6509 213.836 33.782 213.093 34.0716C212.349 31.3828 210.718 30.1291 207.967 30.1291L207.968 30.1303ZM212.707 34.2339C212.106 34.502 211.463 34.8734 210.912 35.377C210.907 35.3217 210.901 35.2664 210.895 35.2075C210.58 32.4189 209.479 31.128 208.352 30.5546C210.671 30.6688 212.06 31.8468 212.707 34.2339ZM213.434 23.6793C213.46 23.9738 213.562 24.493 213.955 24.7514C214.017 24.7923 214.08 24.8224 214.142 24.85C214.083 25.1421 214.024 25.4883 213.966 25.8236C213.908 26.165 213.847 26.5196 213.789 26.8044C213.785 26.8249 213.784 26.8273 213.758 26.8429C213.332 27.1025 212.877 27.2059 212.406 27.1506C212.277 27.135 212.146 27.1013 212.007 27.0653C211.934 27.0472 211.862 27.028 211.79 27.0124C211.786 27.0124 211.781 27.0124 211.778 27.0112C211.77 27.0112 211.763 27.0088 211.756 27.0088C211.749 27.0088 211.743 27.0088 211.735 27.0088C211.728 27.0088 211.722 27.0088 211.715 27.01C211.708 27.01 211.702 27.0124 211.695 27.0136C211.688 27.0148 211.682 27.0172 211.676 27.0196C211.67 27.022 211.664 27.0244 211.659 27.0268C211.653 27.0292 211.646 27.0328 211.64 27.0364C211.635 27.04 211.629 27.0424 211.624 27.046C211.618 27.0496 211.612 27.0545 211.607 27.0593C211.603 27.0641 211.598 27.0689 211.593 27.0737C211.589 27.0773 211.586 27.0797 211.583 27.0833C211.534 27.1446 211.475 27.2023 211.413 27.2624C211.379 27.296 211.345 27.3285 211.313 27.3622C210.697 28.004 209.818 28.5221 208.953 28.7553C207.444 28.3538 205.517 27.3345 205.112 24.7538C205.09 24.618 205.074 24.4786 205.062 24.3404C205.062 24.3368 205.061 24.3332 205.06 24.3295V23.6745C206.389 23.6757 212.113 23.6781 213.434 23.6781V23.6793ZM206.941 23.261L207.364 22.19L208.441 23.2622C207.915 23.2622 207.405 23.2622 206.941 23.2622V23.261ZM214.536 31.7037L217.499 30.509C217.578 30.4777 217.628 30.402 217.63 30.3178L217.639 29.0942C217.639 28.3935 218.02 27.8934 218.772 27.6074C219.154 27.4619 219.544 27.4078 219.775 27.3874V31.2494L217.342 33.6726C216.729 33.5332 216.109 33.4779 215.495 33.5127C215.305 32.9874 215.004 32.3444 214.536 31.7037ZM219.977 25.8741C220.093 25.8741 220.186 25.7815 220.186 25.6662V17.0383C220.609 16.9433 220.925 16.5671 220.925 16.1188C220.925 15.8219 220.787 15.5575 220.573 15.3844C220.787 15.2113 220.926 14.9468 220.926 14.65C220.926 14.3531 220.789 14.0874 220.574 13.9131C220.687 13.8218 220.778 13.7052 220.839 13.5718C220.865 13.5946 220.89 13.6187 220.917 13.6403C221.052 13.7521 221.2 13.8482 221.358 13.9312V27.2215C220.877 27.0304 220.363 26.9595 219.983 26.9595C219.604 26.9595 219.09 27.0304 218.609 27.2215V17.0611H219.77V25.665C219.77 25.7803 219.863 25.8729 219.979 25.8729L219.977 25.8741ZM219.682 11.8794C219.694 12.0513 219.678 12.2171 219.638 12.3698C219.579 12.5946 219.464 12.7917 219.301 12.9359C219.142 13.079 218.932 13.1715 218.681 13.1907C218.648 13.1931 218.615 13.1944 218.581 13.1944C218.501 13.1944 218.418 13.1871 218.332 13.1727L218.925 10.5728H220.987C221.049 10.5728 221.106 10.5752 221.159 10.58C221.215 10.5848 221.273 10.5933 221.333 10.6041C221.788 10.681 222.19 10.9226 222.476 11.2628C222.76 11.6005 222.931 12.0368 222.931 12.508V13.8458H222.798C222.129 13.8458 221.588 13.6547 221.185 13.3206C220.755 12.966 220.474 12.4467 220.352 11.8229C220.335 11.7375 220.26 11.6786 220.175 11.6786H219.863C219.764 11.6786 219.683 11.758 219.683 11.8577C219.683 11.865 219.683 11.8722 219.684 11.8794H219.682ZM218.117 12.234H217.153V11.175H218.359L218.117 12.234ZM219.982 31.6292L222.139 33.7952C221.822 33.8901 221.508 34.0079 221.198 34.1498C220.937 34.2688 220.534 34.4875 220.419 34.5609C220.367 34.5945 220.283 34.645 220.192 34.6979C220.115 34.7436 220.039 34.7904 219.973 34.8313C219.906 34.7904 219.829 34.7436 219.752 34.6979C219.662 34.6438 219.577 34.5933 219.526 34.5609C219.411 34.4863 219.008 34.2676 218.747 34.1498C218.438 34.0091 218.125 33.8913 217.808 33.7964L219.981 31.6304L219.982 31.6292ZM220.191 31.2494V27.3874C220.422 27.4066 220.81 27.4607 221.194 27.6074C221.945 27.8934 222.326 28.3947 222.326 29.0966L222.336 30.319C222.336 30.4032 222.388 30.4789 222.467 30.5102L225.435 31.7025C224.962 32.3492 224.661 32.9947 224.474 33.5151C223.853 33.4791 223.226 33.5332 222.604 33.6738L220.191 31.2506V31.2494ZM234.9 24.6397C234.772 25.9835 233.993 28.3274 230.22 28.9235C229.447 29.0461 228.774 29.2493 228.183 29.5077C227.874 29.2998 227.539 28.9848 227.557 28.6074C227.559 28.5509 227.539 28.4956 227.499 28.4536C227.459 28.4127 227.405 28.3887 227.348 28.3887H226.914V28.0329H230.118C230.735 28.0329 231.239 27.5328 231.239 26.9174C231.239 26.302 230.736 25.802 230.118 25.802C229.551 25.802 229.066 26.2263 229.007 26.7515H227.717C227.698 26.7515 227.679 26.7516 227.66 26.7491C227.019 26.7011 226.478 26.0808 226.478 25.3933V23.6733H234.906V24.606C234.903 24.6168 234.901 24.6264 234.9 24.6373V24.6397ZM222.931 14.2617V14.9228C222.931 15.382 222.75 15.8147 222.422 16.1416C222.301 16.2618 222.165 16.3628 222.015 16.4433C221.973 16.4626 221.87 16.5034 221.776 16.5251V14.1067C222.089 14.2088 222.433 14.2617 222.797 14.2617H222.93C222.93 14.2617 222.93 14.2617 222.931 14.2617ZM218.735 2.17454C218.735 1.481 219.303 0.916065 219.999 0.916065C220.696 0.916065 221.263 1.481 221.263 2.17454C221.263 2.86809 220.696 3.43302 219.999 3.43302C219.303 3.43302 218.735 2.86809 218.735 2.17454ZM219.438 5.111H220.633C220.866 5.111 220.97 5.30932 220.97 5.50645V5.76848C220.97 5.98604 220.791 6.16394 220.573 6.16394H219.378C219.145 6.16394 219.041 5.96561 219.041 5.76848V5.50645C219.041 5.28889 219.219 5.111 219.438 5.111ZM219.041 4.29966V4.03762C219.041 3.87896 219.135 3.74314 219.27 3.68063C219.491 3.78761 219.737 3.84891 219.999 3.84891C220.261 3.84891 220.529 3.7828 220.757 3.66741C220.902 3.72511 220.97 3.88136 220.97 4.03882V4.30086C220.97 4.51842 220.791 4.69631 220.573 4.69631H219.378C219.145 4.69631 219.041 4.49798 219.041 4.30086V4.29966ZM219.438 6.57982H220.633C220.866 6.57982 220.97 6.77815 220.97 6.97528V7.23731C220.97 7.45487 220.791 7.63276 220.573 7.63276H219.378C219.145 7.63276 219.041 7.43443 219.041 7.23731V6.97528C219.041 6.75772 219.219 6.57982 219.438 6.57982ZM219.359 8.04865H220.615C220.833 8.04865 221.012 8.22654 221.012 8.4441V9.10399H218.962V8.4441C218.962 8.22654 219.141 8.04865 219.359 8.04865ZM215.581 10.7591C215.503 10.7519 215.43 10.788 215.389 10.8493C215.389 10.8493 215.389 10.8493 215.388 10.8505C215.382 10.8601 215.376 10.8697 215.371 10.8805C215.371 10.8829 215.369 10.8853 215.368 10.8877C215.364 10.8962 215.361 10.9058 215.359 10.9154C215.358 10.9202 215.357 10.925 215.355 10.9298C215.355 10.9322 215.354 10.9358 215.353 10.9382C215.273 11.5645 214.734 12.0356 214.099 12.0356C213.402 12.0356 212.835 11.4707 212.835 10.7772C212.835 10.0836 213.402 9.51868 214.099 9.51868H225.868C226.562 9.52228 227.125 10.0848 227.125 10.7772C227.125 11.4695 226.557 12.0356 225.861 12.0356C225.222 12.0356 224.682 11.5645 224.601 10.9394C224.601 10.937 224.599 10.9346 224.598 10.931C224.598 10.9238 224.596 10.9178 224.593 10.9106C224.591 10.9034 224.59 10.8974 224.587 10.8901C224.585 10.8841 224.583 10.8793 224.58 10.8733C224.577 10.8661 224.573 10.8601 224.569 10.8529C224.567 10.8481 224.563 10.8445 224.56 10.8397C224.555 10.8324 224.55 10.8264 224.544 10.8204C224.54 10.8168 224.537 10.8144 224.533 10.8108C224.527 10.8048 224.52 10.8 224.513 10.794C224.509 10.7916 224.504 10.7892 224.501 10.7868C224.493 10.782 224.486 10.7784 224.479 10.7748C224.474 10.7724 224.469 10.7711 224.464 10.7687C224.457 10.7663 224.449 10.7639 224.441 10.7615C224.435 10.7603 224.43 10.7591 224.424 10.7579C224.417 10.7579 224.409 10.7555 224.402 10.7555C224.399 10.7555 224.397 10.7555 224.394 10.7555H222.561C222.234 10.461 221.832 10.2627 221.399 10.1906C221.326 10.1786 221.258 10.169 221.195 10.1629C221.124 10.1569 221.054 10.1533 220.984 10.1533H218.922C218.727 10.1533 218.558 10.2879 218.516 10.4767L218.453 10.7543H215.58L215.581 10.7591ZM217.176 13.6836C217.167 13.6751 217.154 13.6571 217.154 13.6319V12.6499H218.023L217.925 13.0802C217.9 13.1919 217.922 13.3085 217.986 13.4047C218.05 13.4997 218.151 13.5646 218.263 13.5826C218.372 13.6006 218.478 13.609 218.581 13.609C218.625 13.609 218.671 13.6078 218.715 13.6042C219.044 13.579 219.345 13.4552 219.58 13.2448C219.8 13.0489 219.961 12.7833 220.041 12.4756C220.05 12.4419 220.058 12.4083 220.066 12.3746C220.172 12.6859 220.32 12.9648 220.504 13.2076C220.489 13.484 220.262 13.7052 219.983 13.7052C219.98 13.7052 219.977 13.7052 219.974 13.7052H217.228C217.204 13.7052 217.185 13.6932 217.176 13.6836ZM217.341 15.1536C217.333 15.1452 217.319 15.1283 217.319 15.1019V14.1211H219.974C219.974 14.1211 219.98 14.1211 219.983 14.1211C220.272 14.1211 220.507 14.3579 220.507 14.6488C220.507 14.9396 220.272 15.1728 219.983 15.1728C219.98 15.1728 219.977 15.1728 219.974 15.1728H217.394C217.375 15.1728 217.356 15.1644 217.342 15.1512L217.341 15.1536ZM217.695 16.6465C217.671 16.6465 217.653 16.6344 217.643 16.6248C217.633 16.6152 217.621 16.5984 217.621 16.5731V15.5923H219.973C219.973 15.5923 219.979 15.5935 219.982 15.5935C219.985 15.5935 219.988 15.5935 219.991 15.5935C220.276 15.5983 220.507 15.8327 220.507 16.12C220.507 16.4073 220.27 16.6477 219.979 16.6477H217.696L217.695 16.6465ZM213.831 17.4494C214.409 17.9097 215.297 18.2619 215.952 18.2619C216.804 18.2619 217.669 17.7379 218.19 17.1982V27.4259C217.645 27.7504 217.222 28.2757 217.222 29.0918L217.213 30.1748L214.269 31.3612C213.37 30.2818 211.956 29.2721 209.746 28.9235C209.744 28.9235 209.741 28.9235 209.739 28.9235C210.44 28.6266 211.108 28.1771 211.613 27.6506C211.644 27.6194 211.674 27.5893 211.705 27.5581C211.741 27.522 211.779 27.4848 211.815 27.4463C211.844 27.4535 211.873 27.4607 211.902 27.4679C212.048 27.5052 212.199 27.5437 212.356 27.5629C212.456 27.5749 212.555 27.5809 212.653 27.5809C213.113 27.5809 213.556 27.4535 213.971 27.1999C214.096 27.1266 214.17 27.0232 214.197 26.885C214.256 26.5953 214.317 26.2383 214.376 25.8933C214.439 25.5255 214.504 25.1445 214.568 24.844C214.568 24.8404 214.571 24.832 214.571 24.8284C214.574 24.8055 214.578 24.7839 214.58 24.7695C214.6 24.6757 214.553 24.5808 214.467 24.5399C214.428 24.5219 214.391 24.505 214.354 24.4894C214.291 24.4618 214.23 24.4365 214.185 24.4065C213.886 24.2093 213.836 23.6709 213.842 23.4797C213.844 23.4233 213.822 23.3692 213.783 23.3283C213.743 23.2874 213.69 23.2646 213.633 23.2646C213.23 23.2646 211.201 23.2646 209.187 23.2634L209.55 20.8738C211.572 20.7741 213.301 19.3846 213.83 17.4506L213.831 17.4494ZM209.907 15.7738L209.618 17.6705L209.286 17.34L209.907 15.7726V15.7738ZM209.12 17.7631L209.541 18.1826L209.214 20.3281L208.418 19.536L209.12 17.7643V17.7631ZM208.25 19.9555L209.135 20.8366L208.801 23.0314L207.532 21.7681L208.25 19.9555ZM201.936 16.1296C202.571 16.0298 203.059 15.4805 203.059 14.8206C203.059 14.1607 202.571 13.6114 201.936 13.5117V10.2675C202.466 10.6041 203.552 11.4419 203.931 12.8542C203.931 12.859 203.935 12.8626 203.936 12.8662C203.939 12.8734 203.941 12.8806 203.945 12.8866C203.947 12.8927 203.951 12.8987 203.954 12.9047C203.958 12.9107 203.962 12.9155 203.965 12.9215C203.97 12.9275 203.974 12.9323 203.978 12.9383C203.982 12.9431 203.987 12.9479 203.99 12.9515C203.995 12.9564 204.001 12.9612 204.007 12.9648C204.012 12.9684 204.017 12.972 204.023 12.9756C204.029 12.9792 204.035 12.9828 204.041 12.9852C204.047 12.9876 204.052 12.9912 204.058 12.9936C204.065 12.996 204.071 12.9984 204.079 12.9996C204.085 13.0008 204.091 13.0032 204.097 13.0044C204.104 13.0056 204.112 13.0068 204.12 13.0068C204.124 13.0068 204.128 13.008 204.133 13.008C204.191 13.008 204.3 13.0104 204.347 13.0141C205.306 13.0922 206.058 13.9047 206.058 14.8651C206.058 15.6368 205.544 16.3387 204.779 16.6128C204.693 16.6428 204.641 16.7234 204.641 16.8099V17.2162C204.641 18.9903 205.688 20.2115 207.516 20.6731L206.492 23.2622C205.863 23.2622 205.353 23.2622 205.06 23.2622V21.5217C205.06 21.4063 204.967 21.3138 204.851 21.3138H202.989C202.905 21.3138 202.829 21.363 202.797 21.44C202.764 21.5169 202.78 21.6046 202.838 21.6647L204.424 23.3235C203.467 23.4954 202.622 23.892 201.936 24.4906V16.1308V16.1296ZM204.642 21.7272V22.9473L203.476 21.7272H204.642ZM200.438 29.4488C200.438 26.2323 202.004 24.106 204.642 23.7057V32.1605C204.001 31.3227 203.354 30.0907 203.281 28.4764C203.276 28.3622 203.179 28.2733 203.062 28.2781C202.948 28.2829 202.858 28.3802 202.863 28.4956C202.954 30.4969 203.871 31.9441 204.642 32.818V34.3433C202.432 32.8889 201.994 30.4621 201.932 29.1171C201.928 29.0029 201.831 28.9127 201.714 28.9187C201.599 28.9235 201.51 29.0209 201.515 29.1363C201.581 30.6075 202.077 33.3 204.642 34.8349V36.0669C200.431 34.2688 200.438 29.5005 200.438 29.4488ZM200.577 40.203L201.748 38.2497L202.919 40.203H200.577ZM220.895 68.1744C220.895 68.6756 220.484 69.0843 219.981 69.0843C219.478 69.0843 219.067 68.6756 219.067 68.1744C219.067 67.6732 219.478 67.2645 219.981 67.2645C220.484 67.2645 220.895 67.6732 220.895 68.1744ZM237.419 42.5204C237.71 42.5204 237.89 42.5204 238.001 42.5204V51.004C238.001 54.9213 236.406 57.431 232.496 59.6703C231.225 60.3987 229.809 60.8879 228.442 61.3615C225.498 62.3796 222.462 63.4338 220.295 66.8883C220.195 66.8642 220.091 66.8498 219.982 66.8498C219.874 66.8498 219.773 66.863 219.676 66.8871C217.508 63.4277 214.471 62.3736 211.524 61.3543C210.155 60.8807 208.74 60.3915 207.469 59.6631C203.576 57.4346 201.827 54.6833 201.965 50.998V42.5216C202.014 42.5216 202.081 42.5216 202.182 42.5216H202.547C203.484 42.5216 205.054 42.1129 205.06 39.3784C205.06 39.3736 205.061 39.3676 205.061 39.3628V30.5462H206.494C206.494 30.5462 206.496 30.5462 206.499 30.5462C209.501 30.5462 210.283 33.4959 210.481 35.2544C210.49 35.3337 210.498 35.4107 210.504 35.484L210.513 35.5729C210.521 35.6619 210.532 35.8169 210.532 35.8169C210.815 35.8782 210.799 35.8818 210.954 35.9191C212.272 34.5176 214.491 34.0656 214.742 34.0188C216.002 33.782 217.328 33.9562 218.575 34.526C218.822 34.639 219.207 34.8493 219.299 34.9082C219.353 34.9431 219.443 34.9972 219.538 35.0537C219.617 35.1005 219.701 35.151 219.767 35.1919L220.185 35.1883C220.25 35.1474 220.332 35.0993 220.408 35.0537C220.504 34.9972 220.593 34.9431 220.647 34.9082C220.739 34.8493 221.124 34.639 221.372 34.526C221.765 34.3457 222.167 34.2063 222.572 34.1053C222.579 34.1053 222.586 34.1017 222.593 34.1005C223.464 33.8877 224.348 33.8577 225.203 34.0188C226.032 34.175 227.89 34.7904 229.013 36.002C229.013 36.0261 229.444 35.746 229.444 35.746C229.447 35.6895 229.452 35.6342 229.458 35.5705L229.467 35.4828C229.474 35.4083 229.481 35.3325 229.489 35.2532C229.689 33.4947 230.47 30.545 233.472 30.545C233.473 30.545 233.474 30.545 233.477 30.545H234.905V36.2364C234.905 36.2364 234.903 36.6776 234.905 36.6776V39.3688C234.908 42.1105 236.48 42.5204 237.418 42.5204H237.419ZM235.32 22.5001C235.32 22.0746 235.667 21.7285 236.095 21.7285C236.522 21.7285 236.87 22.0722 236.87 22.4941C236.87 22.916 236.522 23.2586 236.095 23.2586H235.325L235.321 22.5001H235.32ZM239.558 31.2145L239.557 31.235C239.546 31.3996 239.534 31.5703 239.517 31.7362C239.513 31.765 239.51 31.7951 239.505 31.8251L239.348 31.5174C239.348 31.5174 239.346 31.515 239.346 31.5126C239.342 31.5054 239.337 31.4994 239.333 31.4934C239.33 31.4886 239.326 31.4826 239.323 31.4778C239.318 31.4729 239.313 31.4681 239.308 31.4633C239.303 31.4585 239.298 31.4537 239.294 31.4501C239.289 31.4453 239.283 31.4429 239.277 31.4381C239.271 31.4345 239.266 31.4309 239.26 31.4273C239.254 31.4237 239.248 31.4225 239.242 31.4189C239.234 31.4165 239.228 31.4129 239.221 31.4116C239.219 31.4116 239.218 31.4104 239.215 31.4092C239.21 31.408 239.206 31.408 239.202 31.4068C239.195 31.4056 239.189 31.4044 239.181 31.4032C239.174 31.402 239.167 31.4032 239.161 31.4032C239.155 31.4032 239.148 31.4032 239.142 31.4032C239.134 31.4032 239.127 31.4056 239.121 31.4068C239.115 31.408 239.109 31.4092 239.102 31.4116C239.094 31.4141 239.088 31.4165 239.081 31.4201C239.078 31.4213 239.073 31.4225 239.069 31.4249C239.068 31.4249 239.065 31.4273 239.064 31.4285C239.058 31.4321 239.052 31.4357 239.046 31.4393C239.04 31.4429 239.035 31.4465 239.029 31.4513C239.024 31.4549 239.02 31.4597 239.016 31.4645C239.011 31.4693 239.006 31.4741 239.002 31.4802C238.998 31.485 238.994 31.491 238.991 31.4958C238.987 31.5018 238.982 31.5078 238.98 31.5138C238.977 31.5186 238.975 31.5246 238.973 31.5306C238.97 31.5379 238.967 31.5451 238.964 31.5523C238.964 31.5535 238.963 31.5559 238.962 31.5571C238.637 32.7699 238.3 34.0236 237.234 34.907L237.227 34.913L237.097 34.3181C237.077 34.2291 237.001 34.163 236.911 34.1558C236.82 34.1486 236.735 34.2003 236.7 34.2844C236.671 34.3553 236.642 34.4346 236.611 34.5188C236.557 34.669 236.496 34.8397 236.413 35.0104C236.23 35.3914 235.956 35.8085 235.325 36.085V23.7021C236.574 23.8968 239.58 24.838 239.58 29.3599C239.58 29.3623 239.58 29.3635 239.58 29.3659C239.58 29.5065 239.58 29.6495 239.581 29.7938C239.583 30.2613 239.587 30.7445 239.558 31.2121V31.2145Z" fill="#F4F4F7"/>
<path d="M205.174 43.3965H205.805V46.9748H205.174V43.3965Z" fill="#F4F4F7"/>
<path d="M206.514 44.2751H207.135V44.6898C207.31 44.4398 207.561 44.2198 207.983 44.2198C208.594 44.2198 208.948 44.6285 208.948 45.2524V46.9748H208.327V45.4411C208.327 45.0216 208.117 44.7812 207.746 44.7812C207.376 44.7812 207.135 45.0312 207.135 45.4507V46.9736H206.514V44.2751Z" fill="#F4F4F7"/>
<path d="M209.645 46.2284V44.8077H209.301V44.2764H209.645V43.5348H210.266V44.2764H210.996V44.8077H210.266V46.1311C210.266 46.3715 210.39 46.4688 210.6 46.4688C210.738 46.4688 210.862 46.4388 210.985 46.3763V46.8823C210.83 46.9689 210.661 47.0205 210.425 47.0205C209.967 47.0205 209.645 46.821 209.645 46.2284Z" fill="#F4F4F7"/>
<path d="M211.222 45.6346V45.625C211.222 44.8533 211.771 44.2186 212.546 44.2186C213.408 44.2186 213.845 44.8929 213.845 45.6706C213.845 45.7271 213.84 45.7836 213.835 45.8449H211.843C211.91 46.2848 212.224 46.53 212.623 46.53C212.926 46.53 213.141 46.4171 213.357 46.2079L213.722 46.53C213.464 46.8366 213.111 47.0361 212.612 47.0361C211.826 47.0361 211.222 46.4687 211.222 45.6358V45.6346ZM213.229 45.4362C213.188 45.0372 212.951 44.7259 212.541 44.7259C212.161 44.7259 211.894 45.0167 211.837 45.4362H213.228H213.229Z" fill="#F4F4F7"/>
<path d="M214.291 44.2752H214.913V44.8834C215.082 44.4795 215.396 44.203 215.872 44.2235V44.8774H215.836C215.292 44.8774 214.913 45.2295 214.913 45.9459V46.9736H214.291V44.2752Z" fill="#F4F4F7"/>
<path d="M216.232 44.2751H216.854V44.6898C217.029 44.4398 217.28 44.2198 217.701 44.2198C218.312 44.2198 218.667 44.6285 218.667 45.2524V46.9748H218.046V45.4411C218.046 45.0216 217.835 44.7812 217.465 44.7812C217.094 44.7812 216.854 45.0312 216.854 45.4507V46.9736H216.232V44.2751Z" fill="#F4F4F7"/>
<path d="M219.056 46.1972V46.1876C219.056 45.6046 219.512 45.3185 220.175 45.3185C220.478 45.3185 220.694 45.3642 220.904 45.4315V45.3654C220.904 44.982 220.667 44.7776 220.231 44.7776C219.928 44.7776 219.703 44.8438 219.456 44.9459L219.292 44.4603C219.59 44.3269 219.883 44.2404 220.313 44.2404C220.719 44.2404 221.022 44.3473 221.212 44.5421C221.412 44.7368 221.504 45.0228 221.504 45.375V46.9749H220.898V46.6371C220.713 46.8571 220.431 47.0302 220.015 47.0302C219.507 47.0302 219.056 46.7393 219.056 46.1972ZM220.913 46.0037V45.8198C220.754 45.7585 220.544 45.7128 220.298 45.7128C219.897 45.7128 219.662 45.8811 219.662 46.1623V46.1719C219.662 46.4328 219.892 46.5806 220.19 46.5806C220.601 46.5806 220.915 46.345 220.915 46.0025L220.913 46.0037Z" fill="#F4F4F7"/>
<path d="M222.171 46.2284V44.8077H221.827V44.2764H222.171V43.5348H222.793V44.2764H223.522V44.8077H222.793V46.1311C222.793 46.3715 222.916 46.4688 223.126 46.4688C223.265 46.4688 223.388 46.4388 223.511 46.3763V46.8823C223.357 46.9689 223.188 47.0205 222.951 47.0205C222.493 47.0205 222.171 46.821 222.171 46.2284Z" fill="#F4F4F7"/>
<path d="M223.983 43.2739H224.651V43.8617H223.983V43.2739ZM224.009 44.2752H224.63V46.9736H224.009V44.2752Z" fill="#F4F4F7"/>
<path d="M225.113 45.6406V45.631C225.113 44.8593 225.729 44.2198 226.561 44.2198C227.392 44.2198 228.003 44.8485 228.003 45.6202V45.6298C228.003 46.3966 227.387 47.0361 226.551 47.0361C225.714 47.0361 225.113 46.4075 225.113 45.6406ZM227.381 45.6406V45.631C227.381 45.155 227.037 44.7619 226.55 44.7619C226.062 44.7619 225.734 45.1502 225.734 45.6202V45.6298C225.734 46.0998 226.078 46.494 226.561 46.494C227.043 46.494 227.381 46.1058 227.381 45.6406Z" fill="#F4F4F7"/>
<path d="M228.454 44.2751H229.076V44.6898C229.251 44.4398 229.502 44.2198 229.923 44.2198C230.534 44.2198 230.889 44.6285 230.889 45.2524V46.9748H230.267V45.4411C230.267 45.0216 230.057 44.7812 229.687 44.7812C229.316 44.7812 229.076 45.0312 229.076 45.4507V46.9736H228.454V44.2751Z" fill="#F4F4F7"/>
<path d="M231.277 46.1972V46.1876C231.277 45.6046 231.735 45.3185 232.396 45.3185C232.699 45.3185 232.914 45.3642 233.125 45.4315V45.3654C233.125 44.982 232.889 44.7776 232.453 44.7776C232.15 44.7776 231.924 44.8438 231.678 44.9459L231.514 44.4603C231.812 44.3269 232.104 44.2404 232.535 44.2404C232.941 44.2404 233.244 44.3473 233.433 44.5421C233.634 44.7368 233.725 45.0228 233.725 45.375V46.9749H233.119V46.6371C232.935 46.8571 232.652 47.0302 232.237 47.0302C231.729 47.0302 231.277 46.7393 231.277 46.1972ZM233.136 46.0037V45.8198C232.977 45.7585 232.767 45.7128 232.521 45.7128C232.12 45.7128 231.885 45.8811 231.885 46.1623V46.1719C231.885 46.4328 232.115 46.5806 232.413 46.5806C232.824 46.5806 233.138 46.345 233.138 46.0025L233.136 46.0037Z" fill="#F4F4F7"/>
<path d="M234.327 43.2427H234.949V46.9736H234.327V43.2427Z" fill="#F4F4F7"/>
<path d="M205.771 48.0217H207.188C208.029 48.0217 208.553 48.4977 208.553 49.2177V49.2273C208.553 50.0302 207.906 50.4485 207.115 50.4485H206.402V51.5988H205.771V48.0205V48.0217ZM207.136 49.8824C207.614 49.8824 207.911 49.6167 207.911 49.2429V49.2333C207.911 48.8138 207.608 48.5939 207.136 48.5939H206.402V49.8824H207.136Z" fill="#F4F4F7"/>
<path d="M208.947 48.9004H209.569V49.5086C209.738 49.1047 210.052 48.8283 210.529 48.8487V49.5026H210.492C209.948 49.5026 209.569 49.8548 209.569 50.5712V51.5989H208.947V48.9004Z" fill="#F4F4F7"/>
<path d="M210.646 50.2647V50.2551C210.646 49.4834 211.262 48.844 212.094 48.844C212.926 48.844 213.536 49.4726 213.536 50.2443V50.2539C213.536 51.0208 212.921 51.6602 212.084 51.6602C211.248 51.6602 210.646 51.0316 210.646 50.2647ZM212.915 50.2647V50.2551C212.915 49.7791 212.571 49.3861 212.083 49.3861C211.595 49.3861 211.267 49.7743 211.267 50.2443V50.2539C211.267 50.7239 211.611 51.1181 212.094 51.1181C212.577 51.1181 212.915 50.7299 212.915 50.2647Z" fill="#F4F4F7"/>
<path d="M214.127 49.4317H213.783V48.9161H214.127V48.7165C214.127 48.4196 214.204 48.1949 214.348 48.0518C214.492 47.9088 214.692 47.8367 214.959 47.8367C215.175 47.8367 215.323 47.8679 215.462 47.9088V48.4305C215.339 48.3896 215.232 48.3643 215.098 48.3643C214.861 48.3643 214.738 48.4917 214.738 48.773V48.9209H215.456V49.4317H214.748V51.5989H214.126V49.4317H214.127Z" fill="#F4F4F7"/>
<path d="M215.539 50.2598V50.2502C215.539 49.4785 216.088 48.8439 216.863 48.8439C217.725 48.8439 218.162 49.5182 218.162 50.2959C218.162 50.3524 218.157 50.4089 218.152 50.4702H216.161C216.227 50.9101 216.541 51.1553 216.941 51.1553C217.244 51.1553 217.458 51.0423 217.674 50.8332L218.039 51.1553C217.782 51.4618 217.428 51.6613 216.93 51.6613C216.144 51.6613 215.539 51.094 215.539 50.261V50.2598ZM217.545 50.0603C217.504 49.6612 217.268 49.3499 216.857 49.3499C216.477 49.3499 216.21 49.6408 216.153 50.0603H217.544H217.545Z" fill="#F4F4F7"/>
<path d="M218.388 51.2467L218.666 50.8272C218.964 51.0472 219.276 51.1589 219.554 51.1589C219.832 51.1589 219.975 51.046 219.975 50.8681V50.8584C219.975 50.6493 219.688 50.5772 219.369 50.4798C218.969 50.3668 218.522 50.2034 218.522 49.6877V49.6781C218.522 49.1673 218.948 48.8547 219.486 48.8547C219.826 48.8547 220.195 48.9725 220.482 49.1612L220.236 49.6012C219.974 49.4425 219.696 49.3451 219.471 49.3451C219.229 49.3451 219.09 49.4581 219.09 49.6108V49.6204C219.09 49.8199 219.383 49.9017 219.701 50.0038C220.096 50.1264 220.543 50.3055 220.543 50.7911V50.8008C220.543 51.3681 220.101 51.6494 219.537 51.6494C219.152 51.6494 218.726 51.5111 218.387 51.2455L218.388 51.2467Z" fill="#F4F4F7"/>
<path d="M220.729 51.2467L221.006 50.8272C221.305 51.0472 221.617 51.1589 221.895 51.1589C222.172 51.1589 222.316 51.046 222.316 50.8681V50.8584C222.316 50.6493 222.029 50.5772 221.71 50.4798C221.309 50.3668 220.863 50.2034 220.863 49.6877V49.6781C220.863 49.1673 221.289 48.8547 221.827 48.8547C222.166 48.8547 222.536 48.9725 222.823 49.1612L222.577 49.6012C222.315 49.4425 222.037 49.3451 221.812 49.3451C221.57 49.3451 221.431 49.4581 221.431 49.6108V49.6204C221.431 49.8199 221.723 49.9017 222.042 50.0038C222.437 50.1264 222.883 50.3055 222.883 50.7911V50.8008C222.883 51.3681 222.442 51.6494 221.878 51.6494C221.493 51.6494 221.067 51.5111 220.728 51.2455L220.729 51.2467Z" fill="#F4F4F7"/>
<path d="M223.352 47.8992H224.019V48.4869H223.352V47.8992ZM223.377 48.9004H223.999V51.5989H223.377V48.9004Z" fill="#F4F4F7"/>
<path d="M224.481 50.2646V50.255C224.481 49.4833 225.097 48.8439 225.929 48.8439C226.76 48.8439 227.371 49.4725 227.371 50.2442V50.2538C227.371 51.0207 226.756 51.6601 225.919 51.6601C225.083 51.6601 224.481 51.0315 224.481 50.2646ZM226.75 50.2646V50.255C226.75 49.779 226.406 49.386 225.918 49.386C225.43 49.386 225.102 49.7742 225.102 50.2442V50.2538C225.102 50.7238 225.446 51.118 225.929 51.118C226.412 51.118 226.75 50.7298 226.75 50.2646Z" fill="#F4F4F7"/>
<path d="M227.823 48.9004H228.445V49.3151C228.62 49.0651 228.871 48.8451 229.292 48.8451C229.903 48.8451 230.258 49.2538 230.258 49.8776V51.6H229.636V50.0663C229.636 49.6468 229.426 49.4064 229.056 49.4064C228.685 49.4064 228.445 49.6564 228.445 50.0759V51.5988H227.823V48.9004Z" fill="#F4F4F7"/>
<path d="M230.646 50.8224V50.8128C230.646 50.2299 231.104 49.9438 231.765 49.9438C232.068 49.9438 232.283 49.9895 232.495 50.0568V49.9907C232.495 49.6072 232.258 49.4029 231.822 49.4029C231.519 49.4029 231.293 49.469 231.047 49.5712L230.883 49.0856C231.181 48.9521 231.473 48.8656 231.904 48.8656C232.31 48.8656 232.613 48.9726 232.802 49.1673C233.003 49.362 233.095 49.6481 233.095 50.0003V51.6001H232.489V51.2624C232.304 51.4823 232.021 51.6554 231.606 51.6554C231.098 51.6554 230.646 51.3645 230.646 50.8224ZM232.505 50.6277V50.4438C232.346 50.3825 232.136 50.3368 231.89 50.3368C231.489 50.3368 231.254 50.5051 231.254 50.7864V50.796C231.254 51.0568 231.484 51.2047 231.782 51.2047C232.193 51.2047 232.507 50.9691 232.507 50.6265L232.505 50.6277Z" fill="#F4F4F7"/>
<path d="M233.695 47.8679H234.317V51.5989H233.695V47.8679Z" fill="#F4F4F7"/>
<path d="M211.422 52.6459H212.839C213.68 52.6459 214.204 53.1218 214.204 53.8418V53.8514C214.204 54.6544 213.557 55.0727 212.767 55.0727H212.053V56.223H211.422V52.6447V52.6459ZM212.787 54.5065C213.265 54.5065 213.562 54.2409 213.562 53.8671V53.8575C213.562 53.438 213.259 53.218 212.787 53.218H212.053V54.5065H212.787Z" fill="#F4F4F7"/>
<path d="M214.368 55.4477V55.4381C214.368 54.8551 214.824 54.569 215.487 54.569C215.79 54.569 216.006 54.6147 216.216 54.682V54.6159C216.216 54.2325 215.98 54.0281 215.544 54.0281C215.241 54.0281 215.015 54.0942 214.769 54.1964L214.605 53.7108C214.903 53.5774 215.195 53.4908 215.626 53.4908C216.032 53.4908 216.335 53.5978 216.524 53.7925C216.724 53.9873 216.816 54.2733 216.816 54.6255V56.2254H216.21V55.8876C216.026 56.1076 215.743 56.2807 215.328 56.2807C214.82 56.2807 214.368 55.9898 214.368 55.4477ZM216.226 55.253V55.0691C216.067 55.0078 215.857 54.9621 215.61 54.9621C215.21 54.9621 214.974 55.1304 214.974 55.4116V55.4212C214.974 55.6821 215.205 55.8299 215.503 55.8299C215.913 55.8299 216.227 55.5943 216.227 55.2518L216.226 55.253Z" fill="#F4F4F7"/>
<path d="M217.381 53.5256H218.003V54.1339C218.172 53.73 218.485 53.4535 218.962 53.474V54.1278H218.926C218.382 54.1278 218.003 54.48 218.003 55.1964V56.2241H217.381V53.5256Z" fill="#F4F4F7"/>
<path d="M219.63 55.4777V54.057H219.286V53.5257H219.63V52.7841H220.252V53.5257H220.981V54.057H220.252V55.3803C220.252 55.6207 220.375 55.7181 220.585 55.7181C220.724 55.7181 220.847 55.6881 220.97 55.6256V56.1316C220.816 56.2181 220.647 56.2698 220.41 56.2698C219.952 56.2698 219.63 56.0703 219.63 55.4777Z" fill="#F4F4F7"/>
<path d="M221.433 53.5256H222.054V53.9403C222.229 53.6903 222.48 53.4703 222.902 53.4703C223.512 53.4703 223.867 53.879 223.867 54.5028V56.2253H223.246V54.6916C223.246 54.2721 223.036 54.0317 222.665 54.0317C222.294 54.0317 222.054 54.2817 222.054 54.7012V56.2241H221.433V53.5256Z" fill="#F4F4F7"/>
<path d="M224.286 54.8851V54.8754C224.286 54.1038 224.835 53.4691 225.61 53.4691C226.472 53.4691 226.909 54.1434 226.909 54.9211C226.909 54.9776 226.904 55.0341 226.9 55.0954H224.908C224.974 55.5353 225.288 55.7805 225.688 55.7805C225.991 55.7805 226.205 55.6676 226.422 55.4584L226.786 55.7805C226.529 56.087 226.175 56.2866 225.677 56.2866C224.891 56.2866 224.286 55.7192 224.286 54.8863V54.8851ZM226.294 54.6855C226.253 54.2865 226.016 53.9752 225.606 53.9752C225.225 53.9752 224.958 54.266 224.902 54.6855H226.292H226.294Z" fill="#F4F4F7"/>
<path d="M227.355 53.5256H227.977V54.1339C228.146 53.73 228.46 53.4535 228.937 53.474V54.1278H228.901C228.356 54.1278 227.977 54.48 227.977 55.1964V56.2241H227.355V53.5256Z" fill="#F4F4F7"/>
<path d="M214.838 57.2711H217.513V57.8432H215.469V58.8193H217.281V59.3914H215.469V60.8482H214.838V57.2699V57.2711Z" fill="#F4F4F7"/>
<path d="M217.965 57.1484H218.632V57.7362H217.965V57.1484ZM217.99 58.1509H218.612V60.8493H217.99V58.1509Z" fill="#F4F4F7"/>
<path d="M219.243 58.1509H219.865V58.7591C220.034 58.3552 220.348 58.0788 220.824 58.0992V58.7531H220.788C220.244 58.7531 219.865 59.1053 219.865 59.8217V60.8493H219.243V58.1509Z" fill="#F4F4F7"/>
<path d="M221.183 58.1509H221.805V58.5595C221.98 58.3191 222.215 58.0944 222.631 58.0944C223.021 58.0944 223.299 58.2831 223.443 58.5703C223.659 58.2843 223.946 58.0944 224.356 58.0944C224.947 58.0944 225.306 58.467 225.306 59.1269V60.8493H224.685V59.3156C224.685 58.8865 224.484 58.6557 224.135 58.6557C223.787 58.6557 223.555 58.8913 223.555 59.3252V60.8481H222.933V59.3096C222.933 58.8901 222.728 58.6557 222.384 58.6557C222.04 58.6557 221.803 58.9117 221.803 59.3252V60.8481H221.182V58.1497L221.183 58.1509Z" fill="#F4F4F7"/>
<path d="M205.929 37.5728V37.5668C205.929 36.9646 206.382 36.4658 207.011 36.4658C207.398 36.4658 207.631 36.6028 207.845 36.8036L207.679 36.9803C207.499 36.8096 207.298 36.6882 207.007 36.6882C206.534 36.6882 206.179 37.0716 206.179 37.562V37.568C206.179 38.0609 206.536 38.4479 207.007 38.4479C207.3 38.4479 207.492 38.3349 207.697 38.1402L207.857 38.2952C207.633 38.52 207.39 38.6691 207.001 38.6691C206.384 38.6691 205.928 38.1859 205.928 37.5741L205.929 37.5728Z" fill="#F4F4F7"/>
<path d="M208.132 36.4105H208.367V37.3324C208.471 37.1617 208.636 37.0247 208.908 37.0247C209.289 37.0247 209.513 37.2807 209.513 37.6546V38.6318H209.277V37.7123C209.277 37.4202 209.118 37.2375 208.84 37.2375C208.563 37.2375 208.367 37.4358 208.367 37.7303V38.6306H208.132V36.4093V36.4105Z" fill="#F4F4F7"/>
<path d="M209.788 38.175V38.169C209.788 37.8373 210.063 37.6606 210.463 37.6606C210.664 37.6606 210.808 37.6882 210.948 37.7279V37.6726C210.948 37.3901 210.774 37.2435 210.477 37.2435C210.291 37.2435 210.144 37.2928 209.998 37.3589L209.928 37.1678C210.102 37.0884 210.273 37.0367 210.503 37.0367C210.732 37.0367 210.897 37.0944 211.013 37.2098C211.121 37.3168 211.175 37.4683 211.175 37.669V38.6306H210.949V38.3938C210.839 38.5368 210.656 38.6642 210.378 38.6642C210.085 38.6642 209.788 38.4972 209.788 38.1738V38.175ZM210.953 38.0536V37.901C210.837 37.8673 210.681 37.8337 210.488 37.8337C210.191 37.8337 210.027 37.9611 210.027 38.1594V38.1654C210.027 38.3637 210.211 38.4791 210.424 38.4791C210.714 38.4791 210.953 38.3024 210.953 38.0536Z" fill="#F4F4F7"/>
<path d="M211.569 37.0583H211.805V37.4694C211.921 37.2074 212.15 37.0187 212.449 37.0307V37.2831H212.431C212.086 37.2831 211.805 37.5295 211.805 38.0043V38.6305H211.569V37.0571V37.0583Z" fill="#F4F4F7"/>
<path d="M212.783 38.2147V37.2651H212.563V37.0584H212.783V36.5836H213.019V37.0584H213.52V37.2651H213.019V38.1847C213.019 38.3758 213.126 38.4467 213.284 38.4467C213.364 38.4467 213.43 38.4311 213.513 38.3914V38.5921C213.431 38.6342 213.342 38.6594 213.23 38.6594C212.976 38.6594 212.783 38.5344 212.783 38.2147Z" fill="#F4F4F7"/>
<path d="M213.685 37.8492V37.8432C213.685 37.3901 214.006 37.0247 214.443 37.0247C214.91 37.0247 215.179 37.3961 215.179 37.8552C215.179 37.8853 215.179 37.9033 215.175 37.931H213.922C213.956 38.2711 214.198 38.4634 214.479 38.4634C214.696 38.4634 214.848 38.3757 214.977 38.2411L215.125 38.3721C214.965 38.5488 214.773 38.6678 214.474 38.6678C214.041 38.6678 213.686 38.336 213.686 37.8492H213.685ZM214.94 37.7579C214.916 37.4718 214.75 37.2218 214.435 37.2218C214.16 37.2218 213.953 37.4502 213.922 37.7579H214.94Z" fill="#F4F4F7"/>
<path d="M215.484 37.0583H215.72V37.4694C215.836 37.2074 216.065 37.0187 216.364 37.0307V37.2831H216.346C216.001 37.2831 215.72 37.5295 215.72 38.0043V38.6305H215.484V37.0571V37.0583Z" fill="#F4F4F7"/>
<path d="M216.45 37.8492V37.8432C216.45 37.3901 216.771 37.0247 217.208 37.0247C217.675 37.0247 217.945 37.3961 217.945 37.8552C217.945 37.8853 217.945 37.9033 217.941 37.931H216.688C216.722 38.2711 216.963 38.4634 217.244 38.4634C217.462 38.4634 217.614 38.3757 217.743 38.2411L217.89 38.3721C217.731 38.5488 217.539 38.6678 217.24 38.6678C216.806 38.6678 216.451 38.336 216.451 37.8492H216.45ZM217.706 37.7579C217.681 37.4718 217.516 37.2218 217.201 37.2218C216.926 37.2218 216.718 37.4502 216.688 37.7579H217.706Z" fill="#F4F4F7"/>
<path d="M218.158 37.8493V37.8433C218.158 37.3288 218.534 37.0247 218.913 37.0247C219.206 37.0247 219.395 37.1834 219.517 37.3589V36.4093H219.753V38.6306H219.517V38.3145C219.389 38.5032 219.202 38.6642 218.913 38.6642C218.534 38.6642 218.158 38.3661 218.158 37.8493ZM219.527 37.8469V37.8409C219.527 37.4791 219.249 37.2351 218.956 37.2351C218.663 37.2351 218.4 37.4598 218.4 37.8409V37.8469C218.4 38.2183 218.659 38.4551 218.956 38.4551C219.253 38.4551 219.527 38.2087 219.527 37.8469Z" fill="#F4F4F7"/>
<path d="M220.844 36.5018H221.085V38.6318H220.844V36.5018Z" fill="#F4F4F7"/>
<path d="M221.564 37.0583H221.8V37.3324C221.904 37.1617 222.069 37.0247 222.341 37.0247C222.722 37.0247 222.945 37.2807 222.945 37.6545V38.6317H222.71V37.7122C222.71 37.4201 222.551 37.2374 222.273 37.2374C221.995 37.2374 221.8 37.4357 221.8 37.7302V38.6305H221.564V37.0571V37.0583Z" fill="#F4F4F7"/>
<path d="M223.209 38.4311L223.328 38.264C223.5 38.3914 223.689 38.4647 223.875 38.4647C224.061 38.4647 224.202 38.3674 224.202 38.2147V38.2087C224.202 38.05 224.017 37.9899 223.808 37.9323C223.56 37.8625 223.285 37.7772 223.285 37.4875V37.4815C223.285 37.2111 223.511 37.0308 223.823 37.0308C224.015 37.0308 224.23 37.0981 224.392 37.2038L224.285 37.3805C224.138 37.2868 223.969 37.2279 223.817 37.2279C223.631 37.2279 223.512 37.3252 223.512 37.4563V37.4623C223.512 37.6113 223.708 37.669 223.919 37.7327C224.164 37.806 224.426 37.8998 224.426 38.1835V38.1895C224.426 38.4876 224.178 38.6607 223.863 38.6607C223.638 38.6607 223.386 38.5729 223.209 38.4299V38.4311Z" fill="#F4F4F7"/>
<path d="M224.73 38.0356V37.0583H224.966V37.9779C224.966 38.27 225.125 38.4527 225.403 38.4527C225.68 38.4527 225.876 38.2543 225.876 37.9598V37.0596H226.108V38.633H225.876V38.3589C225.769 38.5296 225.607 38.6666 225.335 38.6666C224.954 38.6666 224.73 38.4106 224.73 38.0368V38.0356Z" fill="#F4F4F7"/>
<path d="M226.53 37.0583H226.766V37.4694C226.882 37.2074 227.111 37.0187 227.41 37.0307V37.2831H227.392C227.047 37.2831 226.766 37.5295 226.766 38.0043V38.6305H226.53V37.0571V37.0583Z" fill="#F4F4F7"/>
<path d="M227.465 38.175V38.169C227.465 37.8373 227.74 37.6606 228.14 37.6606C228.341 37.6606 228.485 37.6882 228.625 37.7279V37.6726C228.625 37.3901 228.451 37.2435 228.154 37.2435C227.968 37.2435 227.821 37.2928 227.675 37.3589L227.605 37.1678C227.779 37.0884 227.95 37.0367 228.179 37.0367C228.409 37.0367 228.574 37.0944 228.69 37.2098C228.797 37.3168 228.852 37.4683 228.852 37.669V38.6306H228.626V38.3938C228.516 38.5368 228.333 38.6642 228.055 38.6642C227.762 38.6642 227.465 38.4972 227.465 38.1738V38.175ZM228.63 38.0536V37.901C228.514 37.8673 228.358 37.8337 228.165 37.8337C227.868 37.8337 227.704 37.9611 227.704 38.1594V38.1654C227.704 38.3637 227.887 38.4791 228.101 38.4791C228.391 38.4791 228.63 38.3024 228.63 38.0536Z" fill="#F4F4F7"/>
<path d="M229.247 37.0583H229.482V37.3324C229.586 37.1617 229.752 37.0247 230.023 37.0247C230.406 37.0247 230.628 37.2807 230.628 37.6545V38.6317H230.393V37.7122C230.393 37.4201 230.233 37.2374 229.956 37.2374C229.678 37.2374 229.482 37.4357 229.482 37.7302V38.6305H229.247V37.0571V37.0583Z" fill="#F4F4F7"/>
<path d="M230.925 37.8528V37.8468C230.925 37.4021 231.274 37.0259 231.735 37.0259C232.034 37.0259 232.221 37.1509 232.367 37.3059L232.212 37.4706C232.086 37.3396 231.946 37.2338 231.732 37.2338C231.411 37.2338 231.167 37.5043 231.167 37.842V37.848C231.167 38.1894 231.419 38.4598 231.748 38.4598C231.95 38.4598 232.105 38.3589 232.231 38.2255L232.381 38.3649C232.221 38.5416 232.032 38.669 231.736 38.669C231.275 38.669 230.926 38.2952 230.926 37.854L230.925 37.8528Z" fill="#F4F4F7"/>
<path d="M232.517 37.8492V37.8432C232.517 37.3901 232.838 37.0247 233.275 37.0247C233.742 37.0247 234.011 37.3961 234.011 37.8552C234.011 37.8853 234.011 37.9033 234.007 37.931H232.754C232.788 38.2711 233.03 38.4634 233.311 38.4634C233.528 38.4634 233.68 38.3757 233.809 38.2411L233.955 38.3721C233.796 38.5488 233.604 38.6678 233.305 38.6678C232.871 38.6678 232.517 38.336 232.517 37.8492ZM233.772 37.7579C233.748 37.4718 233.582 37.2218 233.267 37.2218C232.992 37.2218 232.785 37.4502 232.754 37.7579H233.772Z" fill="#F4F4F7"/>
<path d="M214.485 39.3013H214.727V41.4312H214.485V39.3013Z" fill="#F4F4F7"/>
<path d="M215.206 39.8579H215.441V40.1319C215.545 39.9612 215.711 39.8242 215.982 39.8242C216.364 39.8242 216.587 40.0802 216.587 40.4541V41.4313H216.352V40.5118C216.352 40.2197 216.192 40.037 215.915 40.037C215.637 40.037 215.441 40.2353 215.441 40.5298V41.4301H215.206V39.8567V39.8579Z" fill="#F4F4F7"/>
<path d="M216.85 41.2305L216.969 41.0634C217.141 41.1908 217.33 41.2642 217.516 41.2642C217.702 41.2642 217.843 41.1668 217.843 41.0142V41.0081C217.843 40.8495 217.657 40.7894 217.448 40.7317C217.201 40.662 216.926 40.5766 216.926 40.287V40.2809C216.926 40.0105 217.151 39.8302 217.464 39.8302C217.656 39.8302 217.871 39.8975 218.033 40.0033L217.925 40.18C217.779 40.0862 217.61 40.0273 217.458 40.0273C217.272 40.0273 217.153 40.1247 217.153 40.2557V40.2617C217.153 40.4108 217.348 40.4685 217.559 40.5322C217.804 40.6055 218.066 40.6992 218.066 40.9829V40.9889C218.066 41.287 217.819 41.4601 217.504 41.4601C217.278 41.4601 217.027 41.3723 216.85 41.2293V41.2305Z" fill="#F4F4F7"/>
<path d="M218.448 41.0142V40.0646H218.229V39.8578H218.448V39.3831H218.684V39.8578H219.185V40.0646H218.684V40.9841C218.684 41.1752 218.791 41.2461 218.949 41.2461C219.029 41.2461 219.095 41.2305 219.179 41.1908V41.3916C219.096 41.4336 219.007 41.4589 218.895 41.4589C218.641 41.4589 218.448 41.3339 218.448 41.0142Z" fill="#F4F4F7"/>
<path d="M219.499 39.2556H219.768V39.514H219.499V39.2556ZM219.515 39.8578H219.75V41.4312H219.515V39.8578Z" fill="#F4F4F7"/>
<path d="M220.271 41.0142V40.0646H220.052V39.8578H220.271V39.3831H220.507V39.8578H221.008V40.0646H220.507V40.9841C220.507 41.1752 220.614 41.2461 220.772 41.2461C220.852 41.2461 220.918 41.2305 221.002 41.1908V41.3916C220.92 41.4336 220.83 41.4589 220.718 41.4589C220.465 41.4589 220.271 41.3339 220.271 41.0142Z" fill="#F4F4F7"/>
<path d="M221.293 40.835V39.8578H221.528V40.7773C221.528 41.0694 221.688 41.2521 221.965 41.2521C222.243 41.2521 222.439 41.0538 222.439 40.7593V39.859H222.67V41.4324H222.439V41.1583C222.331 41.329 222.169 41.466 221.898 41.466C221.516 41.466 221.293 41.21 221.293 40.8362V40.835Z" fill="#F4F4F7"/>
<path d="M223.175 41.0142V40.0646H222.955V39.8578H223.175V39.3831H223.41V39.8578H223.911V40.0646H223.41V40.9841C223.41 41.1752 223.518 41.2461 223.676 41.2461C223.755 41.2461 223.822 41.2305 223.905 41.1908V41.3916C223.823 41.4336 223.734 41.4589 223.621 41.4589C223.368 41.4589 223.175 41.3339 223.175 41.0142Z" fill="#F4F4F7"/>
<path d="M224.076 40.6488V40.6428C224.076 40.1896 224.397 39.8242 224.834 39.8242C225.301 39.8242 225.571 40.1956 225.571 40.6548C225.571 40.6848 225.571 40.7029 225.567 40.7305H224.314C224.348 41.0707 224.589 41.263 224.87 41.263C225.088 41.263 225.24 41.1753 225.369 41.0406L225.516 41.1716C225.357 41.3483 225.165 41.4673 224.866 41.4673C224.432 41.4673 224.077 41.1356 224.077 40.6488H224.076ZM225.332 40.5574C225.307 40.2714 225.142 40.0213 224.827 40.0213C224.552 40.0213 224.344 40.2497 224.314 40.5574H225.332Z" fill="#F4F4F7"/>
</g>
<defs>
<clipPath id="clip0_3013_27">
<rect width="184" height="46" fill="white" transform="translate(0 12.5)"/>
</clipPath>
<clipPath id="clip1_3013_27">
<rect width="40" height="69" fill="white" transform="translate(200 0.5)"/>
</clipPath>
</defs>
</svg>
