<svg width="40" height="40" viewBox="0 0 40 40" fill="none" xmlns="http://www.w3.org/2000/svg">
<g clip-path="url(#clip0_3001_486)">
<path d="M20.001 30.5001C18.398 30.5001 16.795 30.5001 15.192 30.5001C14.6333 30.5001 14.4284 30.3441 14.253 29.7832C13.5276 27.4693 12.8022 25.1548 12.0774 22.8403C11.8962 22.2616 12.027 21.9219 12.5347 21.6513C14.6628 20.5172 16.7921 19.3855 18.9196 18.2496C19.6334 17.8686 20.3437 17.8575 21.0598 18.2385C23.207 19.3806 25.3559 20.5209 27.5025 21.6637C27.9558 21.9047 28.0971 22.2745 27.9356 22.7904C27.1986 25.1493 26.4599 27.5076 25.7201 29.8658C25.5765 30.3238 25.3362 30.4982 24.8529 30.4988C23.2354 30.5001 21.6179 30.4988 20.0004 30.4988L20.001 30.5001Z" fill="black"/>
<path d="M25.9684 19.0156C25.8828 18.9731 25.8179 18.9423 25.7542 18.9084C24.4575 18.2186 23.1584 17.5326 21.8645 16.8367C20.6291 16.1723 19.4047 16.1747 18.1699 16.8441C16.8789 17.5443 15.5787 18.226 14.2825 18.9158C14.2078 18.9552 14.132 18.9922 14.0312 19.0427C14.1077 18.2119 14.1795 17.418 14.2536 16.6235C14.3485 15.6064 14.4498 14.59 14.5384 13.5724C14.5882 13.0041 14.8724 12.7107 15.4079 12.7107C18.4698 12.7107 21.5316 12.7107 24.5929 12.7107C25.1348 12.7107 25.4121 12.9918 25.4654 13.5662C25.6298 15.3402 25.8 17.1135 25.9679 18.8874C25.9708 18.9176 25.9679 18.9478 25.9679 19.015L25.9684 19.0156Z" fill="black"/>
<path d="M17.7278 11.0897C17.7278 10.8475 17.7261 10.625 17.7278 10.4025C17.7336 9.81813 18.0254 9.50439 18.5713 9.50193C19.1415 9.49885 19.7118 9.50131 20.2814 9.50131C20.671 9.50131 21.0606 9.49823 21.4502 9.50254C21.9695 9.50809 22.2648 9.82368 22.2734 10.3784C22.2769 10.6083 22.274 10.8389 22.274 11.0903H17.7272L17.7278 11.0897Z" fill="black"/>
</g>
<defs>
<clipPath id="clip0_3001_486">
<rect width="16" height="21" fill="white" transform="translate(12 9.5)"/>
</clipPath>
</defs>
</svg>
