<svg width="40" height="40" viewBox="0 0 40 40" fill="none" xmlns="http://www.w3.org/2000/svg">
<rect width="40" height="40" rx="5" fill="black" fill-opacity="0.05"/>
<g clip-path="url(#clip0_3001_675)">
<path d="M21.8535 28.9932C21.7515 28.9932 21.7069 28.9932 21.6614 28.9932C18.7623 28.9932 15.8633 28.9949 12.9643 28.9924C12.0365 28.9915 11.2831 28.4103 11.0597 27.5359C11.0336 27.4323 11.005 27.3253 11.0058 27.2209C11.0117 26.3448 10.9712 25.4645 11.0454 24.5935C11.2072 22.6939 12.7747 21.0445 14.6607 20.7219C14.9237 20.6772 15.1917 20.6444 15.458 20.6435C17.0448 20.636 18.6317 20.6402 20.2186 20.6393C20.2649 20.6393 20.3113 20.6393 20.3576 20.6393C20.3576 20.6452 20.3593 20.652 20.3602 20.6579C20.2363 20.6958 20.1082 20.7227 19.9894 20.7741C19.3101 21.0656 18.8904 21.571 18.7893 22.3089C18.6123 23.6062 18.7135 24.8723 19.2789 26.0744C19.7778 27.1333 20.5447 27.9706 21.4566 28.6866C21.572 28.7776 21.6892 28.8669 21.8535 28.9932Z" fill="black"/>
<path d="M22.249 15.1732C22.2507 17.4745 20.3798 19.3505 18.0792 19.3539C15.7692 19.3581 13.8891 17.4796 13.8916 15.1706C13.8941 12.8692 15.7692 11 18.0716 11C20.3739 11 22.2473 12.8718 22.249 15.1732Z" fill="black"/>
<path d="M24.509 19.9966C25.1714 19.9966 25.8347 19.9966 26.4971 19.9966C27.0094 19.9966 27.2395 20.2249 27.2724 20.7329C27.2842 20.9165 27.3221 21.1052 27.3878 21.277C27.542 21.6848 27.8454 21.9038 28.2887 21.9248C28.6519 21.9417 28.8921 22.1354 28.9376 22.4875C29.0657 23.4832 29.0194 24.4629 28.6115 25.4005C28.2053 26.3339 27.5538 27.076 26.7448 27.6673C26.1313 28.1155 25.4698 28.4988 24.8242 28.9031C24.638 29.0202 24.4273 29.0337 24.2284 28.9292C23.1455 28.3598 22.1249 27.7036 21.2932 26.7887C20.2726 25.6667 19.8841 24.3416 20.0257 22.8464C20.0392 22.7066 20.0451 22.565 20.0746 22.4286C20.1352 22.1413 20.3577 21.9333 20.651 21.9307C21.3918 21.924 21.6732 21.3444 21.7255 20.8323C21.7314 20.7725 21.7297 20.7118 21.7331 20.652C21.7567 20.2476 22.0145 19.9991 22.4207 19.9975C23.1168 19.9949 23.8129 19.9975 24.509 19.9975V19.9966ZM24.1264 24.516C23.9562 24.3399 23.8096 24.1748 23.6478 24.0257C23.3882 23.7856 23.0056 23.7966 22.7604 24.04C22.516 24.2835 22.4991 24.671 22.7427 24.9262C23.0705 25.2691 23.4059 25.606 23.7506 25.932C24.0076 26.1755 24.4012 26.1704 24.6329 25.9026C25.2001 25.2447 25.7613 24.58 26.3015 23.9002C26.5999 23.5245 26.3614 22.9753 25.8886 22.8978C25.6273 22.8548 25.4217 22.9593 25.2549 23.1606C24.8891 23.6037 24.52 24.0434 24.1264 24.5143V24.516Z" fill="black"/>
</g>
<defs>
<clipPath id="clip0_3001_675">
<rect width="18" height="18" fill="white" transform="translate(11 11)"/>
</clipPath>
</defs>
</svg>
