<svg width="40" height="40" viewBox="0 0 40 40" fill="none" xmlns="http://www.w3.org/2000/svg">
<g clip-path="url(#clip0_3001_695)">
<path d="M18.7698 15.575C18.3849 15.1677 18.1707 14.713 18.1651 14.1578C18.1568 13.3333 18.5658 12.641 19.2798 12.3156C19.4226 12.2505 19.4764 12.1785 19.4727 12.0118C19.4616 11.5148 19.469 11.0178 19.469 10.5H20.4909C20.4909 11.1637 20.5271 11.8274 20.4779 12.4832C20.4464 12.9004 20.1469 13.1627 19.7722 13.3146C19.3633 13.4803 19.1565 13.8481 19.2214 14.2525C19.2872 14.6627 19.6062 14.9487 19.9985 14.9477C20.3991 14.9477 20.7228 14.6489 20.7812 14.2258C20.7905 14.1568 20.7849 14.0858 20.7979 14.0168C20.8498 13.7327 21.077 13.5483 21.3487 13.5641C21.6186 13.5799 21.8217 13.7949 21.8309 14.0907C21.8467 14.575 21.6928 14.998 21.4006 15.3669C21.3487 15.432 21.2949 15.4951 21.2272 15.5779C21.8421 15.931 22.4393 16.2732 23.0374 16.6154C24.2949 17.3353 25.5514 18.0562 26.8117 18.7712C26.9146 18.8294 27.0426 18.8609 27.1594 18.8629C27.7344 18.8718 28.3103 18.8649 28.8852 18.8678C29.5399 18.8718 29.9934 19.3323 29.9943 20.0316C30.0008 22.7929 29.9999 25.5533 29.9943 28.3146C29.9934 29.0266 29.5464 29.4911 28.8722 29.4961C27.9597 29.503 27.0482 29.498 26.1357 29.498C21.1966 29.498 16.2576 29.498 11.3186 29.4951C11.1229 29.4951 10.9198 29.4832 10.7344 29.426C10.266 29.2821 10.0018 28.8471 10.0008 28.2564C9.99897 26.4132 10.0008 24.569 10.0008 22.7258C10.0008 21.8521 9.99897 20.9783 10.0008 20.1045C10.0027 19.3195 10.4274 18.8679 11.1628 18.8649C11.6144 18.8629 12.0679 18.8471 12.5186 18.8698C12.8682 18.8876 13.1686 18.7929 13.4746 18.6154C15.1745 17.6282 16.8826 16.6578 18.588 15.6815C18.6381 15.6529 18.6882 15.6233 18.7698 15.575ZM15.3479 18.8146C15.3534 18.8274 15.3599 18.8412 15.3655 18.854H24.6881C24.6278 18.8077 24.6065 18.786 24.5814 18.7712C23.1005 17.9231 21.6214 17.074 20.1358 16.2357C20.0569 16.1913 19.9132 16.2081 19.8279 16.2554C18.856 16.8018 17.8897 17.359 16.9216 17.9132C16.3967 18.214 15.8728 18.5148 15.3488 18.8146H15.3479ZM13.1566 24.1716C13.1566 24.8008 13.1529 25.43 13.1575 26.0592C13.1603 26.4112 13.3337 26.645 13.6036 26.6844C13.9504 26.7347 14.2119 26.4892 14.2137 26.0779C14.2202 24.8107 14.2165 23.5444 14.2137 22.2771C14.2137 22.2002 14.2017 22.1183 14.1776 22.0454C14.0988 21.8047 13.9281 21.6815 13.6944 21.6667C13.4709 21.6529 13.2549 21.8195 13.1927 22.0523C13.164 22.1598 13.1575 22.2761 13.1575 22.3886C13.1538 22.9822 13.1556 23.5769 13.1566 24.1706V24.1716ZM17.3732 24.1765C17.3732 23.5562 17.3732 22.9359 17.3732 22.3156C17.3732 22.0503 17.2925 21.8314 17.0542 21.716C16.6981 21.5434 16.3253 21.8176 16.316 22.2722C16.3049 22.8402 16.3132 23.4083 16.3132 23.9763C16.3132 24.6667 16.3105 25.357 16.3142 26.0473C16.317 26.4497 16.5247 26.6933 16.8465 26.6913C17.159 26.6893 17.3667 26.4507 17.3704 26.0651C17.3769 25.4359 17.3723 24.8067 17.3723 24.1775L17.3732 24.1765ZM20.5289 24.1874C20.5289 23.6982 20.5289 23.2091 20.5289 22.7199C20.5289 22.6065 20.5289 22.4931 20.5289 22.3787C20.5262 21.9349 20.3305 21.6696 20.005 21.6647C19.6786 21.6598 19.4727 21.928 19.469 22.3659C19.469 22.4004 19.469 22.4359 19.469 22.4704C19.469 23.6065 19.4681 24.7416 19.4699 25.8777C19.4699 26.0168 19.4699 26.1607 19.5033 26.2929C19.5645 26.5375 19.7277 26.6726 19.9679 26.6884C20.209 26.7041 20.3852 26.5848 20.4761 26.355C20.5187 26.2465 20.5252 26.1164 20.5262 25.9961C20.5308 25.3935 20.528 24.7899 20.528 24.1874H20.5289ZM23.6856 24.1815C23.6856 23.5611 23.6893 22.9408 23.6847 22.3205C23.6819 21.9231 23.4686 21.6657 23.1561 21.6647C22.8436 21.6647 22.6312 21.9221 22.6266 22.3185C22.622 22.7554 22.6257 23.1923 22.6257 23.6292C22.6257 24.4329 22.6229 25.2367 22.6266 26.0404C22.6284 26.4221 22.8111 26.6617 23.1051 26.6864C23.4427 26.715 23.6782 26.4714 23.6828 26.0671C23.6903 25.4379 23.6847 24.8087 23.6847 24.1795L23.6856 24.1815ZM26.8414 24.1874C26.8414 23.5493 26.8506 22.9112 26.8386 22.2742C26.8293 21.7949 26.4204 21.5227 26.0587 21.7387C25.8389 21.8708 25.7805 22.0878 25.7805 22.3393C25.7823 23.1864 25.7805 24.0345 25.7805 24.8817C25.7805 25.284 25.7731 25.6854 25.7833 26.0878C25.7925 26.4941 26.0578 26.7406 26.4027 26.6834C26.6707 26.6391 26.8367 26.4063 26.8395 26.0483C26.8441 25.428 26.8404 24.8077 26.8395 24.1874H26.8414Z" fill="black"/>
</g>
<defs>
<clipPath id="clip0_3001_695">
<rect width="20" height="19" fill="white" transform="translate(10 10.5)"/>
</clipPath>
</defs>
</svg>
